G75*
G70*
%OFA0B0*%
%FSLAX24Y24*%
%IPPOS*%
%LPD*%
%AMOC8*
5,1,8,0,0,1.08239X$1,22.5*
%
%ADD10C,0.0100*%
%ADD11C,0.0040*%
%ADD12R,0.0280X0.0160*%
%ADD13C,0.0020*%
%ADD14C,0.0000*%
%ADD15C,0.0050*%
D10*
X000168Y003430D02*
X003438Y000160D01*
X009598Y000160D01*
X013278Y003840D01*
X016448Y003840D01*
X016448Y008630D01*
X013278Y008630D01*
X009598Y012310D01*
X003438Y012310D01*
X000168Y009040D01*
X000168Y003430D01*
D11*
X005188Y005530D02*
X005188Y005990D01*
X005418Y005990D01*
X005495Y005914D01*
X005495Y005760D01*
X005418Y005684D01*
X005188Y005684D01*
X005341Y005684D02*
X005495Y005530D01*
X005648Y005607D02*
X005725Y005684D01*
X005955Y005684D01*
X005955Y005760D02*
X005955Y005530D01*
X005725Y005530D01*
X005648Y005607D01*
X005725Y005837D02*
X005878Y005837D01*
X005955Y005760D01*
X006109Y005760D02*
X006185Y005837D01*
X006415Y005837D01*
X006569Y005837D02*
X006646Y005837D01*
X006646Y005530D01*
X006722Y005530D02*
X006569Y005530D01*
X006415Y005530D02*
X006185Y005530D01*
X006109Y005607D01*
X006109Y005760D01*
X006415Y005990D02*
X006415Y005530D01*
X006876Y005607D02*
X006876Y005760D01*
X006953Y005837D01*
X007106Y005837D01*
X007183Y005760D01*
X007183Y005607D01*
X007106Y005530D01*
X006953Y005530D01*
X006876Y005607D01*
X006646Y005990D02*
X006646Y006067D01*
X006699Y006230D02*
X006469Y006230D01*
X006315Y006230D02*
X006315Y006460D01*
X006239Y006537D01*
X006009Y006537D01*
X006009Y006230D01*
X005778Y006230D02*
X005625Y006230D01*
X005548Y006307D01*
X005548Y006460D01*
X005625Y006537D01*
X005778Y006537D01*
X005855Y006460D01*
X005855Y006384D01*
X005548Y006384D01*
X005395Y006384D02*
X005395Y006307D01*
X005318Y006230D01*
X005165Y006230D01*
X005088Y006307D01*
X005165Y006460D02*
X005318Y006460D01*
X005395Y006384D01*
X005165Y006460D02*
X005088Y006537D01*
X005088Y006614D01*
X005165Y006690D01*
X005318Y006690D01*
X005395Y006614D01*
X006469Y006460D02*
X006546Y006537D01*
X006776Y006537D01*
X006929Y006460D02*
X006929Y006307D01*
X007006Y006230D01*
X007159Y006230D01*
X007236Y006307D01*
X007236Y006460D01*
X007159Y006537D01*
X007006Y006537D01*
X006929Y006460D01*
X006776Y006307D02*
X006699Y006384D01*
X006546Y006384D01*
X006469Y006460D01*
X006699Y006230D02*
X006776Y006307D01*
X007390Y006384D02*
X007543Y006537D01*
X007620Y006537D01*
X007773Y006460D02*
X007927Y006460D01*
X007773Y006230D02*
X007773Y006690D01*
X008080Y006690D01*
X008234Y006690D02*
X008310Y006690D01*
X008310Y006230D01*
X008234Y006230D02*
X008387Y006230D01*
X008541Y006307D02*
X008617Y006230D01*
X008847Y006230D01*
X008847Y006153D02*
X008771Y006077D01*
X008694Y006077D01*
X008564Y005990D02*
X008257Y005990D01*
X008257Y005760D01*
X008410Y005837D01*
X008487Y005837D01*
X008564Y005760D01*
X008564Y005607D01*
X008487Y005530D01*
X008334Y005530D01*
X008257Y005607D01*
X008103Y005837D02*
X007950Y005530D01*
X007797Y005837D01*
X007390Y006230D02*
X007390Y006537D01*
X008541Y006537D02*
X008541Y006307D01*
X008847Y006153D02*
X008847Y006537D01*
D12*
X005753Y010285D03*
X005113Y010285D03*
X005108Y002270D03*
X006378Y002270D03*
D13*
X006419Y002930D02*
X006419Y003040D01*
X006383Y003077D01*
X006309Y003077D01*
X006273Y003040D01*
X006273Y002930D01*
X006493Y002930D01*
X006419Y003003D02*
X006493Y003077D01*
X006383Y003151D02*
X006383Y003298D01*
X006493Y003261D02*
X006273Y003261D01*
X006383Y003151D01*
X005323Y003188D02*
X005286Y003151D01*
X005323Y003188D02*
X005323Y003261D01*
X005286Y003298D01*
X005249Y003298D01*
X005213Y003261D01*
X005213Y003224D01*
X005213Y003261D02*
X005176Y003298D01*
X005139Y003298D01*
X005103Y003261D01*
X005103Y003188D01*
X005139Y003151D01*
X005139Y003077D02*
X005213Y003077D01*
X005249Y003040D01*
X005249Y002930D01*
X005249Y003003D02*
X005323Y003077D01*
X005323Y002930D02*
X005103Y002930D01*
X005103Y003040D01*
X005139Y003077D01*
X008278Y005028D02*
X008278Y005102D01*
X008278Y005065D02*
X008461Y005065D01*
X008498Y005028D01*
X008498Y004992D01*
X008461Y004955D01*
X008498Y005176D02*
X008498Y005323D01*
X008498Y005249D02*
X008278Y005249D01*
X008351Y005176D01*
X005318Y009203D02*
X005098Y009203D01*
X005098Y009313D01*
X005134Y009350D01*
X005208Y009350D01*
X005244Y009313D01*
X005244Y009203D01*
X005244Y009276D02*
X005318Y009350D01*
X005281Y009424D02*
X005244Y009424D01*
X005208Y009461D01*
X005208Y009534D01*
X005244Y009571D01*
X005281Y009571D01*
X005318Y009534D01*
X005318Y009461D01*
X005281Y009424D01*
X005208Y009461D02*
X005171Y009424D01*
X005134Y009424D01*
X005098Y009461D01*
X005098Y009534D01*
X005134Y009571D01*
X005171Y009571D01*
X005208Y009534D01*
X005638Y009561D02*
X005674Y009524D01*
X005711Y009524D01*
X005748Y009561D01*
X005748Y009671D01*
X005821Y009671D02*
X005674Y009671D01*
X005638Y009634D01*
X005638Y009561D01*
X005674Y009450D02*
X005638Y009413D01*
X005638Y009303D01*
X005858Y009303D01*
X005784Y009303D02*
X005784Y009413D01*
X005748Y009450D01*
X005674Y009450D01*
X005784Y009376D02*
X005858Y009450D01*
X005821Y009524D02*
X005858Y009561D01*
X005858Y009634D01*
X005821Y009671D01*
D14*
X016393Y008435D02*
X016393Y004035D01*
D15*
X010067Y004870D02*
X010067Y007587D01*
X008610Y007587D01*
X008610Y007272D01*
X008610Y005185D02*
X008610Y004870D01*
X010067Y004870D01*
M02*
