G75*
G70*
%OFA0B0*%
%FSLAX24Y24*%
%IPPOS*%
%LPD*%
%AMOC8*
5,1,8,0,0,1.08239X$1,22.5*
%
%ADD10R,0.0434X0.0356*%
%ADD11R,0.2080X0.0980*%
%ADD12R,0.0356X0.0198*%
%ADD13R,0.0474X0.0198*%
%ADD14C,0.0330*%
%ADD15C,0.0430*%
%ADD16C,0.1130*%
D10*
X005108Y002014D03*
X005108Y002526D03*
X006378Y002526D03*
X006378Y002014D03*
X005753Y010029D03*
X005113Y010029D03*
X005113Y010541D03*
X005753Y010541D03*
D11*
X015383Y007975D03*
X015383Y004495D03*
D12*
X008768Y005343D03*
X008768Y005540D03*
X008768Y005736D03*
X008768Y005933D03*
X008768Y006130D03*
X008768Y006327D03*
X008768Y006524D03*
X008768Y006721D03*
X008768Y006917D03*
X008768Y007114D03*
D13*
X009811Y007425D03*
X009811Y005032D03*
D14*
X008738Y005080D03*
X009388Y006580D03*
X008088Y007060D03*
X003658Y006740D03*
X002108Y006440D03*
X002108Y005460D03*
X003058Y003960D03*
X004508Y002670D03*
X005738Y002530D03*
X005118Y001680D03*
X004508Y001360D03*
X006378Y001680D03*
X006748Y001360D03*
X001278Y007690D03*
X002008Y007870D03*
X003348Y008420D03*
X003268Y009050D03*
X002008Y009420D03*
X002358Y010690D03*
X005118Y010880D03*
X005748Y010880D03*
X008668Y011930D03*
D15*
X004268Y000610D03*
X007768Y002110D03*
X008268Y002610D03*
X010268Y003610D03*
X011268Y003110D03*
X011268Y004110D03*
X010268Y004610D03*
X011768Y005110D03*
X012768Y005110D03*
X013268Y005110D03*
X013768Y005110D03*
X013768Y004610D03*
X013268Y004610D03*
X012768Y004610D03*
X012768Y005610D03*
X013268Y005610D03*
X013768Y005610D03*
X014268Y005610D03*
X014768Y005610D03*
X015268Y005610D03*
X015768Y005610D03*
X015768Y007110D03*
X015268Y007110D03*
X014768Y007110D03*
X014268Y007110D03*
X013768Y007110D03*
X013268Y007110D03*
X012768Y007110D03*
X012768Y007610D03*
X013268Y007610D03*
X013768Y007610D03*
X013768Y008110D03*
X013268Y008110D03*
X012768Y008110D03*
X011768Y007110D03*
X010768Y007110D03*
X010768Y006110D03*
X010268Y005610D03*
X006768Y005110D03*
X004768Y005110D03*
X003268Y005110D03*
X002268Y004110D03*
X004768Y007110D03*
X007268Y008610D03*
X008268Y008610D03*
X008268Y010110D03*
X007268Y010110D03*
X005768Y009110D03*
X004768Y009110D03*
X001768Y008610D03*
X003768Y011110D03*
X009268Y011110D03*
X010768Y010110D03*
X010768Y009110D03*
X010768Y002110D03*
X009268Y000610D03*
D16*
X012268Y003610D03*
X012268Y008860D03*
X000768Y008860D03*
X000768Y003610D03*
M02*
