G75*
G70*
%OFA0B0*%
%FSLAX24Y24*%
%IPPOS*%
%LPD*%
%AMOC8*
5,1,8,0,0,1.08239X$1,22.5*
%
%ADD10C,0.0080*%
%ADD11C,0.0100*%
%ADD12C,0.0197*%
%ADD13C,0.0050*%
%ADD14C,0.0020*%
%ADD15R,0.0160X0.0280*%
%ADD16C,0.0060*%
%ADD17C,0.0160*%
%ADD18C,0.0000*%
D10*
X000218Y003610D02*
X000220Y003657D01*
X000226Y003703D01*
X000236Y003749D01*
X000249Y003793D01*
X000267Y003837D01*
X000288Y003878D01*
X000312Y003918D01*
X000340Y003956D01*
X000371Y003991D01*
X000405Y004023D01*
X000441Y004052D01*
X000480Y004078D01*
X000520Y004101D01*
X000563Y004120D01*
X000607Y004136D01*
X000652Y004148D01*
X000698Y004156D01*
X000745Y004160D01*
X000791Y004160D01*
X000838Y004156D01*
X000884Y004148D01*
X000929Y004136D01*
X000973Y004120D01*
X001016Y004101D01*
X001056Y004078D01*
X001095Y004052D01*
X001131Y004023D01*
X001165Y003991D01*
X001196Y003956D01*
X001224Y003918D01*
X001248Y003878D01*
X001269Y003837D01*
X001287Y003793D01*
X001300Y003749D01*
X001310Y003703D01*
X001316Y003657D01*
X001318Y003610D01*
X001316Y003563D01*
X001310Y003517D01*
X001300Y003471D01*
X001287Y003427D01*
X001269Y003383D01*
X001248Y003342D01*
X001224Y003302D01*
X001196Y003264D01*
X001165Y003229D01*
X001131Y003197D01*
X001095Y003168D01*
X001056Y003142D01*
X001016Y003119D01*
X000973Y003100D01*
X000929Y003084D01*
X000884Y003072D01*
X000838Y003064D01*
X000791Y003060D01*
X000745Y003060D01*
X000698Y003064D01*
X000652Y003072D01*
X000607Y003084D01*
X000563Y003100D01*
X000520Y003119D01*
X000480Y003142D01*
X000441Y003168D01*
X000405Y003197D01*
X000371Y003229D01*
X000340Y003264D01*
X000312Y003302D01*
X000288Y003342D01*
X000267Y003383D01*
X000249Y003427D01*
X000236Y003471D01*
X000226Y003517D01*
X000220Y003563D01*
X000218Y003610D01*
X001322Y005696D02*
X001534Y005696D01*
X001988Y005846D02*
X001988Y006184D01*
X000868Y006184D02*
X000868Y005846D01*
X000218Y008860D02*
X000220Y008907D01*
X000226Y008953D01*
X000236Y008999D01*
X000249Y009043D01*
X000267Y009087D01*
X000288Y009128D01*
X000312Y009168D01*
X000340Y009206D01*
X000371Y009241D01*
X000405Y009273D01*
X000441Y009302D01*
X000480Y009328D01*
X000520Y009351D01*
X000563Y009370D01*
X000607Y009386D01*
X000652Y009398D01*
X000698Y009406D01*
X000745Y009410D01*
X000791Y009410D01*
X000838Y009406D01*
X000884Y009398D01*
X000929Y009386D01*
X000973Y009370D01*
X001016Y009351D01*
X001056Y009328D01*
X001095Y009302D01*
X001131Y009273D01*
X001165Y009241D01*
X001196Y009206D01*
X001224Y009168D01*
X001248Y009128D01*
X001269Y009087D01*
X001287Y009043D01*
X001300Y008999D01*
X001310Y008953D01*
X001316Y008907D01*
X001318Y008860D01*
X001316Y008813D01*
X001310Y008767D01*
X001300Y008721D01*
X001287Y008677D01*
X001269Y008633D01*
X001248Y008592D01*
X001224Y008552D01*
X001196Y008514D01*
X001165Y008479D01*
X001131Y008447D01*
X001095Y008418D01*
X001056Y008392D01*
X001016Y008369D01*
X000973Y008350D01*
X000929Y008334D01*
X000884Y008322D01*
X000838Y008314D01*
X000791Y008310D01*
X000745Y008310D01*
X000698Y008314D01*
X000652Y008322D01*
X000607Y008334D01*
X000563Y008350D01*
X000520Y008369D01*
X000480Y008392D01*
X000441Y008418D01*
X000405Y008447D01*
X000371Y008479D01*
X000340Y008514D01*
X000312Y008552D01*
X000288Y008592D01*
X000267Y008633D01*
X000249Y008677D01*
X000236Y008721D01*
X000226Y008767D01*
X000220Y008813D01*
X000218Y008860D01*
X011718Y008860D02*
X011720Y008907D01*
X011726Y008953D01*
X011736Y008999D01*
X011749Y009043D01*
X011767Y009087D01*
X011788Y009128D01*
X011812Y009168D01*
X011840Y009206D01*
X011871Y009241D01*
X011905Y009273D01*
X011941Y009302D01*
X011980Y009328D01*
X012020Y009351D01*
X012063Y009370D01*
X012107Y009386D01*
X012152Y009398D01*
X012198Y009406D01*
X012245Y009410D01*
X012291Y009410D01*
X012338Y009406D01*
X012384Y009398D01*
X012429Y009386D01*
X012473Y009370D01*
X012516Y009351D01*
X012556Y009328D01*
X012595Y009302D01*
X012631Y009273D01*
X012665Y009241D01*
X012696Y009206D01*
X012724Y009168D01*
X012748Y009128D01*
X012769Y009087D01*
X012787Y009043D01*
X012800Y008999D01*
X012810Y008953D01*
X012816Y008907D01*
X012818Y008860D01*
X012816Y008813D01*
X012810Y008767D01*
X012800Y008721D01*
X012787Y008677D01*
X012769Y008633D01*
X012748Y008592D01*
X012724Y008552D01*
X012696Y008514D01*
X012665Y008479D01*
X012631Y008447D01*
X012595Y008418D01*
X012556Y008392D01*
X012516Y008369D01*
X012473Y008350D01*
X012429Y008334D01*
X012384Y008322D01*
X012338Y008314D01*
X012291Y008310D01*
X012245Y008310D01*
X012198Y008314D01*
X012152Y008322D01*
X012107Y008334D01*
X012063Y008350D01*
X012020Y008369D01*
X011980Y008392D01*
X011941Y008418D01*
X011905Y008447D01*
X011871Y008479D01*
X011840Y008514D01*
X011812Y008552D01*
X011788Y008592D01*
X011767Y008633D01*
X011749Y008677D01*
X011736Y008721D01*
X011726Y008767D01*
X011720Y008813D01*
X011718Y008860D01*
X016432Y008066D02*
X017003Y008066D01*
X017003Y007022D01*
X017850Y007022D01*
X018145Y007318D01*
X019641Y007318D01*
X019641Y006983D01*
X020104Y006983D01*
X020104Y005487D01*
X019641Y005487D01*
X019641Y005152D01*
X018145Y005152D01*
X017850Y005448D01*
X017003Y005448D01*
X017003Y004404D01*
X016432Y004404D01*
X016432Y004719D02*
X016432Y007751D01*
X011718Y003610D02*
X011720Y003657D01*
X011726Y003703D01*
X011736Y003749D01*
X011749Y003793D01*
X011767Y003837D01*
X011788Y003878D01*
X011812Y003918D01*
X011840Y003956D01*
X011871Y003991D01*
X011905Y004023D01*
X011941Y004052D01*
X011980Y004078D01*
X012020Y004101D01*
X012063Y004120D01*
X012107Y004136D01*
X012152Y004148D01*
X012198Y004156D01*
X012245Y004160D01*
X012291Y004160D01*
X012338Y004156D01*
X012384Y004148D01*
X012429Y004136D01*
X012473Y004120D01*
X012516Y004101D01*
X012556Y004078D01*
X012595Y004052D01*
X012631Y004023D01*
X012665Y003991D01*
X012696Y003956D01*
X012724Y003918D01*
X012748Y003878D01*
X012769Y003837D01*
X012787Y003793D01*
X012800Y003749D01*
X012810Y003703D01*
X012816Y003657D01*
X012818Y003610D01*
X012816Y003563D01*
X012810Y003517D01*
X012800Y003471D01*
X012787Y003427D01*
X012769Y003383D01*
X012748Y003342D01*
X012724Y003302D01*
X012696Y003264D01*
X012665Y003229D01*
X012631Y003197D01*
X012595Y003168D01*
X012556Y003142D01*
X012516Y003119D01*
X012473Y003100D01*
X012429Y003084D01*
X012384Y003072D01*
X012338Y003064D01*
X012291Y003060D01*
X012245Y003060D01*
X012198Y003064D01*
X012152Y003072D01*
X012107Y003084D01*
X012063Y003100D01*
X012020Y003119D01*
X011980Y003142D01*
X011941Y003168D01*
X011905Y003197D01*
X011871Y003229D01*
X011840Y003264D01*
X011812Y003302D01*
X011788Y003342D01*
X011767Y003383D01*
X011749Y003427D01*
X011736Y003471D01*
X011726Y003517D01*
X011720Y003563D01*
X011718Y003610D01*
D11*
X013278Y003840D02*
X016448Y003840D01*
X016448Y008630D01*
X013278Y008630D01*
X009598Y012310D01*
X003438Y012310D01*
X000168Y009040D01*
X000168Y003430D01*
X003438Y000160D01*
X009598Y000160D01*
X013278Y003840D01*
D12*
X004792Y002006D02*
X004794Y002045D01*
X004800Y002084D01*
X004810Y002122D01*
X004823Y002159D01*
X004840Y002194D01*
X004860Y002228D01*
X004884Y002259D01*
X004911Y002288D01*
X004940Y002314D01*
X004972Y002337D01*
X005006Y002357D01*
X005042Y002373D01*
X005079Y002385D01*
X005118Y002394D01*
X005157Y002399D01*
X005196Y002400D01*
X005235Y002397D01*
X005274Y002390D01*
X005311Y002379D01*
X005348Y002365D01*
X005383Y002347D01*
X005416Y002326D01*
X005447Y002301D01*
X005475Y002274D01*
X005500Y002244D01*
X005522Y002211D01*
X005541Y002177D01*
X005556Y002141D01*
X005568Y002103D01*
X005576Y002065D01*
X005580Y002026D01*
X005580Y001986D01*
X005576Y001947D01*
X005568Y001909D01*
X005556Y001871D01*
X005541Y001835D01*
X005522Y001801D01*
X005500Y001768D01*
X005475Y001738D01*
X005447Y001711D01*
X005416Y001686D01*
X005383Y001665D01*
X005348Y001647D01*
X005311Y001633D01*
X005274Y001622D01*
X005235Y001615D01*
X005196Y001612D01*
X005157Y001613D01*
X005118Y001618D01*
X005079Y001627D01*
X005042Y001639D01*
X005006Y001655D01*
X004972Y001675D01*
X004940Y001698D01*
X004911Y001724D01*
X004884Y001753D01*
X004860Y001784D01*
X004840Y001818D01*
X004823Y001853D01*
X004810Y001890D01*
X004800Y001928D01*
X004794Y001967D01*
X004792Y002006D01*
D13*
X003603Y001041D02*
X004194Y000451D01*
X004745Y000451D01*
X008662Y000451D02*
X009706Y000451D01*
X009706Y001021D01*
X013928Y005840D02*
X013928Y006550D01*
X013858Y006720D02*
X014048Y006370D01*
X013768Y006290D02*
X013188Y006310D01*
X013318Y006180D02*
X013538Y005920D01*
X013488Y005860D02*
X013638Y005990D01*
X013588Y006150D02*
X013318Y006180D01*
X013018Y006220D02*
X012948Y006650D01*
X012948Y006620D02*
X012338Y006610D01*
X012368Y006680D02*
X012468Y006730D01*
X012598Y006700D02*
X012568Y006370D01*
X012438Y006260D01*
X012328Y006260D01*
X012418Y006450D02*
X012588Y006270D01*
X012758Y006260D02*
X012758Y006390D01*
X012878Y006380D01*
X012878Y006360D02*
X012878Y006260D01*
X012758Y006260D01*
X012918Y006110D02*
X012748Y005890D01*
X012428Y005890D01*
X012248Y005940D01*
X012198Y005950D02*
X012278Y006060D01*
X012498Y006040D02*
X012658Y006100D01*
X012958Y006030D02*
X013008Y005940D01*
X013588Y006150D02*
X013508Y006660D01*
X013648Y006570D02*
X013348Y006580D01*
X012848Y006490D02*
X012698Y006490D01*
X011968Y006470D02*
X011968Y006230D01*
X011948Y006280D02*
X011748Y006290D01*
X011748Y006510D01*
X011948Y006510D01*
X011878Y006670D02*
X011878Y006010D01*
X011778Y005980D02*
X011978Y005880D01*
X011778Y006040D02*
X011708Y005910D01*
X011638Y006080D02*
X011168Y006130D01*
X011218Y006400D01*
X011638Y006340D01*
X011668Y006340D02*
X011638Y006080D01*
X011638Y006220D02*
X011208Y006280D01*
X011288Y006480D02*
X011358Y006700D01*
X011648Y006700D01*
X011648Y006600D02*
X011618Y006460D01*
X011288Y006480D01*
X011468Y006430D02*
X011468Y005990D01*
X011378Y005880D01*
X011258Y005870D01*
X011208Y005970D01*
X009706Y010706D02*
X009706Y012025D01*
X008780Y012025D01*
X004666Y012025D02*
X003603Y012025D01*
X003603Y010746D01*
D14*
X003138Y010795D02*
X003138Y011015D01*
X003028Y011015D01*
X002991Y010979D01*
X002991Y010905D01*
X003028Y010868D01*
X003138Y010868D01*
X003064Y010868D02*
X002991Y010795D01*
X002917Y010795D02*
X002917Y010832D01*
X002770Y010979D01*
X002770Y011015D01*
X002917Y011015D01*
X001838Y009990D02*
X001728Y009990D01*
X001691Y009954D01*
X001691Y009880D01*
X001728Y009843D01*
X001838Y009843D01*
X001838Y009770D02*
X001838Y009990D01*
X001764Y009843D02*
X001691Y009770D01*
X001617Y009807D02*
X001617Y009880D01*
X001507Y009880D01*
X001470Y009843D01*
X001470Y009807D01*
X001507Y009770D01*
X001580Y009770D01*
X001617Y009807D01*
X001617Y009880D02*
X001544Y009954D01*
X001470Y009990D01*
X001670Y009155D02*
X001817Y009155D01*
X001817Y009045D01*
X001744Y009082D01*
X001707Y009082D01*
X001670Y009045D01*
X001670Y008972D01*
X001707Y008935D01*
X001780Y008935D01*
X001817Y008972D01*
X001891Y008935D02*
X001964Y009008D01*
X001928Y009008D02*
X002038Y009008D01*
X002038Y008935D02*
X002038Y009155D01*
X001928Y009155D01*
X001891Y009119D01*
X001891Y009045D01*
X001928Y009008D01*
X001943Y008330D02*
X001833Y008330D01*
X001796Y008294D01*
X001796Y008220D01*
X001833Y008183D01*
X001943Y008183D01*
X001943Y008110D02*
X001943Y008330D01*
X001869Y008183D02*
X001796Y008110D01*
X001722Y008110D02*
X001575Y008257D01*
X001575Y008294D01*
X001612Y008330D01*
X001685Y008330D01*
X001722Y008294D01*
X001722Y008110D02*
X001575Y008110D01*
X002790Y007310D02*
X002790Y007090D01*
X002717Y007090D02*
X002864Y007090D01*
X002938Y007090D02*
X003011Y007163D01*
X002975Y007163D02*
X003085Y007163D01*
X003085Y007090D02*
X003085Y007310D01*
X002975Y007310D01*
X002938Y007274D01*
X002938Y007200D01*
X002975Y007163D01*
X002864Y007237D02*
X002790Y007310D01*
X002581Y007025D02*
X002618Y006989D01*
X002618Y006842D01*
X002581Y006805D01*
X002508Y006805D01*
X002471Y006842D01*
X002397Y006842D02*
X002397Y006805D01*
X002397Y006842D02*
X002250Y006989D01*
X002250Y007025D01*
X002397Y007025D01*
X002471Y006989D02*
X002508Y007025D01*
X002581Y007025D01*
X003048Y006143D02*
X003048Y005996D01*
X003158Y006106D01*
X002938Y006106D01*
X002975Y005922D02*
X002938Y005885D01*
X002938Y005812D01*
X002975Y005775D01*
X003121Y005775D01*
X003158Y005812D01*
X003158Y005885D01*
X003121Y005922D01*
X000810Y005655D02*
X000810Y005472D01*
X000773Y005435D01*
X000700Y005435D01*
X000663Y005472D01*
X000663Y005655D01*
X000589Y005619D02*
X000552Y005655D01*
X000479Y005655D01*
X000442Y005619D01*
X000442Y005582D01*
X000479Y005545D01*
X000442Y005508D01*
X000442Y005472D01*
X000479Y005435D01*
X000552Y005435D01*
X000589Y005472D01*
X000515Y005545D02*
X000479Y005545D01*
X001472Y004180D02*
X001545Y004144D01*
X001619Y004070D01*
X001509Y004070D01*
X001472Y004033D01*
X001472Y003997D01*
X001509Y003960D01*
X001582Y003960D01*
X001619Y003997D01*
X001619Y004070D01*
X001693Y003997D02*
X001730Y003960D01*
X001803Y003960D01*
X001840Y003997D01*
X001840Y004144D01*
X001803Y004180D01*
X001730Y004180D01*
X001693Y004144D01*
X001810Y002781D02*
X001773Y002744D01*
X001773Y002671D01*
X001810Y002634D01*
X001810Y002560D02*
X001773Y002523D01*
X001773Y002450D01*
X001810Y002413D01*
X001956Y002413D01*
X001993Y002450D01*
X001993Y002523D01*
X001956Y002560D01*
X001956Y002634D02*
X001993Y002671D01*
X001993Y002744D01*
X001956Y002781D01*
X001920Y002781D01*
X001883Y002744D01*
X001846Y002781D01*
X001810Y002781D01*
X001883Y002744D02*
X001883Y002707D01*
X003033Y002736D02*
X003033Y002589D01*
X003033Y002662D02*
X003253Y002662D01*
X003180Y002589D01*
X003216Y002515D02*
X003253Y002478D01*
X003253Y002405D01*
X003216Y002368D01*
X003070Y002368D01*
X003033Y002405D01*
X003033Y002478D01*
X003070Y002515D01*
X010051Y001765D02*
X010051Y001619D01*
X010198Y001765D01*
X010234Y001765D01*
X010271Y001729D01*
X010271Y001655D01*
X010234Y001619D01*
X010271Y001544D02*
X010088Y001544D01*
X010051Y001508D01*
X010051Y001434D01*
X010088Y001398D01*
X010271Y001398D01*
X013765Y006245D02*
X013912Y006245D01*
X013839Y006245D02*
X013839Y006465D01*
X013912Y006392D01*
X013986Y006465D02*
X014133Y006245D01*
X013986Y006245D02*
X014133Y006465D01*
X011998Y007657D02*
X011961Y007620D01*
X011815Y007620D01*
X011778Y007657D01*
X011778Y007730D01*
X011815Y007767D01*
X011815Y007841D02*
X011778Y007878D01*
X011778Y007951D01*
X011815Y007988D01*
X011888Y007988D01*
X011925Y007951D01*
X011925Y007914D01*
X011888Y007841D01*
X011998Y007841D01*
X011998Y007988D01*
X011961Y007767D02*
X011998Y007730D01*
X011998Y007657D01*
X010433Y007381D02*
X010433Y007308D01*
X010396Y007271D01*
X010396Y007197D02*
X010433Y007160D01*
X010433Y007087D01*
X010396Y007050D01*
X010250Y007050D01*
X010213Y007087D01*
X010213Y007160D01*
X010250Y007197D01*
X010213Y007271D02*
X010360Y007418D01*
X010396Y007418D01*
X010433Y007381D01*
X010213Y007418D02*
X010213Y007271D01*
D15*
X002603Y007795D03*
X002603Y008425D03*
X002598Y009050D03*
X002598Y009685D03*
X002598Y010310D03*
D16*
X010142Y008258D02*
X010142Y008022D01*
X010614Y008022D02*
X010614Y008258D01*
X002564Y002663D02*
X002564Y002427D01*
X002092Y002427D02*
X002092Y002663D01*
D17*
X003126Y001750D02*
X003150Y001750D01*
X002565Y006015D02*
X002541Y006015D01*
D18*
X016393Y004035D02*
X016393Y008435D01*
M02*
