%
M48
M72
T01C0.0120
T02C0.0150
T03C0.0200
T04C0.0700
%
T01
X2008Y7870
X2008Y9420
T02
X3268Y9050
X3348Y8420
X1278Y7690
X2108Y6440
X2108Y5460
X3658Y6740
X8088Y7060
X9388Y6580
X8738Y5080
X5738Y2530
X4508Y2670
X5118Y1680
X4508Y1360
X6378Y1680
X6748Y1360
X3058Y3960
X2358Y10690
X5118Y10880
X5748Y10880
X8668Y11930
T03
X4268Y610
X7768Y2110
X8268Y2610
X10268Y3610
X11268Y3110
X11268Y4110
X10268Y4610
X11768Y5110
X12768Y5110
X13268Y5110
X13768Y5110
X13768Y4610
X13268Y4610
X12768Y4610
X12768Y5610
X13268Y5610
X13768Y5610
X14268Y5610
X14768Y5610
X15268Y5610
X15768Y5610
X15768Y7110
X15268Y7110
X14768Y7110
X14268Y7110
X13768Y7110
X13268Y7110
X12768Y7110
X12768Y7610
X13268Y7610
X13768Y7610
X13768Y8110
X13268Y8110
X12768Y8110
X11768Y7110
X10768Y7110
X10768Y6110
X10268Y5610
X6768Y5110
X4768Y5110
X3268Y5110
X2268Y4110
X4768Y7110
X7268Y8610
X8268Y8610
X8268Y10110
X7268Y10110
X5768Y9110
X4768Y9110
X1768Y8610
X3768Y11110
X9268Y11110
X10768Y10110
X10768Y9110
X10768Y2110
X9268Y610
T04
X12268Y3610
X12268Y8860
X768Y8860
X768Y3610
M30
