G75*
G70*
%OFA0B0*%
%FSLAX24Y24*%
%IPPOS*%
%LPD*%
%AMOC8*
5,1,8,0,0,1.08239X$1,22.5*
%
%ADD10R,0.0276X0.0394*%
%ADD11R,0.0512X0.0591*%
%ADD12R,0.0315X0.0118*%
%ADD13R,0.0118X0.0315*%
%ADD14R,0.0827X0.0827*%
%ADD15R,0.0591X0.0512*%
%ADD16R,0.0276X0.0354*%
%ADD17R,0.0354X0.0276*%
%ADD18R,0.0098X0.0236*%
%ADD19R,0.0236X0.0098*%
%ADD20R,0.0315X0.0472*%
%ADD21R,0.0157X0.0106*%
%ADD22R,0.0400X0.1000*%
%ADD23R,0.0600X0.0300*%
%ADD24R,0.0315X0.0315*%
%ADD25R,0.0870X0.0240*%
%ADD26R,0.0217X0.0472*%
%ADD27R,0.0394X0.0472*%
%ADD28R,0.0394X0.0315*%
%ADD29R,0.0315X0.0591*%
D10*
X019090Y005050D03*
X019464Y005050D03*
X019838Y005050D03*
X019838Y006073D03*
X019464Y006073D03*
X019090Y006073D03*
D11*
X020599Y005615D03*
X021347Y005615D03*
X018333Y005516D03*
X017585Y005516D03*
X017455Y004279D03*
X018203Y004279D03*
X012783Y003339D03*
X012035Y003339D03*
D12*
X014897Y004846D03*
X014897Y005043D03*
X014897Y005240D03*
X014897Y005437D03*
X014897Y005634D03*
X014897Y005830D03*
X016472Y005830D03*
X016472Y005634D03*
X016472Y005437D03*
X016472Y005240D03*
X016472Y005043D03*
X016472Y004846D03*
D13*
X016177Y004551D03*
X015980Y004551D03*
X015783Y004551D03*
X015586Y004551D03*
X015390Y004551D03*
X015193Y004551D03*
X015193Y006126D03*
X015390Y006126D03*
X015586Y006126D03*
X015783Y006126D03*
X015980Y006126D03*
X016177Y006126D03*
D14*
X015679Y005339D03*
D15*
X014163Y005219D03*
X014163Y004471D03*
X011229Y005525D03*
X011229Y006273D03*
D16*
X006940Y005504D03*
X006428Y005504D03*
X005435Y006206D03*
X004923Y006206D03*
X016779Y006331D03*
X017291Y006331D03*
X020391Y004991D03*
X020903Y004991D03*
X018657Y004892D03*
X018146Y004892D03*
X020325Y001252D03*
X020837Y001252D03*
X020836Y000657D03*
X020324Y000657D03*
X011316Y000595D03*
X010804Y000595D03*
X010455Y001079D03*
X009943Y001079D03*
X008794Y000594D03*
X008282Y000594D03*
X007585Y000589D03*
X007073Y000589D03*
X005345Y002139D03*
X004833Y002139D03*
D17*
X004729Y002981D03*
X005377Y002978D03*
X005377Y003490D03*
X004729Y003493D03*
X005064Y004928D03*
X005064Y005440D03*
X011411Y004472D03*
X011411Y003960D03*
X010519Y002135D03*
X009929Y002135D03*
X009929Y001623D03*
X010519Y001623D03*
X019239Y001565D03*
X019239Y001053D03*
X019924Y002198D03*
X019924Y002710D03*
D18*
X009066Y001007D03*
X008869Y001007D03*
X008672Y001007D03*
X008475Y001007D03*
X008278Y001007D03*
X008081Y001007D03*
X007884Y001007D03*
X007688Y001007D03*
X007491Y001007D03*
X007294Y001007D03*
X007097Y001007D03*
X006900Y001007D03*
X006703Y001007D03*
X006507Y001007D03*
X006310Y001007D03*
X006113Y001007D03*
X006113Y004551D03*
X006310Y004551D03*
X006507Y004551D03*
X006703Y004551D03*
X006900Y004551D03*
X007097Y004551D03*
X007294Y004551D03*
X007491Y004551D03*
X007688Y004551D03*
X007884Y004551D03*
X008081Y004551D03*
X008278Y004551D03*
X008475Y004551D03*
X008672Y004551D03*
X008869Y004551D03*
X009066Y004551D03*
D19*
X005818Y001303D03*
X005818Y001499D03*
X005818Y001696D03*
X005818Y001893D03*
X005818Y002090D03*
X005818Y002287D03*
X005818Y002484D03*
X005818Y002681D03*
X005818Y002877D03*
X005818Y003074D03*
X005818Y003271D03*
X005818Y003468D03*
X005818Y003665D03*
X005818Y003862D03*
X005818Y004059D03*
X005818Y004255D03*
X009361Y004255D03*
X009361Y004059D03*
X009361Y003862D03*
X009361Y003665D03*
X009361Y003468D03*
X009361Y003271D03*
X009361Y003074D03*
X009361Y002877D03*
X009361Y002681D03*
X009361Y002484D03*
X009361Y002287D03*
X009361Y002090D03*
X009361Y001893D03*
X009361Y001696D03*
X009361Y001499D03*
X009361Y001303D03*
D20*
X006609Y004995D03*
X005901Y004995D03*
D21*
X005359Y004491D03*
X004965Y004491D03*
X004965Y004236D03*
X005359Y004236D03*
X005359Y003980D03*
X004965Y003980D03*
D22*
X003259Y003469D03*
X000659Y003469D03*
D23*
X012097Y002255D03*
X014097Y002255D03*
X014097Y000755D03*
X012097Y000755D03*
D24*
X009918Y000578D03*
X009328Y000578D03*
X009954Y002629D03*
X010544Y002629D03*
D25*
X015733Y002042D03*
X015733Y001542D03*
X015733Y001042D03*
X015733Y000542D03*
X018383Y000542D03*
X018383Y001042D03*
X018383Y001542D03*
X018383Y002042D03*
D26*
X012711Y003974D03*
X011963Y003974D03*
X011963Y004997D03*
X012337Y004997D03*
X012711Y004997D03*
D27*
X010586Y005655D03*
X007673Y005655D03*
D28*
X007673Y006364D03*
X010586Y006364D03*
D29*
X009995Y005301D03*
X008814Y005301D03*
X008263Y005301D03*
M02*
