G75*
G70*
%OFA0B0*%
%FSLAX24Y24*%
%IPPOS*%
%LPD*%
%AMOC8*
5,1,8,0,0,1.08239X$1,22.5*
%
%ADD10R,0.0480X0.0480*%
%ADD11C,0.0480*%
%ADD12R,0.0276X0.0394*%
%ADD13R,0.0512X0.0591*%
%ADD14R,0.0315X0.0118*%
%ADD15R,0.0118X0.0315*%
%ADD16R,0.0827X0.0827*%
%ADD17R,0.0591X0.0512*%
%ADD18OC8,0.0740*%
%ADD19R,0.0276X0.0354*%
%ADD20R,0.0354X0.0276*%
%ADD21R,0.0098X0.0236*%
%ADD22R,0.0236X0.0098*%
%ADD23R,0.0315X0.0472*%
%ADD24R,0.0157X0.0106*%
%ADD25R,0.0400X0.1000*%
%ADD26R,0.0600X0.0300*%
%ADD27R,0.0315X0.0315*%
%ADD28R,0.0870X0.0240*%
%ADD29R,0.0217X0.0472*%
%ADD30R,0.0600X0.0600*%
%ADD31C,0.0600*%
%ADD32R,0.0394X0.0472*%
%ADD33R,0.0394X0.0315*%
%ADD34R,0.0315X0.0591*%
%ADD35C,0.0750*%
%ADD36C,0.0500*%
%ADD37C,0.0740*%
%ADD38C,0.0100*%
%ADD39C,0.0060*%
%ADD40C,0.0180*%
%ADD41C,0.0200*%
%ADD42C,0.0080*%
%ADD43C,0.0200*%
%ADD44C,0.0160*%
D10*
X017949Y006279D03*
X021148Y006281D03*
X014483Y006289D03*
D11*
X013883Y006289D03*
X018549Y006279D03*
X020548Y006281D03*
D12*
X019838Y006073D03*
X019464Y006073D03*
X019090Y006073D03*
X019090Y005050D03*
X019464Y005050D03*
X019838Y005050D03*
D13*
X020599Y005615D03*
X021347Y005615D03*
X018333Y005516D03*
X017585Y005516D03*
X017455Y004279D03*
X018203Y004279D03*
X012783Y003339D03*
X012035Y003339D03*
D14*
X014897Y004846D03*
X014897Y005043D03*
X014897Y005240D03*
X014897Y005437D03*
X014897Y005634D03*
X014897Y005830D03*
X016472Y005830D03*
X016472Y005634D03*
X016472Y005437D03*
X016472Y005240D03*
X016472Y005043D03*
X016472Y004846D03*
D15*
X016177Y004551D03*
X015980Y004551D03*
X015783Y004551D03*
X015586Y004551D03*
X015390Y004551D03*
X015193Y004551D03*
X015193Y006126D03*
X015390Y006126D03*
X015586Y006126D03*
X015783Y006126D03*
X015980Y006126D03*
X016177Y006126D03*
D16*
X015679Y005339D03*
D17*
X014163Y005219D03*
X014163Y004471D03*
X011229Y005525D03*
X011229Y006273D03*
D18*
X020699Y004209D03*
X021699Y004209D03*
X021699Y003209D03*
X020699Y003209D03*
X020699Y002209D03*
X021699Y002209D03*
D19*
X020837Y001252D03*
X020325Y001252D03*
X020324Y000657D03*
X020836Y000657D03*
X011316Y000595D03*
X010804Y000595D03*
X010455Y001079D03*
X009943Y001079D03*
X008794Y000594D03*
X008282Y000594D03*
X007585Y000589D03*
X007073Y000589D03*
X005345Y002139D03*
X004833Y002139D03*
X006428Y005504D03*
X006940Y005504D03*
X005435Y006206D03*
X004923Y006206D03*
X016779Y006331D03*
X017291Y006331D03*
X020391Y004991D03*
X020903Y004991D03*
X018657Y004892D03*
X018146Y004892D03*
D20*
X019924Y002710D03*
X019924Y002198D03*
X019239Y001565D03*
X019239Y001053D03*
X010519Y001623D03*
X009929Y001623D03*
X009929Y002135D03*
X010519Y002135D03*
X005377Y002978D03*
X004729Y002981D03*
X004729Y003493D03*
X005377Y003490D03*
X005064Y004928D03*
X005064Y005440D03*
X011411Y004472D03*
X011411Y003960D03*
D21*
X009066Y004551D03*
X008869Y004551D03*
X008672Y004551D03*
X008475Y004551D03*
X008278Y004551D03*
X008081Y004551D03*
X007884Y004551D03*
X007688Y004551D03*
X007491Y004551D03*
X007294Y004551D03*
X007097Y004551D03*
X006900Y004551D03*
X006703Y004551D03*
X006507Y004551D03*
X006310Y004551D03*
X006113Y004551D03*
X006113Y001007D03*
X006310Y001007D03*
X006507Y001007D03*
X006703Y001007D03*
X006900Y001007D03*
X007097Y001007D03*
X007294Y001007D03*
X007491Y001007D03*
X007688Y001007D03*
X007884Y001007D03*
X008081Y001007D03*
X008278Y001007D03*
X008475Y001007D03*
X008672Y001007D03*
X008869Y001007D03*
X009066Y001007D03*
D22*
X009361Y001303D03*
X009361Y001499D03*
X009361Y001696D03*
X009361Y001893D03*
X009361Y002090D03*
X009361Y002287D03*
X009361Y002484D03*
X009361Y002681D03*
X009361Y002877D03*
X009361Y003074D03*
X009361Y003271D03*
X009361Y003468D03*
X009361Y003665D03*
X009361Y003862D03*
X009361Y004059D03*
X009361Y004255D03*
X005818Y004255D03*
X005818Y004059D03*
X005818Y003862D03*
X005818Y003665D03*
X005818Y003468D03*
X005818Y003271D03*
X005818Y003074D03*
X005818Y002877D03*
X005818Y002681D03*
X005818Y002484D03*
X005818Y002287D03*
X005818Y002090D03*
X005818Y001893D03*
X005818Y001696D03*
X005818Y001499D03*
X005818Y001303D03*
D23*
X005901Y004995D03*
X006609Y004995D03*
D24*
X005359Y004491D03*
X004965Y004491D03*
X004965Y004236D03*
X005359Y004236D03*
X005359Y003980D03*
X004965Y003980D03*
D25*
X003259Y003469D03*
X000659Y003469D03*
D26*
X012097Y002255D03*
X014097Y002255D03*
X014097Y000755D03*
X012097Y000755D03*
D27*
X009918Y000578D03*
X009328Y000578D03*
X009954Y002629D03*
X010544Y002629D03*
D28*
X015733Y002042D03*
X015733Y001542D03*
X015733Y001042D03*
X015733Y000542D03*
X018383Y000542D03*
X018383Y001042D03*
X018383Y001542D03*
X018383Y002042D03*
D29*
X012711Y003974D03*
X011963Y003974D03*
X011963Y004997D03*
X012337Y004997D03*
X012711Y004997D03*
D30*
X010049Y004498D03*
X012227Y006107D03*
D31*
X013014Y006107D03*
X010837Y004498D03*
D32*
X010586Y005655D03*
X007673Y005655D03*
D33*
X007673Y006364D03*
X010586Y006364D03*
D34*
X009995Y005301D03*
X008814Y005301D03*
X008263Y005301D03*
D35*
X008539Y006049D03*
X009720Y006049D03*
D36*
X006983Y006169D03*
X006196Y006169D03*
X004989Y001493D03*
X004989Y000705D03*
D37*
X021699Y000849D03*
D38*
X021508Y000657D01*
X020836Y000657D01*
X020837Y000659D01*
X020837Y001252D01*
X019239Y001053D02*
X019228Y001042D01*
X018383Y001042D01*
X018383Y001542D02*
X019216Y001542D01*
X019239Y001565D01*
X012711Y003247D02*
X012711Y003319D01*
X012711Y003974D01*
X011963Y003974D02*
X011950Y003960D01*
X011411Y003960D01*
X011411Y004472D02*
X010763Y004472D01*
X010837Y004498D01*
X010049Y004498D02*
X009719Y004728D01*
X009719Y004764D01*
X009624Y004859D01*
X009624Y005184D01*
X009507Y005301D01*
X008814Y005301D01*
X005923Y005294D02*
X005872Y005294D01*
X005872Y005381D02*
X005724Y005381D01*
X005685Y005371D01*
X005651Y005351D01*
X005623Y005323D01*
X005604Y005289D01*
X005593Y005251D01*
X005593Y005023D01*
X005872Y005023D01*
X005872Y004966D01*
X005593Y004966D01*
X005593Y004739D01*
X005604Y004700D01*
X005623Y004666D01*
X005651Y004638D01*
X005685Y004619D01*
X005722Y004609D01*
X005679Y004566D01*
X005679Y004415D01*
X005654Y004415D01*
X005589Y004350D01*
X005589Y004161D01*
X005593Y004157D01*
X005589Y004153D01*
X005589Y003964D01*
X005593Y003960D01*
X005589Y003956D01*
X005589Y003767D01*
X005593Y003763D01*
X005589Y003760D01*
X005589Y003738D01*
X005499Y003738D01*
X005499Y003832D01*
X005548Y003881D01*
X005548Y004078D01*
X005547Y004079D01*
X005558Y004090D01*
X005578Y004124D01*
X005588Y004163D01*
X005588Y004235D01*
X005360Y004235D01*
X005360Y004236D01*
X005588Y004236D01*
X005588Y004308D01*
X005578Y004347D01*
X005558Y004381D01*
X005547Y004392D01*
X005548Y004393D01*
X005548Y004590D01*
X005483Y004655D01*
X005235Y004655D01*
X005204Y004623D01*
X005204Y004681D01*
X005286Y004681D01*
X005351Y004745D01*
X005351Y005112D01*
X005299Y005163D01*
X005333Y005182D01*
X005361Y005210D01*
X005380Y005244D01*
X005391Y005283D01*
X005391Y005421D01*
X005083Y005421D01*
X005083Y005459D01*
X005391Y005459D01*
X005391Y005598D01*
X005380Y005636D01*
X005361Y005669D01*
X005391Y005639D01*
X005601Y005429D01*
X005717Y005429D01*
X005923Y005429D01*
X005923Y005024D01*
X005872Y005024D01*
X005872Y005381D01*
X005923Y005393D02*
X005391Y005393D01*
X005391Y005294D02*
X005607Y005294D01*
X005593Y005196D02*
X005346Y005196D01*
X005082Y005196D02*
X005045Y005196D01*
X005045Y005176D02*
X005045Y005421D01*
X005082Y005421D01*
X005082Y005176D01*
X005045Y005176D01*
X005351Y005097D02*
X005593Y005097D01*
X005351Y004999D02*
X005872Y004999D01*
X005872Y005097D02*
X005923Y005097D01*
X005923Y005196D02*
X005872Y005196D01*
X005593Y004900D02*
X005351Y004900D01*
X005351Y004801D02*
X005593Y004801D01*
X005603Y004703D02*
X005309Y004703D01*
X005534Y004604D02*
X005718Y004604D01*
X005679Y004506D02*
X005548Y004506D01*
X005548Y004407D02*
X005647Y004407D01*
X005589Y004309D02*
X005588Y004309D01*
X005588Y004210D02*
X005589Y004210D01*
X005589Y004112D02*
X005570Y004112D01*
X005359Y004235D02*
X005130Y004235D01*
X004966Y004235D01*
X004966Y004236D01*
X005130Y004236D01*
X005359Y004236D01*
X005359Y004235D01*
X005548Y004013D02*
X005589Y004013D01*
X005589Y003915D02*
X005548Y003915D01*
X005589Y003816D02*
X005499Y003816D01*
X005089Y003656D02*
X005089Y003307D01*
X005154Y003242D01*
X005589Y003242D01*
X005589Y003226D01*
X005154Y003226D01*
X005089Y003162D01*
X005089Y003087D01*
X005057Y003119D01*
X005016Y003119D01*
X005016Y003165D01*
X004952Y003229D01*
X004506Y003229D01*
X004442Y003165D01*
X004442Y002798D01*
X004506Y002734D01*
X004849Y002734D01*
X004849Y002652D01*
X004972Y002529D01*
X005146Y002529D01*
X005269Y002652D01*
X005269Y002681D01*
X005328Y002623D01*
X005410Y002541D01*
X005549Y002541D01*
X005549Y002484D01*
X005817Y002484D01*
X005817Y002483D01*
X005549Y002483D01*
X005549Y002427D01*
X005435Y002427D01*
X005434Y002426D01*
X005162Y002426D01*
X005110Y002375D01*
X005091Y002408D01*
X005063Y002436D01*
X005029Y002456D01*
X004991Y002466D01*
X004852Y002466D01*
X004852Y002158D01*
X004814Y002158D01*
X004814Y002466D01*
X004739Y002466D01*
X004739Y002517D01*
X004703Y002605D01*
X004702Y002605D01*
X004702Y002682D01*
X004613Y002682D01*
X004547Y002709D01*
X004191Y002709D01*
X004191Y003327D01*
X004321Y003402D01*
X004321Y003402D01*
X004404Y003546D01*
X004404Y003567D01*
X004404Y003567D01*
X004404Y003611D01*
X004404Y003629D01*
X004405Y003639D01*
X004405Y003639D01*
X004415Y003658D01*
X004433Y003670D01*
X004442Y003671D01*
X004442Y003310D01*
X004506Y003246D01*
X004952Y003246D01*
X005016Y003310D01*
X005016Y003582D01*
X005023Y003590D01*
X005089Y003656D01*
X005089Y003619D02*
X005053Y003619D01*
X005016Y003520D02*
X005089Y003520D01*
X005089Y003422D02*
X005016Y003422D01*
X005016Y003323D02*
X005089Y003323D01*
X005153Y003225D02*
X004956Y003225D01*
X005016Y003126D02*
X005089Y003126D01*
X004502Y003225D02*
X004191Y003225D01*
X004191Y003323D02*
X004442Y003323D01*
X004442Y003422D02*
X004332Y003422D01*
X004321Y003402D02*
X004321Y003402D01*
X004389Y003520D02*
X004442Y003520D01*
X004404Y003546D02*
X004404Y003546D01*
X004404Y003619D02*
X004442Y003619D01*
X004404Y003629D02*
X004404Y003629D01*
X004191Y003870D02*
X004191Y004229D01*
X004547Y004229D01*
X004595Y004249D01*
X004564Y004066D01*
X004554Y004056D01*
X004554Y004007D01*
X004550Y003979D01*
X004544Y003969D01*
X004535Y003964D01*
X004495Y003980D01*
X004325Y003961D01*
X004191Y003870D01*
X004191Y003915D02*
X004257Y003915D01*
X004325Y003961D02*
X004325Y003961D01*
X004191Y004013D02*
X004554Y004013D01*
X004495Y003980D02*
X004495Y003980D01*
X004572Y004112D02*
X004191Y004112D01*
X004191Y004210D02*
X004589Y004210D01*
X004442Y003126D02*
X004191Y003126D01*
X004191Y003028D02*
X004442Y003028D01*
X004442Y002929D02*
X004191Y002929D01*
X004191Y002831D02*
X004442Y002831D01*
X004191Y002732D02*
X004849Y002732D01*
X004868Y002634D02*
X004702Y002634D01*
X004732Y002535D02*
X004966Y002535D01*
X005063Y002436D02*
X005549Y002436D01*
X005549Y002535D02*
X005152Y002535D01*
X004852Y002436D02*
X004814Y002436D01*
X004814Y002338D02*
X004852Y002338D01*
X004852Y002239D02*
X004814Y002239D01*
X005251Y002634D02*
X005317Y002634D01*
X006759Y001719D02*
X006900Y001578D01*
X006900Y001007D01*
X007097Y001007D01*
X007294Y001007D02*
X007294Y000810D01*
X007073Y000589D01*
X007491Y000683D02*
X007585Y000589D01*
X007491Y000683D02*
X007491Y001007D01*
X007489Y001049D01*
X007489Y001299D01*
X006699Y001259D02*
X006699Y001009D01*
X006703Y001007D01*
X006699Y001259D02*
X006549Y001409D01*
X006129Y001479D01*
X008789Y000589D02*
X008794Y000594D01*
X008789Y000589D02*
X008789Y000579D01*
X009319Y000579D01*
X009328Y000578D01*
X009943Y001079D02*
X009784Y001299D01*
X009361Y001303D01*
X009361Y003468D02*
X009130Y003468D01*
X008099Y004019D02*
X008029Y004089D01*
X008029Y004269D01*
X005082Y005294D02*
X005045Y005294D01*
X005045Y005393D02*
X005082Y005393D01*
X005082Y005459D02*
X005045Y005459D01*
X005045Y005728D01*
X004867Y005728D01*
X004828Y005718D01*
X004794Y005698D01*
X004766Y005670D01*
X004747Y005636D01*
X004742Y005618D01*
X004742Y005885D01*
X004766Y005879D01*
X004904Y005879D01*
X004904Y006187D01*
X004942Y006187D01*
X004942Y005879D01*
X005081Y005879D01*
X005119Y005889D01*
X005153Y005909D01*
X005181Y005937D01*
X005200Y005970D01*
X005252Y005919D01*
X005294Y005919D01*
X005285Y005882D01*
X005295Y005865D01*
X005295Y005845D01*
X005309Y005831D01*
X005309Y005721D01*
X005331Y005699D01*
X005299Y005718D01*
X005260Y005728D01*
X005082Y005728D01*
X005082Y005459D01*
X005082Y005491D02*
X005045Y005491D01*
X005045Y005590D02*
X005082Y005590D01*
X005082Y005688D02*
X005045Y005688D01*
X004785Y005688D02*
X004742Y005688D01*
X004742Y005787D02*
X005309Y005787D01*
X005286Y005885D02*
X005106Y005885D01*
X004942Y005885D02*
X004904Y005885D01*
X004904Y005984D02*
X004942Y005984D01*
X004942Y006083D02*
X004904Y006083D01*
X004904Y006181D02*
X004942Y006181D01*
X005589Y005919D02*
X005618Y005919D01*
X005683Y005983D01*
X005683Y006429D01*
X005632Y006479D01*
X005851Y006479D01*
X005923Y006461D01*
X005923Y006405D01*
X005890Y006373D01*
X005836Y006241D01*
X005836Y006097D01*
X005890Y005965D01*
X005923Y005933D01*
X005923Y005709D01*
X005717Y005709D01*
X005589Y005837D01*
X005589Y005861D01*
X005599Y005900D01*
X005589Y005917D01*
X005589Y005919D01*
X005596Y005885D02*
X005923Y005885D01*
X005923Y005787D02*
X005639Y005787D01*
X005683Y005984D02*
X005882Y005984D01*
X005842Y006083D02*
X005683Y006083D01*
X005683Y006181D02*
X005836Y006181D01*
X005852Y006280D02*
X005683Y006280D01*
X005683Y006378D02*
X005896Y006378D01*
X005860Y006477D02*
X005635Y006477D01*
X005440Y005590D02*
X005391Y005590D01*
X005391Y005491D02*
X005539Y005491D01*
X012699Y004629D02*
X012789Y004579D01*
X012899Y004469D01*
X014159Y004469D01*
X014163Y004471D01*
X014209Y004469D01*
X014439Y004469D01*
X014769Y004729D02*
X014889Y004609D01*
X014959Y004609D01*
X014769Y004729D02*
X014769Y004849D01*
X014619Y004849D01*
X014449Y005019D01*
X014449Y005209D01*
X014439Y005219D01*
X014169Y005219D01*
X014163Y005219D01*
X014897Y005437D02*
X014897Y005634D01*
X014892Y005639D01*
X014329Y005639D01*
X014199Y005789D01*
X013883Y006106D01*
X013883Y006289D01*
X014483Y006289D02*
X015030Y006289D01*
X015193Y006126D01*
X015390Y006126D01*
X015586Y006126D02*
X015783Y006126D01*
X015779Y006169D01*
X015779Y006399D01*
X015859Y006479D01*
X016299Y006479D01*
X016369Y006409D01*
X016369Y006399D01*
X017589Y005789D02*
X017949Y006149D01*
X017949Y006279D01*
X018549Y006279D02*
X019004Y006279D01*
X019090Y006073D01*
X017589Y005789D02*
X017589Y005519D01*
X017585Y005516D01*
X018333Y005516D02*
X018329Y005339D01*
X018329Y005259D01*
X018219Y005149D01*
X018159Y005149D01*
X018149Y005139D01*
X018149Y004869D01*
X018146Y004892D01*
X019838Y005050D02*
X020096Y004991D01*
X020391Y004991D01*
X020819Y004975D02*
X020903Y004991D01*
X020819Y004975D02*
X020819Y005304D01*
X020599Y005615D01*
X016472Y005437D02*
X015777Y005437D01*
X015679Y005339D01*
X014897Y005830D02*
X014889Y005829D01*
X014619Y005829D01*
X014599Y005849D01*
X014569Y005849D01*
X014769Y004849D02*
X014889Y004849D01*
X014897Y004846D01*
X015586Y004551D02*
X015589Y004509D01*
X015589Y004299D01*
X015549Y004259D01*
X015269Y004259D01*
X015269Y004219D01*
X015779Y004309D02*
X015779Y004509D01*
X015783Y004551D01*
X015586Y004551D01*
X015979Y004549D02*
X015980Y004551D01*
X015979Y004549D02*
X015979Y004309D01*
X015969Y004299D01*
X015789Y004299D01*
X015779Y004309D01*
D39*
X005066Y000629D02*
X004989Y000705D01*
X005066Y000629D02*
X006219Y000629D01*
X006310Y000719D01*
X006310Y001007D01*
X006113Y001007D02*
X005475Y001007D01*
X004989Y001493D01*
X004833Y002139D02*
X004859Y002165D01*
X004859Y002389D01*
X004954Y002484D01*
X005818Y002484D01*
X005818Y002287D02*
X005493Y002287D01*
X005345Y002139D01*
X005468Y002681D02*
X005818Y002681D01*
X005468Y002681D02*
X005377Y002772D01*
X005377Y002978D01*
X005059Y002919D02*
X004999Y002979D01*
X004729Y002979D01*
X004729Y002981D01*
X005059Y002919D02*
X005059Y002739D01*
X005818Y002877D02*
X005819Y002879D01*
X006109Y002879D01*
X007099Y002939D02*
X007099Y003229D01*
X007079Y003249D01*
X006109Y003249D01*
X006089Y003269D01*
X005819Y003269D01*
X005818Y003271D01*
X005377Y003490D02*
X005359Y003507D01*
X005359Y003980D01*
X004965Y003980D02*
X004965Y003730D01*
X004729Y003493D01*
X005818Y003862D02*
X005819Y003859D01*
X006089Y003859D01*
X006579Y003369D01*
X007129Y003369D01*
X007219Y003279D01*
X007219Y002989D01*
X007299Y002909D01*
X008129Y002909D01*
X008149Y002889D01*
X008199Y002889D01*
X008269Y003249D02*
X008289Y003269D01*
X008509Y003269D01*
X008269Y003249D02*
X007369Y004149D01*
X007239Y004149D01*
X007209Y004139D01*
X007179Y004269D02*
X007097Y004351D01*
X007097Y004551D01*
X007097Y005347D01*
X006940Y005504D01*
X007149Y005789D02*
X007239Y005699D01*
X007239Y005289D01*
X007491Y005037D01*
X007491Y004551D01*
X007688Y004551D02*
X007688Y005261D01*
X007639Y005309D01*
X007409Y005309D01*
X007369Y005349D01*
X007369Y005783D01*
X006983Y006169D01*
X006576Y005789D02*
X006196Y006169D01*
X005435Y006206D02*
X005435Y005903D01*
X005449Y005879D01*
X005449Y005779D01*
X005659Y005569D01*
X006029Y005569D01*
X006179Y005419D01*
X006179Y005049D01*
X006310Y004919D01*
X006310Y004551D01*
X006899Y004552D02*
X006900Y004551D01*
X006899Y004552D02*
X006899Y004929D01*
X006834Y004995D01*
X006609Y004995D01*
X007294Y004879D02*
X007294Y004879D01*
X007294Y004551D01*
X007884Y004551D02*
X007889Y004555D01*
X007889Y004879D01*
X008081Y004551D02*
X008081Y004321D01*
X008029Y004269D01*
X007179Y004269D01*
X006629Y003489D02*
X006099Y004019D01*
X006099Y004049D01*
X006089Y004059D01*
X005819Y004059D01*
X005818Y004059D01*
X005359Y004236D02*
X004965Y004236D01*
X004965Y004491D02*
X005064Y004590D01*
X005064Y004928D01*
X005059Y005369D02*
X004919Y005369D01*
X004919Y005759D01*
X004919Y006199D01*
X004923Y006206D01*
X005739Y005759D02*
X005799Y005819D01*
X005949Y005819D01*
X006264Y005504D01*
X006428Y005504D01*
X006576Y005789D02*
X007149Y005789D01*
X005064Y005440D02*
X005059Y005369D01*
X008278Y004551D02*
X008279Y004549D01*
X008279Y004259D01*
X008672Y004254D02*
X008672Y004296D01*
X008672Y004551D01*
X008479Y004549D02*
X008475Y004551D01*
X008479Y004549D02*
X008479Y004039D01*
X008479Y003979D01*
X008784Y003986D02*
X008869Y004051D01*
X008869Y004551D01*
X009066Y004551D02*
X009065Y004254D01*
X009064Y004268D01*
X009361Y004255D02*
X009364Y004259D01*
X009324Y004574D01*
X010529Y004139D02*
X010639Y004139D01*
X010699Y004079D01*
X011039Y004079D01*
X011049Y004089D01*
X011049Y004129D01*
X011139Y004219D01*
X011689Y004219D01*
X011699Y004229D01*
X011699Y004279D01*
X011749Y004329D01*
X011999Y004329D01*
X012019Y004309D01*
X012109Y004309D01*
X012119Y004299D01*
X012159Y004299D01*
X012169Y004309D01*
X012499Y004309D01*
X012509Y004299D01*
X012559Y004299D01*
X012569Y004309D01*
X012649Y004309D01*
X012669Y004329D01*
X013619Y004329D01*
X013689Y004259D01*
X014439Y004469D02*
X014479Y004499D01*
X014499Y004519D01*
X014769Y004519D01*
X014789Y004509D01*
X015019Y004279D01*
X015229Y004279D01*
X015269Y004219D01*
X015009Y004029D02*
X014919Y003469D01*
X014919Y002379D01*
X014959Y002309D01*
X014939Y002329D01*
X014789Y002519D02*
X014699Y002479D01*
X014719Y002499D01*
X014789Y002519D02*
X014789Y003989D01*
X014699Y004249D01*
X014699Y004289D01*
X014509Y004039D02*
X014509Y003999D01*
X014669Y003839D01*
X014669Y003119D01*
X014559Y003009D01*
X014559Y002609D01*
X014509Y002559D01*
X014509Y002259D01*
X014779Y001989D01*
X014769Y001999D01*
X015089Y002039D02*
X015119Y002059D01*
X015089Y002039D02*
X015729Y002039D01*
X015733Y002042D01*
X016239Y001779D02*
X016259Y001789D01*
X016289Y001789D01*
X016239Y001779D02*
X014919Y001779D01*
X014729Y001589D01*
X015119Y001539D02*
X015729Y001539D01*
X015733Y001542D01*
X015759Y001539D01*
X016269Y001309D02*
X016449Y001489D01*
X016679Y001489D01*
X016699Y001509D01*
X016719Y001509D01*
X016859Y001639D02*
X016939Y001559D01*
X016939Y001359D01*
X016579Y000999D01*
X016559Y000989D01*
X016419Y000849D01*
X016319Y000849D01*
X016299Y000839D01*
X016239Y000779D01*
X014639Y000779D01*
X014619Y000759D01*
X015129Y001019D02*
X015149Y001039D01*
X015149Y001239D01*
X015209Y001299D01*
X015229Y001309D01*
X016269Y001309D01*
X016339Y001039D02*
X015739Y001039D01*
X015733Y001042D01*
X015129Y001019D02*
X012439Y001019D01*
X012419Y001009D01*
X012119Y001309D01*
X011759Y001309D01*
X012089Y000759D02*
X011319Y000759D01*
X011319Y000599D01*
X011316Y000595D01*
X010804Y000595D02*
X010800Y000599D01*
X010389Y000509D01*
X009939Y000599D01*
X009918Y000578D01*
X008869Y001007D02*
X008869Y001009D01*
X008869Y001289D01*
X008889Y001309D01*
X008949Y001309D01*
X008969Y001329D01*
X009069Y001329D01*
X009361Y001499D02*
X009570Y001499D01*
X009639Y001569D01*
X009875Y001569D01*
X009929Y001623D01*
X009949Y001619D01*
X010209Y001619D01*
X010219Y001629D01*
X010219Y001859D01*
X010239Y001879D01*
X010799Y001879D01*
X010809Y001889D01*
X010849Y001889D01*
X010519Y002135D02*
X010408Y002135D01*
X010544Y002629D01*
X009954Y002629D02*
X009679Y002629D01*
X009669Y002639D01*
X009699Y003659D01*
X009659Y003159D01*
X009655Y003665D01*
X009361Y003665D01*
X009369Y003859D02*
X009361Y003862D01*
X009369Y003859D02*
X009639Y003859D01*
X009649Y003869D01*
X009649Y003969D01*
X009361Y004059D02*
X009129Y004059D01*
X009083Y004013D01*
X009083Y003931D01*
X009070Y003989D01*
X008629Y003489D02*
X008379Y003739D01*
X008359Y003769D01*
X008629Y003489D02*
X009089Y003489D01*
X009130Y003468D01*
X007509Y003489D02*
X006629Y003489D01*
X007099Y002939D02*
X008119Y001919D01*
X008159Y001919D01*
X008309Y002069D01*
X008309Y002089D01*
X009361Y001696D02*
X009557Y001696D01*
X009619Y001759D01*
X009619Y002079D01*
X009659Y002119D01*
X009913Y002119D01*
X009929Y002135D01*
X009954Y002160D01*
X009954Y002629D01*
X010919Y003159D02*
X011819Y002259D01*
X012059Y002259D01*
X012097Y002255D01*
X012089Y002259D01*
X013459Y002599D02*
X013209Y003149D01*
X012789Y003149D01*
X011959Y002854D02*
X011269Y003379D01*
X011229Y003359D01*
X010919Y003369D02*
X010919Y003159D01*
X011411Y004472D02*
X011459Y004469D01*
X011609Y004469D01*
X011609Y004829D01*
X012337Y004997D02*
X012339Y004999D01*
X011839Y005409D02*
X011819Y005429D01*
X011589Y006219D02*
X011579Y006229D01*
X016472Y005830D02*
X016479Y005829D01*
X016809Y005869D01*
X016769Y005649D02*
X016749Y005629D01*
X016479Y005629D01*
X016472Y005634D01*
X016769Y005649D02*
X016979Y005649D01*
X019090Y005050D02*
X019089Y004949D01*
X019089Y004679D01*
X019439Y004679D02*
X019719Y004679D01*
X019839Y004799D01*
X019839Y004999D01*
X019838Y005050D01*
X019979Y004659D02*
X019959Y004639D01*
X019919Y004639D01*
X018669Y003389D01*
X018519Y003389D01*
X018499Y003369D01*
X018249Y003619D01*
X018259Y003629D01*
X018319Y003649D01*
X018279Y003649D01*
X018129Y003569D02*
X018359Y003339D01*
X018359Y002499D01*
X018319Y002459D01*
X017929Y002459D01*
X017579Y002109D01*
X017579Y001939D01*
X017729Y001789D01*
X017799Y001759D01*
X017539Y001809D02*
X017459Y001889D01*
X017459Y002159D01*
X017879Y002579D01*
X018189Y002579D01*
X018209Y002589D01*
X018239Y002619D01*
X018239Y003289D01*
X018079Y003449D01*
X017979Y003449D01*
X017859Y003569D01*
X017459Y003569D01*
X017429Y003599D01*
X017549Y003449D02*
X017809Y003449D01*
X017949Y003309D01*
X018009Y003309D01*
X018029Y003329D01*
X018119Y003239D01*
X018119Y002739D01*
X018079Y002699D01*
X017829Y002699D01*
X017339Y002209D01*
X017339Y001839D01*
X017419Y001759D01*
X017419Y001459D01*
X017459Y001419D01*
X017459Y001349D01*
X017579Y001229D01*
X017579Y000959D01*
X017659Y000879D01*
X017659Y000549D01*
X017549Y000439D01*
X016899Y000439D01*
X016819Y000519D01*
X017339Y000639D02*
X017539Y000639D01*
X017539Y000829D01*
X017459Y000909D01*
X017459Y001179D01*
X017339Y001299D01*
X017339Y001369D01*
X017299Y001409D01*
X017299Y001709D01*
X017219Y001789D01*
X017219Y002149D01*
X017199Y002169D01*
X017189Y002159D01*
X017199Y002169D02*
X017219Y002189D01*
X017219Y002259D01*
X017919Y002959D01*
X017899Y002979D01*
X017899Y003189D01*
X017759Y003329D01*
X017599Y003329D01*
X017559Y003289D01*
X017529Y003289D01*
X017369Y003129D01*
X016619Y003129D01*
X017239Y003369D02*
X017439Y003369D01*
X017479Y003409D01*
X017509Y003409D01*
X017549Y003449D01*
X017809Y003789D02*
X018029Y003569D01*
X018129Y003569D01*
X018499Y003369D02*
X018499Y002419D01*
X018559Y002359D01*
X018559Y002039D01*
X018409Y002039D01*
X018383Y002042D01*
X018349Y002039D01*
X017869Y002039D01*
X017849Y002029D01*
X017769Y002029D01*
X018379Y002039D02*
X018383Y002042D01*
X017539Y001809D02*
X017539Y001509D01*
X017579Y001469D01*
X017579Y001399D01*
X017659Y001319D01*
X017779Y001319D01*
X017259Y001129D02*
X017219Y001249D01*
X017219Y001319D01*
X017179Y001359D01*
X017179Y001659D01*
X017099Y001739D01*
X017099Y002079D01*
X017069Y002109D01*
X017069Y002209D01*
X017099Y002239D01*
X017099Y002309D01*
X017739Y002949D01*
X017739Y003119D01*
X017679Y003139D01*
X017729Y003139D01*
X017519Y002939D02*
X017469Y002959D01*
X017499Y002959D01*
X017519Y002939D02*
X017519Y002899D01*
X016979Y002359D01*
X016979Y002289D01*
X016949Y002259D01*
X016949Y002059D01*
X016979Y002029D01*
X016979Y001689D01*
X017059Y001609D01*
X017059Y001309D01*
X017079Y001289D01*
X017079Y001189D01*
X017059Y001169D01*
X017039Y001169D01*
X016929Y001059D01*
X017199Y001019D02*
X017259Y001019D01*
X017259Y001129D01*
X017769Y001039D02*
X018289Y001039D01*
X018383Y001042D01*
X019139Y000739D02*
X019179Y000739D01*
X019219Y000779D01*
X019219Y000999D01*
X019239Y001053D01*
X019279Y001049D01*
X019509Y001049D01*
X019519Y001059D01*
X019519Y001159D01*
X019649Y001289D01*
X019649Y001479D01*
X019239Y001565D02*
X019189Y001589D01*
X019189Y002019D01*
X019629Y002009D02*
X019629Y003179D01*
X019849Y003399D01*
X020209Y003719D02*
X020699Y004209D01*
X020899Y004669D02*
X021159Y004409D01*
X021159Y003719D01*
X021209Y003669D01*
X021209Y002699D01*
X021699Y002209D01*
X020699Y002209D02*
X020689Y002199D01*
X019929Y002199D01*
X019924Y002198D01*
X019679Y001999D02*
X019639Y001999D01*
X019629Y002009D01*
X019679Y001999D02*
X019839Y001839D01*
X019839Y001309D01*
X019639Y001109D01*
X019639Y000819D01*
X020009Y000649D02*
X020309Y000649D01*
X020319Y000639D01*
X020329Y000649D01*
X020324Y000657D01*
X019319Y000509D02*
X019309Y000519D01*
X020325Y001252D02*
X020329Y001259D01*
X020329Y001529D01*
X020169Y001689D01*
X020159Y001689D01*
X020079Y001729D01*
X020179Y002709D02*
X019929Y002709D01*
X019924Y002710D01*
X020179Y002709D02*
X020209Y002739D01*
X020209Y003719D01*
X019109Y004099D02*
X018199Y004099D01*
X018199Y004279D01*
X018203Y004279D01*
X017459Y004279D02*
X017459Y004559D01*
X017269Y004749D01*
X017455Y004279D02*
X017459Y004279D01*
X017349Y003789D02*
X017809Y003789D01*
X017349Y003789D02*
X017329Y003769D01*
X017279Y003769D01*
X017259Y003779D01*
X017239Y003799D01*
X019979Y004659D02*
X020489Y004659D01*
X020499Y004669D01*
X020899Y004669D01*
X016639Y002569D02*
X016619Y002589D01*
X016599Y002589D01*
X016639Y002569D02*
X016639Y002389D01*
X016829Y002199D01*
X016829Y002009D01*
X016859Y001979D01*
X016859Y001639D01*
X012097Y000755D02*
X012089Y000759D01*
D40*
X007889Y004879D03*
X007294Y004879D03*
D41*
X005889Y004479D03*
X005609Y004459D03*
X006109Y004259D03*
X006979Y004199D03*
X008099Y004019D03*
X008479Y004039D03*
X008784Y003986D03*
X009070Y003989D03*
X009649Y003969D03*
X009064Y004268D03*
X008672Y004254D03*
X008279Y004259D03*
X009324Y004574D03*
X010529Y004139D03*
X008359Y003769D03*
X007509Y003489D03*
X008509Y003269D03*
X008779Y003289D03*
X009659Y003159D03*
X008739Y002889D03*
X008469Y002989D03*
X008199Y002889D03*
X008029Y002669D03*
X008699Y002489D03*
X008019Y002289D03*
X008309Y002089D03*
X008699Y002089D03*
X008499Y001889D03*
X008799Y001639D03*
X009069Y001619D03*
X008329Y001569D03*
X007989Y001479D03*
X007489Y001299D03*
X007279Y001569D03*
X006759Y001719D03*
X006609Y001959D03*
X006144Y002289D03*
X005313Y002491D03*
X004840Y002531D03*
X005059Y002739D03*
X004309Y002918D03*
X004309Y003272D03*
X006109Y002879D03*
X007719Y001799D03*
X009069Y001329D03*
X009629Y001059D03*
X010819Y001059D03*
X011339Y001259D03*
X011759Y001309D03*
X011029Y001619D03*
X012569Y000759D03*
X010389Y000509D03*
X007929Y000669D03*
X006129Y001479D03*
X011229Y003359D03*
X010919Y003369D03*
X011959Y002854D03*
X013459Y002599D03*
X014699Y002479D03*
X014959Y002309D03*
X015089Y002039D03*
X014779Y001989D03*
X014729Y001589D03*
X015119Y001539D03*
X016289Y001789D03*
X016719Y001509D03*
X017779Y001319D03*
X017769Y001039D03*
X017199Y001019D03*
X016929Y001059D03*
X016339Y001039D03*
X017339Y000639D03*
X016819Y000519D03*
X015119Y000539D03*
X014619Y000759D03*
X017799Y001759D03*
X017769Y002029D03*
X019189Y002019D03*
X020159Y001689D03*
X019649Y001479D03*
X019639Y000819D03*
X019139Y000739D03*
X019309Y000519D03*
X020009Y000649D03*
X016619Y002589D03*
X017469Y002959D03*
X017679Y003139D03*
X017239Y003369D03*
X017429Y003599D03*
X017239Y003799D03*
X018319Y003649D03*
X019109Y003559D03*
X019849Y003399D03*
X019109Y004099D03*
X019089Y004679D03*
X019439Y004679D03*
X017269Y004749D03*
X016979Y004869D03*
X016979Y005269D03*
X016979Y005649D03*
X016809Y005869D03*
X016369Y006399D03*
X014569Y005849D03*
X011839Y005409D03*
X011669Y005159D03*
X011609Y004829D03*
X013689Y004259D03*
X014509Y004039D03*
X015009Y004029D03*
X015269Y004219D03*
X014699Y004289D03*
X014959Y004609D03*
X016479Y004229D03*
X016619Y003129D03*
X019179Y005579D03*
X019439Y005579D03*
X019719Y005579D03*
X005739Y005759D03*
X005234Y005798D03*
X004919Y005759D03*
X005510Y005365D03*
X005549Y004979D03*
X004269Y004138D03*
D42*
X004519Y003809D02*
X004545Y003811D01*
X004571Y003816D01*
X004596Y003826D01*
X004619Y003838D01*
X004640Y003854D01*
X004659Y003873D01*
X004675Y003894D01*
X004687Y003917D01*
X004697Y003942D01*
X004702Y003968D01*
X004704Y003994D01*
X004769Y004379D01*
X004770Y004379D02*
X004772Y004399D01*
X004777Y004419D01*
X004786Y004438D01*
X004797Y004454D01*
X004812Y004469D01*
X004829Y004480D01*
X004847Y004489D01*
X004867Y004494D01*
X004887Y004496D01*
X004965Y004491D01*
X005579Y004429D02*
X005579Y004249D01*
X005569Y004239D01*
X005379Y004239D01*
X005359Y004236D01*
X005818Y004255D02*
X005819Y004259D01*
X005889Y004259D01*
X005889Y004479D01*
X006109Y004549D02*
X006113Y004551D01*
X006109Y004549D02*
X006109Y004259D01*
X006309Y004279D02*
X006309Y004529D01*
X006310Y004551D01*
X006699Y004549D02*
X006703Y004551D01*
X006699Y004549D02*
X006699Y004299D01*
X006799Y004199D01*
X006979Y004199D01*
X007069Y003999D02*
X007209Y004139D01*
X007069Y003999D02*
X006799Y003999D01*
X006529Y004269D01*
X006319Y004269D01*
X006309Y004279D01*
X005609Y004459D02*
X005579Y004429D01*
X005549Y004979D02*
X005899Y004979D01*
X005909Y004989D01*
X005901Y004995D01*
X004520Y003809D02*
X004494Y003818D01*
X004467Y003822D01*
X004440Y003823D01*
X004413Y003820D01*
X004387Y003813D01*
X004362Y003803D01*
X004339Y003789D01*
X004318Y003773D01*
X004299Y003753D01*
X004283Y003732D01*
X004271Y003708D01*
X004261Y003682D01*
X004256Y003656D01*
X004254Y003629D01*
X004252Y003606D01*
X004248Y003584D01*
X004240Y003563D01*
X004229Y003542D01*
X004215Y003524D01*
X004199Y003508D01*
X004181Y003494D01*
X004160Y003483D01*
X004139Y003475D01*
X004117Y003471D01*
X004094Y003469D01*
X003259Y003469D01*
X005819Y003079D02*
X005818Y003074D01*
X005819Y003079D02*
X006199Y003079D01*
X006309Y002969D01*
X006309Y002719D01*
X006069Y002479D01*
X006144Y002289D01*
X006069Y002479D02*
X005839Y002479D01*
X005818Y002484D01*
X005818Y002090D02*
X005819Y002089D01*
X006089Y002089D01*
X006219Y001959D01*
X006609Y001959D01*
X007279Y001569D02*
X007289Y001569D01*
X007289Y001049D01*
X007294Y001007D01*
X007688Y001007D02*
X007689Y001009D01*
X007689Y001279D01*
X007719Y001309D01*
X007719Y001799D01*
X007719Y001829D01*
X008479Y001889D02*
X008499Y001889D01*
X009319Y001889D01*
X009361Y001893D01*
X009359Y001889D01*
X009089Y002089D02*
X009029Y002029D01*
X008879Y002029D01*
X008699Y002089D01*
X009089Y002089D02*
X009359Y002089D01*
X009361Y002090D01*
X009361Y002287D02*
X009359Y002289D01*
X008019Y002289D01*
X008659Y002479D02*
X008674Y002464D01*
X008699Y002489D01*
X008674Y002464D02*
X008709Y002429D01*
X009039Y002429D01*
X009089Y002479D01*
X009359Y002479D01*
X009361Y002484D01*
X009359Y002679D02*
X009089Y002679D01*
X009079Y002689D01*
X008609Y002689D01*
X008569Y002649D01*
X008029Y002669D01*
X008459Y002649D01*
X008769Y002839D02*
X008759Y002869D01*
X008739Y002889D01*
X008769Y002839D02*
X008779Y002829D01*
X009039Y002829D01*
X009089Y002879D01*
X009359Y002879D01*
X009361Y002877D01*
X009361Y002681D02*
X009359Y002679D01*
X008649Y003089D02*
X008549Y002989D01*
X008469Y002989D01*
X008419Y002989D01*
X008649Y003089D02*
X009079Y003089D01*
X009089Y003079D01*
X009359Y003079D01*
X009361Y003074D01*
X009359Y003269D02*
X009089Y003269D01*
X009049Y003229D01*
X008809Y003229D01*
X008744Y003314D01*
X008779Y003289D01*
X008749Y003319D02*
X008744Y003314D01*
X009359Y003269D02*
X009361Y003271D01*
X011959Y002854D02*
X011989Y003014D01*
X011029Y001619D02*
X010519Y001619D01*
X010519Y001623D01*
X009069Y001619D02*
X008889Y001439D01*
X008829Y001439D01*
X008669Y001279D01*
X008669Y001009D01*
X008672Y001007D01*
X008279Y001009D02*
X008278Y001007D01*
X008279Y001009D02*
X008279Y001279D01*
X008289Y001289D01*
X008479Y001289D01*
X008799Y001609D01*
X008799Y001639D01*
X008329Y001569D02*
X008299Y001569D01*
X008299Y001579D01*
X008299Y001569D02*
X008299Y001499D01*
X008079Y001279D01*
X008079Y001009D01*
X008081Y001007D01*
X007889Y001009D02*
X007884Y001007D01*
X007889Y001009D02*
X007889Y001289D01*
X007969Y001369D01*
X007969Y001469D01*
X007989Y001479D01*
X009069Y001059D02*
X009069Y001009D01*
X009066Y001007D01*
X009069Y001059D02*
X009629Y001059D01*
X010455Y001079D02*
X010799Y001079D01*
X010819Y001059D01*
X012097Y000755D02*
X012119Y000759D01*
X012569Y000759D01*
X015119Y000539D02*
X015729Y000539D01*
X015733Y000542D01*
X008282Y000594D02*
X008257Y000619D01*
X007929Y000669D01*
X007619Y000619D02*
X007585Y000589D01*
X016979Y004869D02*
X016979Y005069D01*
X017069Y005069D01*
X017179Y005179D01*
X017199Y005209D01*
X017199Y005969D01*
X017289Y006059D01*
X017289Y006329D01*
X017291Y006331D01*
X016779Y006331D02*
X016779Y006329D01*
X016779Y006109D01*
X016769Y006099D01*
X016219Y006099D01*
X016177Y006126D01*
X016183Y006119D01*
X016472Y005437D02*
X016519Y005439D01*
X016729Y005439D01*
X016899Y005269D01*
X016979Y005269D01*
X016779Y005189D02*
X016779Y005179D01*
X016889Y005069D01*
X016979Y005069D01*
X016779Y005189D02*
X016729Y005239D01*
X016479Y005239D01*
X016472Y005240D01*
X019179Y005429D02*
X019179Y005579D01*
X019439Y005579D02*
X019464Y005529D01*
X019719Y005529D02*
X019719Y005579D01*
D43*
X019719Y005529D02*
X019464Y005529D01*
X019464Y006073D01*
X019838Y006073D02*
X020065Y006281D01*
X020548Y006281D01*
X021148Y006281D02*
X021357Y006081D01*
X021347Y005615D01*
X020633Y005529D02*
X019719Y005529D01*
X019464Y005529D02*
X019464Y005429D01*
X019179Y005429D01*
X018329Y005429D01*
X018329Y005509D01*
X018333Y005516D01*
X019464Y005429D02*
X019464Y005050D01*
X019090Y005050D02*
X019025Y005030D01*
X018657Y004892D01*
X020599Y005615D02*
X020633Y005529D01*
X012711Y004997D02*
X012699Y004985D01*
X012699Y004629D01*
X012569Y004499D01*
X012099Y004499D01*
X011963Y004635D01*
X011963Y004997D01*
X011824Y004997D01*
X011325Y005444D02*
X011029Y005149D01*
X010147Y005149D01*
X009995Y005301D01*
X012699Y003189D02*
X012699Y003159D01*
X012699Y002049D01*
X012559Y001909D01*
X010869Y001909D01*
X010849Y001889D01*
X018383Y001042D02*
X018383Y000542D01*
D44*
X011959Y002854D02*
X011942Y003099D01*
X012035Y003339D01*
X012711Y003319D02*
X012783Y003339D01*
X012699Y003189D01*
X012699Y003159D02*
X012789Y003149D01*
X012337Y004997D02*
X012339Y005029D01*
X012339Y005289D01*
X012229Y005399D01*
X012199Y005399D01*
X012129Y005409D01*
X011839Y005409D01*
X011799Y005479D01*
X011799Y005609D01*
X011689Y005719D01*
X011689Y006089D01*
X011619Y006159D01*
X011579Y006229D01*
X011229Y006273D01*
X011229Y005525D02*
X011235Y005455D01*
X011325Y005444D01*
X011669Y005159D01*
X011824Y004997D01*
M02*
