G75*
G70*
%OFA0B0*%
%FSLAX24Y24*%
%IPPOS*%
%LPD*%
%AMOC8*
5,1,8,0,0,1.08239X$1,22.5*
%
%ADD10R,0.0276X0.0118*%
%ADD11R,0.0394X0.0118*%
%ADD12R,0.0118X0.0276*%
%ADD13R,0.0118X0.0394*%
%ADD14R,0.0472X0.0315*%
%ADD15R,0.0276X0.0354*%
%ADD16R,0.0354X0.0276*%
%ADD17R,0.0315X0.0315*%
%ADD18R,0.0217X0.0472*%
%ADD19R,0.0315X0.0472*%
%ADD20R,0.0248X0.0327*%
D10*
X016929Y002585D03*
X016929Y002782D03*
X016929Y002978D03*
X016929Y003175D03*
X016929Y003372D03*
X016929Y003569D03*
X016929Y003766D03*
X016929Y003963D03*
X016929Y004160D03*
X016929Y004356D03*
X018799Y004356D03*
X018799Y004160D03*
X018799Y003963D03*
X018799Y003766D03*
X018799Y003569D03*
X018799Y003372D03*
X018799Y003175D03*
X018799Y002978D03*
X018799Y002782D03*
X018799Y002585D03*
D11*
X017973Y002274D03*
X019843Y002274D03*
X019843Y004667D03*
X017973Y004667D03*
D12*
X010048Y005059D03*
X009852Y005059D03*
X009655Y005059D03*
X009458Y005059D03*
X009261Y005059D03*
X009064Y005059D03*
X008867Y005059D03*
X008671Y005059D03*
X008474Y005059D03*
X008277Y005059D03*
D13*
X007966Y006102D03*
X010359Y006102D03*
D14*
X011079Y006213D03*
X011079Y005505D03*
X006819Y001343D03*
X006819Y000635D03*
D15*
X005633Y000635D03*
X006145Y000635D03*
X006133Y001129D03*
X005621Y001129D03*
X006892Y005536D03*
X007404Y005536D03*
D16*
X006214Y005545D03*
X006214Y005033D03*
X012799Y003809D03*
X012799Y003297D03*
X013483Y004746D03*
X013483Y005258D03*
D17*
X012882Y002615D03*
X012291Y002615D03*
D18*
X012316Y003301D03*
X011942Y003301D03*
X011568Y003301D03*
X011568Y004324D03*
X012316Y004324D03*
D19*
X012177Y005191D03*
X012885Y005191D03*
D20*
X017696Y005499D03*
X018602Y005499D03*
X020406Y005554D03*
X021312Y005554D03*
M02*
