G75*
G70*
%OFA0B0*%
%FSLAX24Y24*%
%IPPOS*%
%LPD*%
%AMOC8*
5,1,8,0,0,1.08239X$1,22.5*
%
%ADD10C,0.0680*%
%ADD11C,0.1330*%
%ADD12R,0.0560X0.0560*%
%ADD13C,0.0560*%
%ADD14OC8,0.0820*%
%ADD15R,0.0356X0.0198*%
%ADD16R,0.0474X0.0198*%
%ADD17R,0.0198X0.0356*%
%ADD18R,0.0198X0.0474*%
%ADD19R,0.0552X0.0395*%
%ADD20R,0.0356X0.0434*%
%ADD21R,0.0434X0.0356*%
%ADD22R,0.0395X0.0395*%
%ADD23R,0.0297X0.0552*%
%ADD24R,0.0680X0.0680*%
%ADD25R,0.0395X0.0552*%
%ADD26C,0.0830*%
%ADD27R,0.0328X0.0407*%
%ADD28C,0.0580*%
%ADD29C,0.0820*%
D10*
X010199Y003469D03*
X010837Y004498D03*
X013799Y003469D03*
X013014Y006107D03*
D11*
X015799Y003469D03*
D12*
X017949Y006279D03*
X021148Y006281D03*
X014483Y006289D03*
D13*
X013883Y006289D03*
X018549Y006279D03*
X020548Y006281D03*
D14*
X020699Y004209D03*
X021699Y004209D03*
X021699Y003209D03*
X020699Y003209D03*
X020699Y002209D03*
X021699Y002209D03*
D15*
X018799Y002585D03*
X018799Y002782D03*
X018799Y002978D03*
X018799Y003175D03*
X018799Y003372D03*
X018799Y003569D03*
X018799Y003766D03*
X018799Y003963D03*
X018799Y004160D03*
X018799Y004356D03*
X016929Y004356D03*
X016929Y004160D03*
X016929Y003963D03*
X016929Y003766D03*
X016929Y003569D03*
X016929Y003372D03*
X016929Y003175D03*
X016929Y002978D03*
X016929Y002782D03*
X016929Y002585D03*
D16*
X017973Y002274D03*
X019843Y002274D03*
X019843Y004667D03*
X017973Y004667D03*
D17*
X010048Y005059D03*
X009852Y005059D03*
X009655Y005059D03*
X009458Y005059D03*
X009261Y005059D03*
X009064Y005059D03*
X008867Y005059D03*
X008671Y005059D03*
X008474Y005059D03*
X008277Y005059D03*
D18*
X007966Y006102D03*
X010359Y006102D03*
D19*
X011079Y006213D03*
X011079Y005505D03*
X006819Y001343D03*
X006819Y000635D03*
D20*
X006145Y000635D03*
X005633Y000635D03*
X005621Y001129D03*
X006133Y001129D03*
X006892Y005536D03*
X007404Y005536D03*
D21*
X006214Y005545D03*
X006214Y005033D03*
X012799Y003809D03*
X012799Y003297D03*
X013483Y004746D03*
X013483Y005258D03*
D22*
X012882Y002615D03*
X012291Y002615D03*
D23*
X012316Y003301D03*
X011942Y003301D03*
X011568Y003301D03*
X011568Y004324D03*
X012316Y004324D03*
D24*
X010049Y004498D03*
X012227Y006107D03*
D25*
X012177Y005191D03*
X012885Y005191D03*
D26*
X009720Y006049D03*
X008539Y006049D03*
D27*
X017696Y005499D03*
X018602Y005499D03*
X020406Y005554D03*
X021312Y005554D03*
D28*
X004989Y000705D03*
X004989Y001493D03*
X006196Y006169D03*
X006983Y006169D03*
D29*
X021699Y000849D03*
M02*
