G75*
G70*
%OFA0B0*%
%FSLAX24Y24*%
%IPPOS*%
%LPD*%
%AMOC8*
5,1,8,0,0,1.08239X$1,22.5*
%
%ADD10C,0.0480*%
%ADD11C,0.0600*%
%ADD12C,0.0500*%
%ADD13C,0.0750*%
%ADD14C,0.0180*%
%ADD15C,0.0200*%
%ADD16C,0.0100*%
%ADD17C,0.0060*%
%ADD18C,0.0200*%
D10*
X017949Y006279D03*
X018549Y006279D03*
X020548Y006281D03*
X021148Y006281D03*
X014483Y006289D03*
X013883Y006289D03*
D11*
X020699Y004209D03*
X021699Y004209D03*
X021699Y003209D03*
X020699Y003209D03*
X020699Y002209D03*
X021699Y002209D03*
X021699Y000849D03*
D12*
X010837Y004498D03*
X010049Y004498D03*
X012227Y006107D03*
X013014Y006107D03*
X006983Y006169D03*
X006196Y006169D03*
X004989Y001493D03*
X004989Y000705D03*
D13*
X008539Y006049D03*
X009720Y006049D03*
D14*
X007889Y004879D03*
X007294Y004879D03*
D15*
X005889Y004479D03*
X005609Y004459D03*
X006109Y004259D03*
X006979Y004199D03*
X008099Y004019D03*
X008479Y004039D03*
X008784Y003986D03*
X009070Y003989D03*
X009649Y003969D03*
X009064Y004268D03*
X008672Y004254D03*
X008279Y004259D03*
X009324Y004574D03*
X010529Y004139D03*
X008359Y003769D03*
X007509Y003489D03*
X008509Y003269D03*
X008779Y003289D03*
X009659Y003159D03*
X008739Y002889D03*
X008469Y002989D03*
X008199Y002889D03*
X008029Y002669D03*
X008699Y002489D03*
X008019Y002289D03*
X008309Y002089D03*
X008699Y002089D03*
X008499Y001889D03*
X008799Y001639D03*
X009069Y001619D03*
X008329Y001569D03*
X007989Y001479D03*
X007489Y001299D03*
X007279Y001569D03*
X006759Y001719D03*
X006609Y001959D03*
X006144Y002289D03*
X005313Y002491D03*
X004840Y002531D03*
X005059Y002739D03*
X004309Y002918D03*
X004309Y003272D03*
X006109Y002879D03*
X007719Y001799D03*
X009069Y001329D03*
X009629Y001059D03*
X010819Y001059D03*
X011339Y001259D03*
X011759Y001309D03*
X011029Y001619D03*
X012569Y000759D03*
X010389Y000509D03*
X007929Y000669D03*
X006129Y001479D03*
X011229Y003359D03*
X010919Y003369D03*
X011959Y002854D03*
X013459Y002599D03*
X014699Y002479D03*
X014959Y002309D03*
X015089Y002039D03*
X014779Y001989D03*
X014729Y001589D03*
X015119Y001539D03*
X016289Y001789D03*
X016719Y001509D03*
X017779Y001319D03*
X017769Y001039D03*
X017199Y001019D03*
X016929Y001059D03*
X016339Y001039D03*
X017339Y000639D03*
X016819Y000519D03*
X015119Y000539D03*
X014619Y000759D03*
X017799Y001759D03*
X017769Y002029D03*
X019189Y002019D03*
X020159Y001689D03*
X019649Y001479D03*
X019639Y000819D03*
X019139Y000739D03*
X019309Y000519D03*
X020009Y000649D03*
X016619Y002589D03*
X017469Y002959D03*
X017679Y003139D03*
X017239Y003369D03*
X017429Y003599D03*
X017239Y003799D03*
X018319Y003649D03*
X019109Y003559D03*
X019849Y003399D03*
X019109Y004099D03*
X019089Y004679D03*
X019439Y004679D03*
X017269Y004749D03*
X016979Y004869D03*
X016979Y005269D03*
X016979Y005649D03*
X016809Y005869D03*
X016369Y006399D03*
X014569Y005849D03*
X011839Y005409D03*
X011669Y005159D03*
X011609Y004829D03*
X013689Y004259D03*
X014509Y004039D03*
X015009Y004029D03*
X015269Y004219D03*
X014699Y004289D03*
X014959Y004609D03*
X016479Y004229D03*
X016619Y003129D03*
X019179Y005579D03*
X019439Y005579D03*
X019719Y005579D03*
X005739Y005759D03*
X005234Y005798D03*
X004919Y005759D03*
X005510Y005365D03*
X005549Y004979D03*
X004269Y004138D03*
D16*
X004739Y001234D02*
X004739Y000964D01*
X004785Y001010D01*
X004918Y001065D01*
X005061Y001065D01*
X005193Y001010D01*
X005294Y000909D01*
X005349Y000777D01*
X005349Y000634D01*
X005294Y000501D01*
X005242Y000449D01*
X005729Y000449D01*
X005729Y004342D01*
X005679Y004392D01*
X005679Y004566D01*
X005729Y004616D01*
X005729Y006479D01*
X004739Y006479D01*
X004739Y004517D01*
X004739Y004421D01*
X004703Y004333D01*
X004635Y004266D01*
X004599Y004251D01*
X004599Y002687D01*
X004635Y002672D01*
X004703Y002605D01*
X004739Y002517D01*
X004739Y002421D01*
X004739Y001752D01*
X004785Y001798D01*
X004918Y001853D01*
X005061Y001853D01*
X005193Y001798D01*
X005294Y001697D01*
X005349Y001564D01*
X005349Y001421D01*
X005294Y001289D01*
X005193Y001187D01*
X005061Y001133D01*
X004918Y001133D01*
X004785Y001187D01*
X004739Y001234D01*
X004739Y001155D02*
X004863Y001155D01*
X004897Y001057D02*
X004739Y001057D01*
X005081Y001057D02*
X005729Y001057D01*
X005729Y001155D02*
X005116Y001155D01*
X005260Y001254D02*
X005729Y001254D01*
X005729Y001352D02*
X005321Y001352D01*
X005349Y001451D02*
X005729Y001451D01*
X005899Y001451D02*
X005919Y001451D01*
X005919Y001392D02*
X006042Y001269D01*
X006216Y001269D01*
X006339Y001392D01*
X006339Y001566D01*
X006216Y001689D01*
X006042Y001689D01*
X005919Y001566D01*
X005919Y001392D01*
X005899Y001352D02*
X005959Y001352D01*
X005899Y001254D02*
X007279Y001254D01*
X007279Y001212D02*
X007402Y001089D01*
X007576Y001089D01*
X007699Y001212D01*
X007699Y001386D01*
X007576Y001509D01*
X007402Y001509D01*
X007279Y001386D01*
X007279Y001212D01*
X007336Y001155D02*
X005899Y001155D01*
X005899Y001057D02*
X008213Y001057D01*
X008115Y001155D02*
X007643Y001155D01*
X007699Y001254D02*
X008016Y001254D01*
X008001Y001269D02*
X008541Y000729D01*
X008657Y000729D01*
X010241Y000729D01*
X010491Y000479D01*
X008036Y000479D01*
X008139Y000582D01*
X008139Y000756D01*
X008016Y000879D01*
X007842Y000879D01*
X007719Y000756D01*
X007719Y000582D01*
X007822Y000479D01*
X005899Y000479D01*
X005899Y004269D01*
X005899Y004172D01*
X006022Y004049D01*
X006196Y004049D01*
X006319Y004172D01*
X006319Y004346D01*
X006196Y004469D01*
X006099Y004469D01*
X006099Y004566D01*
X005976Y004689D01*
X005899Y004689D01*
X005899Y004959D01*
X007094Y004959D01*
X007094Y004796D01*
X007211Y004679D01*
X007377Y004679D01*
X007494Y004796D01*
X007494Y004959D01*
X007689Y004959D01*
X007689Y004796D01*
X007806Y004679D01*
X007972Y004679D01*
X008089Y004796D01*
X008089Y004959D01*
X008469Y004959D01*
X008469Y004999D01*
X009439Y004999D01*
X009439Y004756D01*
X009411Y004784D01*
X009237Y004784D01*
X009114Y004661D01*
X009114Y004487D01*
X009123Y004478D01*
X008977Y004478D01*
X008861Y004362D01*
X008759Y004464D01*
X008585Y004464D01*
X008478Y004357D01*
X008366Y004469D01*
X008192Y004469D01*
X008069Y004346D01*
X008069Y004172D01*
X008192Y004049D01*
X008269Y004049D01*
X008269Y003952D01*
X008392Y003829D01*
X008566Y003829D01*
X008605Y003868D01*
X008697Y003776D01*
X008871Y003776D01*
X008929Y003834D01*
X008983Y003779D01*
X009157Y003779D01*
X009280Y003902D01*
X009280Y004076D01*
X009225Y004131D01*
X009274Y004181D01*
X009274Y004355D01*
X009265Y004364D01*
X009411Y004364D01*
X009439Y004392D01*
X009439Y002929D01*
X009069Y002929D01*
X009069Y002911D02*
X009069Y003027D01*
X008942Y003154D01*
X008989Y003202D01*
X008989Y003376D01*
X008866Y003499D01*
X008692Y003499D01*
X008634Y003441D01*
X008596Y003479D01*
X008422Y003479D01*
X008299Y003356D01*
X008299Y003182D01*
X008332Y003149D01*
X008282Y003099D01*
X008112Y003099D01*
X007989Y002976D01*
X007989Y002879D01*
X007942Y002879D01*
X007819Y002756D01*
X007819Y002582D01*
X007917Y002484D01*
X007809Y002376D01*
X007809Y002202D01*
X007932Y002079D01*
X008099Y002079D01*
X008099Y002002D01*
X008222Y001879D01*
X008289Y001879D01*
X008289Y001802D01*
X008312Y001779D01*
X008242Y001779D01*
X008119Y001656D01*
X008119Y001646D01*
X008076Y001689D01*
X007906Y001689D01*
X007929Y001712D01*
X007929Y001886D01*
X007806Y002009D01*
X007632Y002009D01*
X007509Y001886D01*
X007509Y001712D01*
X007632Y001589D01*
X007802Y001589D01*
X007779Y001566D01*
X007779Y001392D01*
X007902Y001269D01*
X008001Y001269D01*
X007819Y001352D02*
X007699Y001352D01*
X007634Y001451D02*
X007779Y001451D01*
X007779Y001550D02*
X006887Y001550D01*
X006846Y001509D02*
X006672Y001509D01*
X006549Y001632D01*
X006549Y001749D01*
X006522Y001749D01*
X006399Y001872D01*
X006399Y002046D01*
X006522Y002169D01*
X006696Y002169D01*
X006819Y002046D01*
X006819Y001929D01*
X006846Y001929D01*
X006969Y001806D01*
X006969Y001632D01*
X006846Y001509D01*
X006632Y001550D02*
X006339Y001550D01*
X006257Y001648D02*
X006549Y001648D01*
X006549Y001747D02*
X005899Y001747D01*
X005899Y001648D02*
X006001Y001648D01*
X005919Y001550D02*
X005899Y001550D01*
X005729Y001550D02*
X005349Y001550D01*
X005314Y001648D02*
X005729Y001648D01*
X005729Y001747D02*
X005244Y001747D01*
X005079Y001845D02*
X005729Y001845D01*
X005729Y001944D02*
X004739Y001944D01*
X004739Y002042D02*
X005729Y002042D01*
X005899Y002042D02*
X006399Y002042D01*
X006399Y001944D02*
X005899Y001944D01*
X005899Y001845D02*
X006426Y001845D01*
X006819Y001944D02*
X007567Y001944D01*
X007509Y001845D02*
X006930Y001845D01*
X006969Y001747D02*
X007509Y001747D01*
X007573Y001648D02*
X006969Y001648D01*
X007344Y001451D02*
X006339Y001451D01*
X006300Y001352D02*
X007279Y001352D01*
X008117Y001648D02*
X008119Y001648D01*
X008210Y001747D02*
X007929Y001747D01*
X007929Y001845D02*
X008289Y001845D01*
X008157Y001944D02*
X007871Y001944D01*
X008099Y002042D02*
X006819Y002042D01*
X006724Y002141D02*
X007870Y002141D01*
X007809Y002239D02*
X006354Y002239D01*
X006354Y002202D02*
X006231Y002079D01*
X006057Y002079D01*
X005934Y002202D01*
X005934Y002376D01*
X006057Y002499D01*
X006231Y002499D01*
X006354Y002376D01*
X006354Y002202D01*
X006293Y002141D02*
X006494Y002141D01*
X006354Y002338D02*
X007809Y002338D01*
X007870Y002436D02*
X006294Y002436D01*
X005995Y002436D02*
X005899Y002436D01*
X005899Y002535D02*
X007866Y002535D01*
X007819Y002634D02*
X005899Y002634D01*
X005899Y002732D02*
X005959Y002732D01*
X005899Y002792D02*
X006022Y002669D01*
X006196Y002669D01*
X006319Y002792D01*
X006319Y002966D01*
X006196Y003089D01*
X006022Y003089D01*
X005899Y002966D01*
X005899Y002792D01*
X005729Y002831D02*
X005265Y002831D01*
X005269Y002826D02*
X005146Y002949D01*
X004972Y002949D01*
X004849Y002826D01*
X004849Y002652D01*
X004972Y002529D01*
X005146Y002529D01*
X005269Y002652D01*
X005269Y002826D01*
X005269Y002732D02*
X005729Y002732D01*
X005729Y002634D02*
X005251Y002634D01*
X005152Y002535D02*
X005729Y002535D01*
X005729Y002436D02*
X004739Y002436D01*
X004732Y002535D02*
X004966Y002535D01*
X004868Y002634D02*
X004674Y002634D01*
X004599Y002732D02*
X004849Y002732D01*
X004854Y002831D02*
X004599Y002831D01*
X004599Y002929D02*
X004952Y002929D01*
X005166Y002929D02*
X005729Y002929D01*
X005729Y003028D02*
X004599Y003028D01*
X004599Y003126D02*
X005729Y003126D01*
X005899Y003126D02*
X008309Y003126D01*
X008041Y003028D02*
X006257Y003028D01*
X006319Y002929D02*
X007989Y002929D01*
X007894Y002831D02*
X006319Y002831D01*
X006259Y002732D02*
X007819Y002732D01*
X008970Y003126D02*
X009439Y003126D01*
X009439Y003028D02*
X009068Y003028D01*
X009069Y002911D02*
X009069Y002757D01*
X009149Y002677D01*
X009149Y002561D01*
X009149Y002447D01*
X009557Y002039D01*
X010621Y002039D01*
X010771Y002189D01*
X010887Y002189D01*
X011687Y002189D01*
X011769Y002107D01*
X012247Y001629D01*
X013307Y001629D01*
X013389Y001547D01*
X013389Y001547D01*
X013447Y001489D01*
X013701Y001489D01*
X014049Y001837D01*
X014049Y001837D01*
X014131Y001919D01*
X014569Y001919D01*
X014569Y002076D01*
X014692Y002199D01*
X014772Y002199D01*
X014749Y002222D01*
X014749Y002269D01*
X014612Y002269D01*
X014489Y002392D01*
X014489Y002566D01*
X014612Y002689D01*
X014786Y002689D01*
X014909Y002566D01*
X014909Y002519D01*
X015046Y002519D01*
X015169Y002396D01*
X015169Y002249D01*
X015176Y002249D01*
X015299Y002126D01*
X015299Y001952D01*
X015266Y001919D01*
X015457Y001919D01*
X015527Y001849D01*
X015861Y001849D01*
X016131Y002119D01*
X016247Y002119D01*
X016311Y002119D01*
X016341Y002149D01*
X016457Y002149D01*
X017411Y002149D01*
X017519Y002287D01*
X017519Y002297D01*
X017554Y002332D01*
X017585Y002371D01*
X017594Y002372D01*
X017601Y002379D01*
X017651Y002379D01*
X017700Y002385D01*
X017707Y002379D01*
X017891Y002379D01*
X017919Y002390D01*
X017947Y002379D01*
X017977Y002379D01*
X017999Y002358D01*
X018026Y002346D01*
X018038Y002318D01*
X018059Y002297D01*
X018059Y002267D01*
X018513Y001169D01*
X021439Y001169D01*
X021467Y001197D01*
X021618Y001259D01*
X021781Y001259D01*
X021931Y001197D01*
X022029Y001099D01*
X022029Y001959D01*
X021931Y001861D01*
X021781Y001799D01*
X021618Y001799D01*
X021467Y001861D01*
X021352Y001977D01*
X021289Y002127D01*
X021289Y002291D01*
X021352Y002441D01*
X021467Y002557D01*
X021618Y002619D01*
X021781Y002619D01*
X021931Y002557D01*
X022029Y002459D01*
X022029Y002959D01*
X021931Y002861D01*
X021781Y002799D01*
X021618Y002799D01*
X021467Y002861D01*
X021352Y002977D01*
X021289Y003127D01*
X021289Y003291D01*
X021352Y003441D01*
X021467Y003557D01*
X021618Y003619D01*
X021781Y003619D01*
X021931Y003557D01*
X022029Y003459D01*
X022029Y003959D01*
X021931Y003861D01*
X021781Y003799D01*
X021618Y003799D01*
X021467Y003861D01*
X021352Y003977D01*
X021289Y004127D01*
X021289Y004291D01*
X021352Y004441D01*
X021369Y004459D01*
X021029Y004459D01*
X021047Y004441D01*
X021109Y004291D01*
X021109Y004127D01*
X021047Y003977D01*
X020931Y003861D01*
X020781Y003799D01*
X020618Y003799D01*
X020467Y003861D01*
X020352Y003977D01*
X020289Y004127D01*
X020289Y004291D01*
X020352Y004441D01*
X020369Y004459D01*
X020176Y004459D01*
X020166Y004449D01*
X020157Y004418D01*
X020107Y004390D01*
X020066Y004349D01*
X020034Y004349D01*
X020017Y004340D01*
X019616Y003939D01*
X019442Y003939D01*
X019254Y003939D01*
X019249Y003936D01*
X019249Y003887D01*
X019507Y003629D01*
X019589Y003547D01*
X019589Y002359D01*
X019687Y002359D01*
X020147Y001899D01*
X020246Y001899D01*
X020369Y001776D01*
X020369Y001602D01*
X020246Y001479D01*
X020072Y001479D01*
X019949Y001602D01*
X019949Y001701D01*
X019571Y002079D01*
X019527Y002079D01*
X019411Y002079D01*
X019399Y002091D01*
X019399Y001932D01*
X019276Y001809D01*
X019102Y001809D01*
X018979Y001932D01*
X018979Y002106D01*
X019102Y002229D01*
X019276Y002229D01*
X019309Y002196D01*
X019309Y002297D01*
X019309Y003431D01*
X019294Y003446D01*
X019196Y003349D01*
X019097Y003349D01*
X019067Y003319D01*
X018951Y003319D01*
X017796Y003319D01*
X017889Y003226D01*
X017889Y003052D01*
X017766Y002929D01*
X017679Y002929D01*
X017679Y002872D01*
X017556Y002749D01*
X017382Y002749D01*
X017285Y002846D01*
X017201Y002762D01*
X017043Y002586D01*
X017020Y002548D01*
X017005Y002544D01*
X016995Y002532D01*
X016951Y002530D01*
X016825Y002497D01*
X016706Y002379D01*
X016532Y002379D01*
X016409Y002502D01*
X016409Y002676D01*
X016532Y002799D01*
X016706Y002799D01*
X016740Y002765D01*
X016853Y002794D01*
X016959Y002912D01*
X016959Y002917D01*
X016998Y002955D01*
X017034Y002996D01*
X017038Y002996D01*
X017201Y003159D01*
X017152Y003159D01*
X017029Y003282D01*
X017029Y003456D01*
X017152Y003579D01*
X017219Y003579D01*
X017219Y003589D01*
X017152Y003589D01*
X017029Y003712D01*
X017029Y003886D01*
X017152Y004009D01*
X017326Y004009D01*
X017449Y003886D01*
X017449Y003809D01*
X017516Y003809D01*
X017639Y003686D01*
X017639Y003597D01*
X017641Y003599D01*
X018109Y003599D01*
X018109Y003736D01*
X018232Y003859D01*
X018406Y003859D01*
X018529Y003736D01*
X018529Y003599D01*
X018899Y003599D01*
X018899Y003646D01*
X018997Y003743D01*
X018969Y003771D01*
X018969Y003887D01*
X018969Y003921D01*
X018968Y003921D01*
X018940Y003971D01*
X018452Y004459D01*
X015429Y004459D01*
X015429Y004356D01*
X015479Y004306D01*
X015479Y004229D01*
X015635Y004294D01*
X015963Y004294D01*
X016266Y004168D01*
X016269Y004166D01*
X016269Y004316D01*
X016392Y004439D01*
X016566Y004439D01*
X016689Y004316D01*
X016689Y004142D01*
X016566Y004019D01*
X016416Y004019D01*
X016499Y003936D01*
X016624Y003633D01*
X016624Y003339D01*
X016706Y003339D01*
X016829Y003216D01*
X016829Y003042D01*
X016706Y002919D01*
X016532Y002919D01*
X016474Y002977D01*
X016266Y002770D01*
X015963Y002644D01*
X015635Y002644D01*
X015332Y002770D01*
X015100Y003002D01*
X014974Y003305D01*
X014974Y003633D01*
X015051Y003819D01*
X014922Y003819D01*
X014799Y003942D01*
X014799Y004092D01*
X014786Y004079D01*
X014719Y004079D01*
X014719Y003952D01*
X014596Y003829D01*
X014422Y003829D01*
X014299Y003952D01*
X014299Y004126D01*
X014422Y004249D01*
X014489Y004249D01*
X014489Y004376D01*
X014572Y004459D01*
X013786Y004459D01*
X013899Y004346D01*
X013899Y004172D01*
X013776Y004049D01*
X013602Y004049D01*
X013479Y004172D01*
X013479Y004346D01*
X013592Y004459D01*
X013229Y004459D01*
X013269Y002649D01*
X012769Y002709D01*
X012122Y002719D01*
X012046Y002644D01*
X011872Y002644D01*
X011791Y002725D01*
X010919Y002739D01*
X010929Y002929D01*
X009439Y002929D01*
X009069Y002831D02*
X010924Y002831D01*
X011346Y002732D02*
X009094Y002732D01*
X009149Y002634D02*
X014557Y002634D01*
X014489Y002535D02*
X009149Y002535D01*
X009160Y002436D02*
X014489Y002436D01*
X014543Y002338D02*
X009258Y002338D01*
X009357Y002239D02*
X014749Y002239D01*
X014634Y002141D02*
X011735Y002141D01*
X011834Y002042D02*
X014569Y002042D01*
X014569Y001944D02*
X011932Y001944D01*
X012031Y001845D02*
X014057Y001845D01*
X013959Y001747D02*
X012130Y001747D01*
X012228Y001648D02*
X013860Y001648D01*
X013762Y001550D02*
X013387Y001550D01*
X015186Y002239D02*
X017482Y002239D01*
X017559Y002338D02*
X015169Y002338D01*
X015129Y002436D02*
X016475Y002436D01*
X016409Y002535D02*
X014909Y002535D01*
X014842Y002634D02*
X016409Y002634D01*
X016409Y002679D02*
X016409Y002329D01*
X016333Y002141D02*
X015284Y002141D01*
X015299Y002042D02*
X016054Y002042D01*
X015956Y001944D02*
X015291Y001944D01*
X016767Y001719D02*
X016787Y001739D01*
X016796Y001739D01*
X016830Y001728D01*
X016852Y001739D01*
X016877Y001739D01*
X016887Y001749D01*
X017281Y001749D01*
X017301Y001729D01*
X017417Y001729D01*
X017429Y001741D01*
X017589Y001684D01*
X017589Y001672D01*
X017712Y001549D01*
X017886Y001549D01*
X018004Y001667D01*
X018279Y001001D01*
X018279Y000971D01*
X018301Y000950D01*
X018312Y000922D01*
X018340Y000910D01*
X018361Y000889D01*
X018391Y000889D01*
X018419Y000877D01*
X018447Y000889D01*
X019429Y000889D01*
X019429Y000732D01*
X019552Y000609D01*
X019726Y000609D01*
X019799Y000682D01*
X019799Y000562D01*
X019882Y000479D01*
X019519Y000479D01*
X019519Y000606D01*
X019396Y000729D01*
X019222Y000729D01*
X019099Y000606D01*
X019099Y000479D01*
X017476Y000479D01*
X017549Y000552D01*
X017549Y000726D01*
X017426Y000849D01*
X017326Y000849D01*
X017409Y000932D01*
X017409Y001106D01*
X017356Y001159D01*
X017642Y001159D01*
X017692Y001109D01*
X017866Y001109D01*
X017989Y001232D01*
X017989Y001406D01*
X017866Y001529D01*
X017692Y001529D01*
X017602Y001439D01*
X016929Y001439D01*
X016929Y001596D01*
X016806Y001719D01*
X016767Y001719D01*
X016885Y001747D02*
X017284Y001747D01*
X017613Y001648D02*
X016877Y001648D01*
X016929Y001550D02*
X017712Y001550D01*
X017887Y001550D02*
X018053Y001550D01*
X018012Y001648D02*
X017985Y001648D01*
X018274Y001747D02*
X019904Y001747D01*
X019949Y001648D02*
X018315Y001648D01*
X018356Y001550D02*
X020002Y001550D01*
X020317Y001550D02*
X022029Y001550D01*
X022029Y001648D02*
X020369Y001648D01*
X020369Y001747D02*
X022029Y001747D01*
X022029Y001845D02*
X021892Y001845D01*
X022014Y001944D02*
X022029Y001944D01*
X021506Y001845D02*
X020964Y001845D01*
X020992Y001866D02*
X021042Y001916D01*
X021084Y001973D01*
X021116Y002036D01*
X021138Y002104D01*
X021147Y002159D01*
X020749Y002159D01*
X020749Y001761D01*
X020805Y001770D01*
X020872Y001792D01*
X020935Y001824D01*
X020992Y001866D01*
X021063Y001944D02*
X021385Y001944D01*
X021324Y002042D02*
X021118Y002042D01*
X020749Y002042D02*
X020649Y002042D01*
X020649Y001944D02*
X020749Y001944D01*
X020749Y001845D02*
X020649Y001845D01*
X020649Y001761D02*
X020649Y002159D01*
X020251Y002159D01*
X020260Y002104D01*
X020282Y002036D01*
X020314Y001973D01*
X020356Y001916D01*
X020406Y001866D01*
X020463Y001824D01*
X020526Y001792D01*
X020594Y001770D01*
X020649Y001761D01*
X020434Y001845D02*
X020300Y001845D01*
X020336Y001944D02*
X020102Y001944D01*
X020004Y002042D02*
X020280Y002042D01*
X020254Y002141D02*
X019905Y002141D01*
X019807Y002239D02*
X020649Y002239D01*
X020649Y002259D02*
X020649Y002159D01*
X020749Y002159D01*
X020749Y002259D01*
X020649Y002259D01*
X020251Y002259D01*
X020260Y002314D01*
X020282Y002382D01*
X020314Y002445D01*
X020356Y002502D01*
X020406Y002552D01*
X020463Y002594D01*
X020526Y002626D01*
X020594Y002648D01*
X020649Y002657D01*
X020649Y002259D01*
X020649Y002338D02*
X020749Y002338D01*
X020749Y002259D02*
X020749Y002657D01*
X020805Y002648D01*
X020872Y002626D01*
X020935Y002594D01*
X020992Y002552D01*
X021042Y002502D01*
X021084Y002445D01*
X021116Y002382D01*
X021138Y002314D01*
X021147Y002259D01*
X020749Y002259D01*
X020749Y002239D02*
X021289Y002239D01*
X021289Y002141D02*
X021144Y002141D01*
X021130Y002338D02*
X021309Y002338D01*
X021350Y002436D02*
X021088Y002436D01*
X021010Y002535D02*
X021445Y002535D01*
X021953Y002535D02*
X022029Y002535D01*
X022029Y002634D02*
X020849Y002634D01*
X020749Y002634D02*
X020649Y002634D01*
X020550Y002634D02*
X019589Y002634D01*
X019589Y002732D02*
X022029Y002732D01*
X022029Y002831D02*
X021857Y002831D01*
X021999Y002929D02*
X022029Y002929D01*
X021541Y002831D02*
X020857Y002831D01*
X020931Y002861D02*
X020781Y002799D01*
X020618Y002799D01*
X020467Y002861D01*
X020352Y002977D01*
X020289Y003127D01*
X020289Y003291D01*
X020352Y003441D01*
X020467Y003557D01*
X020618Y003619D01*
X020781Y003619D01*
X020931Y003557D01*
X021047Y003441D01*
X021109Y003291D01*
X021109Y003127D01*
X021047Y002977D01*
X020931Y002861D01*
X020999Y002929D02*
X021399Y002929D01*
X021331Y003028D02*
X021068Y003028D01*
X021109Y003126D02*
X021290Y003126D01*
X021289Y003225D02*
X021109Y003225D01*
X021096Y003323D02*
X021303Y003323D01*
X021344Y003422D02*
X021055Y003422D01*
X020968Y003520D02*
X021431Y003520D01*
X021968Y003520D02*
X022029Y003520D01*
X022029Y003619D02*
X019517Y003619D01*
X019589Y003520D02*
X019674Y003520D01*
X019639Y003486D02*
X019639Y003312D01*
X019762Y003189D01*
X019936Y003189D01*
X020059Y003312D01*
X020059Y003486D01*
X019936Y003609D01*
X019762Y003609D01*
X019639Y003486D01*
X019639Y003422D02*
X019589Y003422D01*
X019589Y003323D02*
X019639Y003323D01*
X019589Y003225D02*
X019726Y003225D01*
X019972Y003225D02*
X020289Y003225D01*
X020303Y003323D02*
X020059Y003323D01*
X020059Y003422D02*
X020344Y003422D01*
X020431Y003520D02*
X020025Y003520D01*
X019419Y003717D02*
X022029Y003717D01*
X022029Y003816D02*
X021822Y003816D01*
X021985Y003915D02*
X022029Y003915D01*
X021576Y003816D02*
X020822Y003816D01*
X020985Y003915D02*
X021414Y003915D01*
X021337Y004013D02*
X021062Y004013D01*
X021103Y004112D02*
X021296Y004112D01*
X021289Y004210D02*
X021109Y004210D01*
X021102Y004309D02*
X021297Y004309D01*
X021338Y004407D02*
X021061Y004407D01*
X020338Y004407D02*
X020139Y004407D01*
X019986Y004309D02*
X020297Y004309D01*
X020289Y004210D02*
X019887Y004210D01*
X019789Y004112D02*
X020296Y004112D01*
X020337Y004013D02*
X019690Y004013D01*
X019320Y003816D02*
X020576Y003816D01*
X020414Y003915D02*
X019249Y003915D01*
X018969Y003915D02*
X017421Y003915D01*
X017449Y003816D02*
X018189Y003816D01*
X018109Y003717D02*
X017608Y003717D01*
X017639Y003619D02*
X018109Y003619D01*
X018529Y003619D02*
X018899Y003619D01*
X018971Y003717D02*
X018529Y003717D01*
X018449Y003816D02*
X018969Y003816D01*
X018898Y004013D02*
X016422Y004013D01*
X016508Y003915D02*
X017058Y003915D01*
X017029Y003816D02*
X016548Y003816D01*
X016589Y003717D02*
X017029Y003717D01*
X017122Y003619D02*
X016624Y003619D01*
X016624Y003520D02*
X017094Y003520D01*
X017029Y003422D02*
X016624Y003422D01*
X016722Y003323D02*
X017029Y003323D01*
X017086Y003225D02*
X016820Y003225D01*
X016829Y003126D02*
X017169Y003126D01*
X017070Y003028D02*
X016815Y003028D01*
X016859Y002919D02*
X016929Y002989D01*
X016969Y003019D01*
X016969Y004859D01*
X016979Y004869D01*
X016769Y004900D02*
X014989Y004900D01*
X014989Y004999D02*
X016812Y004999D01*
X016769Y004956D02*
X016769Y004782D01*
X016772Y004779D01*
X015086Y004779D01*
X015046Y004819D01*
X014989Y004819D01*
X014989Y005129D01*
X014915Y006479D01*
X017614Y006479D01*
X017604Y006464D01*
X017574Y006393D01*
X017559Y006317D01*
X017559Y006299D01*
X017929Y006299D01*
X017929Y006259D01*
X017559Y006259D01*
X017559Y006241D01*
X017574Y006165D01*
X017604Y006094D01*
X017646Y006030D01*
X017701Y005976D01*
X017764Y005933D01*
X017835Y005904D01*
X017911Y005889D01*
X017929Y005889D01*
X017929Y006259D01*
X017969Y006259D01*
X017969Y005889D01*
X017988Y005889D01*
X018063Y005904D01*
X018134Y005933D01*
X018198Y005976D01*
X018252Y006030D01*
X018272Y006061D01*
X018351Y005982D01*
X018480Y005929D01*
X018619Y005929D01*
X018747Y005982D01*
X018846Y006081D01*
X018899Y006209D01*
X018899Y006349D01*
X018846Y006477D01*
X018844Y006479D01*
X020251Y006479D01*
X020251Y006479D01*
X020198Y006350D01*
X020198Y006211D01*
X020251Y006082D01*
X020349Y005984D01*
X018749Y005984D01*
X018847Y006083D02*
X020251Y006083D01*
X020210Y006181D02*
X018887Y006181D01*
X018899Y006280D02*
X020198Y006280D01*
X020209Y006378D02*
X018887Y006378D01*
X018846Y006477D02*
X020250Y006477D01*
X021127Y006260D02*
X021168Y006260D01*
X021168Y006301D01*
X021538Y006301D01*
X021538Y006319D01*
X021523Y006394D01*
X021493Y006465D01*
X021484Y006479D01*
X022059Y006479D01*
X022059Y004779D01*
X019636Y004779D01*
X019526Y004889D01*
X019352Y004889D01*
X019264Y004801D01*
X019176Y004889D01*
X019002Y004889D01*
X018892Y004779D01*
X017479Y004779D01*
X017479Y004836D01*
X017356Y004959D01*
X017186Y004959D01*
X017076Y005069D01*
X017189Y005182D01*
X017189Y005356D01*
X017086Y005459D01*
X017189Y005562D01*
X017189Y005736D01*
X017066Y005859D01*
X017019Y005859D01*
X017019Y005956D01*
X016896Y006079D01*
X016722Y006079D01*
X016599Y005956D01*
X016599Y005782D01*
X016722Y005659D01*
X016769Y005659D01*
X016769Y005562D01*
X016872Y005459D01*
X016769Y005356D01*
X016769Y005182D01*
X016882Y005069D01*
X016769Y004956D01*
X016769Y004801D02*
X015064Y004801D01*
X014989Y005097D02*
X016854Y005097D01*
X016769Y005196D02*
X014986Y005196D01*
X014980Y005294D02*
X016769Y005294D01*
X016806Y005393D02*
X014975Y005393D01*
X015269Y005299D02*
X016369Y006399D01*
X016627Y005984D02*
X014942Y005984D01*
X014947Y005885D02*
X016599Y005885D01*
X016599Y005787D02*
X014953Y005787D01*
X014958Y005688D02*
X016693Y005688D01*
X016769Y005590D02*
X014964Y005590D01*
X014969Y005491D02*
X016840Y005491D01*
X017118Y005491D02*
X018970Y005491D01*
X018969Y005492D02*
X019092Y005369D01*
X019266Y005369D01*
X019309Y005412D01*
X019352Y005369D01*
X019526Y005369D01*
X019579Y005422D01*
X019632Y005369D01*
X019806Y005369D01*
X019929Y005492D01*
X019929Y005666D01*
X019806Y005789D01*
X019632Y005789D01*
X019579Y005736D01*
X019526Y005789D01*
X019352Y005789D01*
X019309Y005746D01*
X019266Y005789D01*
X019092Y005789D01*
X018969Y005666D01*
X018969Y005492D01*
X018969Y005590D02*
X017189Y005590D01*
X017189Y005688D02*
X018992Y005688D01*
X019090Y005787D02*
X017138Y005787D01*
X017019Y005885D02*
X022059Y005885D01*
X022059Y005787D02*
X019808Y005787D01*
X019630Y005787D02*
X019528Y005787D01*
X019350Y005787D02*
X019268Y005787D01*
X019907Y005688D02*
X022059Y005688D01*
X022059Y005590D02*
X019929Y005590D01*
X019928Y005491D02*
X022059Y005491D01*
X022059Y005393D02*
X019830Y005393D01*
X019608Y005393D02*
X019550Y005393D01*
X019328Y005393D02*
X019290Y005393D01*
X019068Y005393D02*
X017152Y005393D01*
X017189Y005294D02*
X022059Y005294D01*
X022059Y005196D02*
X017189Y005196D01*
X017104Y005097D02*
X022059Y005097D01*
X022059Y004999D02*
X017147Y004999D01*
X017415Y004900D02*
X022059Y004900D01*
X022059Y004801D02*
X019614Y004801D01*
X019265Y004801D02*
X019264Y004801D01*
X018915Y004801D02*
X017479Y004801D01*
X016598Y004407D02*
X018504Y004407D01*
X018602Y004309D02*
X016689Y004309D01*
X016689Y004210D02*
X018701Y004210D01*
X018800Y004112D02*
X016659Y004112D01*
X016269Y004210D02*
X016165Y004210D01*
X016269Y004309D02*
X015476Y004309D01*
X015269Y004219D02*
X015269Y005299D01*
X016991Y005984D02*
X017693Y005984D01*
X017929Y005984D02*
X017969Y005984D01*
X017969Y006083D02*
X017929Y006083D01*
X017929Y006181D02*
X017969Y006181D01*
X017929Y006280D02*
X014926Y006280D01*
X014931Y006181D02*
X017571Y006181D01*
X017611Y006083D02*
X014937Y006083D01*
X014920Y006378D02*
X017571Y006378D01*
X017612Y006477D02*
X014915Y006477D01*
X018206Y005984D02*
X018349Y005984D01*
X020349Y005984D02*
X020478Y005931D01*
X020617Y005931D01*
X020746Y005984D01*
X020893Y005984D01*
X020899Y005978D02*
X020963Y005935D01*
X021034Y005906D01*
X021109Y005891D01*
X021127Y005891D01*
X021127Y006260D01*
X021168Y006260D02*
X021168Y005891D01*
X021186Y005891D01*
X021261Y005906D01*
X021332Y005935D01*
X021396Y005978D01*
X021450Y006032D01*
X021493Y006096D01*
X021523Y006167D01*
X021538Y006242D01*
X021538Y006260D01*
X021168Y006260D01*
X021168Y006280D02*
X022059Y006280D01*
X022059Y006181D02*
X021525Y006181D01*
X021484Y006083D02*
X022059Y006083D01*
X022059Y005984D02*
X021403Y005984D01*
X021168Y005984D02*
X021127Y005984D01*
X021127Y006083D02*
X021168Y006083D01*
X021168Y006181D02*
X021127Y006181D01*
X020899Y005978D02*
X020845Y006032D01*
X020824Y006062D01*
X020746Y005984D01*
X021526Y006378D02*
X022059Y006378D01*
X022059Y006477D02*
X021486Y006477D01*
X016361Y004407D02*
X015429Y004407D01*
X014521Y004407D02*
X013838Y004407D01*
X013541Y004407D02*
X013230Y004407D01*
X013233Y004309D02*
X013479Y004309D01*
X013479Y004210D02*
X013235Y004210D01*
X013237Y004112D02*
X013540Y004112D01*
X013839Y004112D02*
X014299Y004112D01*
X014383Y004210D02*
X013899Y004210D01*
X013899Y004309D02*
X014489Y004309D01*
X014299Y004013D02*
X013239Y004013D01*
X013241Y003915D02*
X013568Y003915D01*
X013516Y003893D02*
X013375Y003752D01*
X013299Y003568D01*
X013299Y003369D01*
X013375Y003186D01*
X013516Y003045D01*
X013700Y002969D01*
X013899Y002969D01*
X014082Y003045D01*
X014223Y003186D01*
X014299Y003369D01*
X014299Y003568D01*
X014223Y003752D01*
X014082Y003893D01*
X013899Y003969D01*
X013700Y003969D01*
X013516Y003893D01*
X013439Y003816D02*
X013243Y003816D01*
X013246Y003717D02*
X013361Y003717D01*
X013320Y003619D02*
X013248Y003619D01*
X013250Y003520D02*
X013299Y003520D01*
X013299Y003422D02*
X013252Y003422D01*
X013254Y003323D02*
X013318Y003323D01*
X013359Y003225D02*
X013256Y003225D01*
X013259Y003126D02*
X013435Y003126D01*
X013558Y003028D02*
X013261Y003028D01*
X013263Y002929D02*
X015172Y002929D01*
X015089Y003028D02*
X014040Y003028D01*
X014164Y003126D02*
X015048Y003126D01*
X015007Y003225D02*
X014239Y003225D01*
X014280Y003323D02*
X014974Y003323D01*
X014974Y003422D02*
X014299Y003422D01*
X014299Y003520D02*
X014974Y003520D01*
X014974Y003619D02*
X014278Y003619D01*
X014237Y003717D02*
X015009Y003717D01*
X015050Y003816D02*
X014159Y003816D01*
X014030Y003915D02*
X014337Y003915D01*
X014682Y003915D02*
X014827Y003915D01*
X014799Y004013D02*
X014719Y004013D01*
X016426Y002929D02*
X016522Y002929D01*
X016649Y002919D02*
X016859Y002919D01*
X016886Y002831D02*
X016327Y002831D01*
X016465Y002732D02*
X016176Y002732D01*
X016409Y002679D02*
X016649Y002919D01*
X016716Y002929D02*
X016971Y002929D01*
X017269Y002831D02*
X017301Y002831D01*
X017173Y002732D02*
X019309Y002732D01*
X019309Y002634D02*
X017085Y002634D01*
X016997Y002535D02*
X019309Y002535D01*
X019309Y002436D02*
X016764Y002436D01*
X017638Y002831D02*
X019309Y002831D01*
X019309Y002929D02*
X017766Y002929D01*
X017865Y003028D02*
X019309Y003028D01*
X019309Y003126D02*
X017889Y003126D01*
X017889Y003225D02*
X019309Y003225D01*
X019309Y003323D02*
X019072Y003323D01*
X019269Y003422D02*
X019309Y003422D01*
X019589Y003126D02*
X020290Y003126D01*
X020331Y003028D02*
X019589Y003028D01*
X019589Y002929D02*
X020399Y002929D01*
X020541Y002831D02*
X019589Y002831D01*
X019589Y002535D02*
X020389Y002535D01*
X020310Y002436D02*
X019589Y002436D01*
X019708Y002338D02*
X020268Y002338D01*
X020649Y002436D02*
X020749Y002436D01*
X020749Y002535D02*
X020649Y002535D01*
X020649Y002141D02*
X020749Y002141D01*
X019805Y001845D02*
X019312Y001845D01*
X019399Y001944D02*
X019706Y001944D01*
X019608Y002042D02*
X019399Y002042D01*
X019066Y001845D02*
X018233Y001845D01*
X018193Y001944D02*
X018979Y001944D01*
X018979Y002042D02*
X018152Y002042D01*
X018111Y002141D02*
X019014Y002141D01*
X019309Y002239D02*
X018071Y002239D01*
X018030Y002338D02*
X019309Y002338D01*
X018396Y001451D02*
X022029Y001451D01*
X022029Y001352D02*
X018437Y001352D01*
X018478Y001254D02*
X021605Y001254D01*
X021793Y001254D02*
X022029Y001254D01*
X022029Y001155D02*
X021973Y001155D01*
X019799Y000663D02*
X019780Y000663D01*
X019799Y000564D02*
X019519Y000564D01*
X019499Y000663D02*
X019462Y000663D01*
X019429Y000761D02*
X017514Y000761D01*
X017549Y000663D02*
X019156Y000663D01*
X019099Y000564D02*
X017549Y000564D01*
X017337Y000860D02*
X019429Y000860D01*
X018292Y000958D02*
X017409Y000958D01*
X017409Y001057D02*
X018256Y001057D01*
X018215Y001155D02*
X017913Y001155D01*
X017646Y001155D02*
X017360Y001155D01*
X016732Y001159D02*
X016719Y001146D01*
X016719Y001129D01*
X016717Y001129D01*
X016707Y001139D01*
X016682Y001139D01*
X016660Y001150D01*
X016626Y001139D01*
X016591Y001139D01*
X016574Y001121D01*
X016550Y001113D01*
X016534Y001082D01*
X016271Y000819D01*
X015647Y000819D01*
X015439Y001027D01*
X015377Y001089D01*
X015861Y001089D01*
X015977Y001089D01*
X016047Y001159D01*
X016732Y001159D01*
X016729Y001155D02*
X016044Y001155D01*
X016411Y000958D02*
X015508Y000958D01*
X015409Y001057D02*
X016509Y001057D01*
X016312Y000860D02*
X015606Y000860D01*
X016929Y001451D02*
X017614Y001451D01*
X017944Y001451D02*
X018093Y001451D01*
X018134Y001352D02*
X017989Y001352D01*
X017989Y001254D02*
X018175Y001254D01*
X015422Y002732D02*
X013267Y002732D01*
X013265Y002831D02*
X015271Y002831D01*
X010723Y002141D02*
X009455Y002141D01*
X009554Y002042D02*
X010624Y002042D01*
X008312Y000958D02*
X005899Y000958D01*
X005729Y000958D02*
X005245Y000958D01*
X005315Y000860D02*
X005729Y000860D01*
X005729Y000761D02*
X005349Y000761D01*
X005349Y000663D02*
X005729Y000663D01*
X005899Y000663D02*
X007719Y000663D01*
X007724Y000761D02*
X005899Y000761D01*
X005899Y000860D02*
X007823Y000860D01*
X008035Y000860D02*
X008410Y000860D01*
X008509Y000761D02*
X008134Y000761D01*
X008139Y000663D02*
X010308Y000663D01*
X010406Y000564D02*
X008121Y000564D01*
X007737Y000564D02*
X005899Y000564D01*
X005729Y000564D02*
X005320Y000564D01*
X005259Y000466D02*
X005729Y000466D01*
X004900Y001845D02*
X004739Y001845D01*
X004739Y002141D02*
X005729Y002141D01*
X005729Y002239D02*
X004739Y002239D01*
X004739Y002338D02*
X005729Y002338D01*
X005899Y002338D02*
X005934Y002338D01*
X005934Y002239D02*
X005899Y002239D01*
X005899Y002141D02*
X005995Y002141D01*
X005961Y003028D02*
X005899Y003028D01*
X005899Y003225D02*
X008299Y003225D01*
X008299Y003323D02*
X007641Y003323D01*
X007596Y003279D02*
X007719Y003402D01*
X007719Y003576D01*
X007596Y003699D01*
X007422Y003699D01*
X007299Y003576D01*
X007299Y003402D01*
X007422Y003279D01*
X007596Y003279D01*
X007378Y003323D02*
X005899Y003323D01*
X005899Y003422D02*
X007299Y003422D01*
X007299Y003520D02*
X005899Y003520D01*
X005899Y003619D02*
X007342Y003619D01*
X007676Y003619D02*
X009439Y003619D01*
X009439Y003717D02*
X005899Y003717D01*
X005729Y003717D02*
X004599Y003717D01*
X004599Y003619D02*
X005729Y003619D01*
X005729Y003520D02*
X004599Y003520D01*
X004599Y003422D02*
X005729Y003422D01*
X005729Y003323D02*
X004599Y003323D01*
X004599Y003225D02*
X005729Y003225D01*
X005729Y003816D02*
X004599Y003816D01*
X004599Y003915D02*
X005729Y003915D01*
X005729Y004013D02*
X004599Y004013D01*
X004599Y004112D02*
X005729Y004112D01*
X005729Y004210D02*
X004599Y004210D01*
X004678Y004309D02*
X005729Y004309D01*
X005679Y004407D02*
X004733Y004407D01*
X004739Y004506D02*
X005679Y004506D01*
X005718Y004604D02*
X004739Y004604D01*
X004739Y004703D02*
X005729Y004703D01*
X005729Y004801D02*
X004739Y004801D01*
X004739Y004900D02*
X005729Y004900D01*
X005729Y004999D02*
X004739Y004999D01*
X004739Y005097D02*
X005729Y005097D01*
X005729Y005196D02*
X004739Y005196D01*
X004739Y005294D02*
X005729Y005294D01*
X005729Y005393D02*
X004739Y005393D01*
X004739Y005491D02*
X005729Y005491D01*
X005729Y005590D02*
X004739Y005590D01*
X004739Y005688D02*
X005729Y005688D01*
X005729Y005787D02*
X004739Y005787D01*
X004739Y005885D02*
X005729Y005885D01*
X005729Y005984D02*
X004739Y005984D01*
X004739Y006083D02*
X005729Y006083D01*
X005729Y006181D02*
X004739Y006181D01*
X004739Y006280D02*
X005729Y006280D01*
X005729Y006378D02*
X004739Y006378D01*
X004739Y006477D02*
X005729Y006477D01*
X008469Y004999D02*
X009439Y004999D01*
X009439Y004900D02*
X008089Y004900D01*
X007689Y004900D02*
X007494Y004900D01*
X007494Y004801D02*
X007689Y004801D01*
X007782Y004703D02*
X007401Y004703D01*
X007187Y004703D02*
X005899Y004703D01*
X005899Y004801D02*
X007094Y004801D01*
X007094Y004900D02*
X005899Y004900D01*
X006061Y004604D02*
X009114Y004604D01*
X009156Y004703D02*
X007996Y004703D01*
X008089Y004801D02*
X009439Y004801D01*
X009114Y004506D02*
X006099Y004506D01*
X006258Y004407D02*
X006891Y004407D01*
X006892Y004409D02*
X006769Y004286D01*
X006769Y004112D01*
X006892Y003989D01*
X007066Y003989D01*
X007189Y004112D01*
X007189Y004286D01*
X007066Y004409D01*
X006892Y004409D01*
X007068Y004407D02*
X008131Y004407D01*
X008428Y004407D02*
X008529Y004407D01*
X008816Y004407D02*
X008907Y004407D01*
X009274Y004309D02*
X009439Y004309D01*
X009439Y004210D02*
X009274Y004210D01*
X009244Y004112D02*
X009439Y004112D01*
X009439Y004013D02*
X009280Y004013D01*
X009280Y003915D02*
X009439Y003915D01*
X009439Y003816D02*
X009194Y003816D01*
X008946Y003816D02*
X008911Y003816D01*
X008657Y003816D02*
X005899Y003816D01*
X005899Y003915D02*
X008307Y003915D01*
X008269Y004013D02*
X007090Y004013D01*
X006868Y004013D02*
X005899Y004013D01*
X005899Y004112D02*
X005960Y004112D01*
X006259Y004112D02*
X006770Y004112D01*
X006769Y004210D02*
X006319Y004210D01*
X006319Y004309D02*
X006792Y004309D01*
X007166Y004309D02*
X008069Y004309D01*
X008069Y004210D02*
X007189Y004210D01*
X007189Y004112D02*
X008130Y004112D01*
X008099Y004019D02*
X008324Y003794D01*
X007719Y003520D02*
X009439Y003520D01*
X009439Y003422D02*
X008943Y003422D01*
X008989Y003323D02*
X009439Y003323D01*
X009439Y003225D02*
X008989Y003225D01*
X008365Y003422D02*
X007719Y003422D01*
D17*
X007749Y003209D02*
X008099Y003559D01*
X008359Y003769D01*
X008369Y003819D01*
X008769Y003629D01*
X008999Y003629D01*
X009019Y003649D01*
X009059Y003649D01*
X009419Y004059D01*
X009429Y004099D01*
X009399Y002889D01*
X009559Y002889D01*
X010469Y002709D01*
X011029Y002709D01*
X011209Y002609D01*
X012299Y002609D01*
X012589Y002629D01*
X013409Y002519D01*
X013459Y002599D01*
X012189Y001489D02*
X011629Y002049D01*
X010829Y002049D01*
X010679Y001899D01*
X009499Y001899D01*
X009009Y002389D01*
X009009Y002619D01*
X008929Y002699D01*
X008929Y002969D01*
X008799Y003099D01*
X008679Y003099D01*
X008509Y003269D01*
X007749Y003209D02*
X007749Y002009D01*
X007729Y001989D01*
X007639Y001989D01*
X007299Y001649D01*
X007299Y001589D01*
X007279Y001569D01*
X007279Y001239D01*
X007539Y000979D01*
X007539Y000509D01*
X007609Y000439D01*
X010229Y000439D01*
X010389Y000509D01*
X010729Y000439D02*
X013609Y000439D01*
X013629Y000459D01*
X013649Y000439D01*
X014759Y000439D01*
X014919Y000599D01*
X014929Y000619D01*
X015039Y000729D01*
X015199Y000729D01*
X015489Y000439D01*
X016429Y000439D01*
X016699Y000709D01*
X016899Y000709D01*
X016969Y000639D01*
X017339Y000639D01*
X017049Y000869D02*
X016689Y000869D01*
X016379Y000559D01*
X015539Y000559D01*
X015249Y000849D01*
X014989Y000849D01*
X014869Y000729D01*
X014849Y000729D01*
X014809Y000689D01*
X014809Y000659D01*
X014709Y000559D01*
X014429Y000559D01*
X014409Y000579D01*
X014389Y000559D01*
X013699Y000559D01*
X013589Y000669D01*
X013169Y000669D01*
X012889Y000949D01*
X011139Y000949D01*
X011029Y000839D01*
X010499Y000839D01*
X010349Y000989D01*
X009969Y000989D01*
X009709Y001249D01*
X009259Y001249D01*
X009149Y001139D01*
X008759Y001139D01*
X008329Y001569D01*
X007989Y001479D02*
X008599Y000869D01*
X010299Y000869D01*
X010729Y000439D01*
X011529Y001069D02*
X011339Y001259D01*
X011529Y001069D02*
X012939Y001069D01*
X013219Y000789D01*
X013639Y000789D01*
X013749Y000679D01*
X014019Y000679D01*
X014309Y000969D01*
X015299Y000969D01*
X015589Y000679D01*
X016329Y000679D01*
X016649Y000999D01*
X016669Y000989D01*
X016929Y000989D01*
X016929Y001059D01*
X016929Y000989D02*
X016969Y000989D01*
X016979Y000999D01*
X017049Y000869D02*
X017199Y001019D01*
X017759Y001299D02*
X017779Y001319D01*
X017789Y001329D01*
X017759Y001299D02*
X015989Y001299D01*
X015919Y001229D01*
X013979Y001229D01*
X013859Y001109D01*
X013069Y001109D01*
X012989Y001189D01*
X012149Y001189D01*
X011529Y001809D01*
X010929Y001809D01*
X010779Y001659D01*
X009399Y001659D01*
X008779Y002279D01*
X008499Y002279D01*
X008309Y002089D01*
X008889Y002339D02*
X008889Y002569D01*
X008759Y002699D01*
X008389Y002699D01*
X008199Y002889D01*
X008889Y002339D02*
X009449Y001779D01*
X010729Y001779D01*
X010879Y001929D01*
X011579Y001929D01*
X012199Y001309D01*
X013039Y001309D01*
X013119Y001229D01*
X013809Y001229D01*
X013929Y001349D01*
X015199Y001349D01*
X015459Y001589D01*
X015969Y001589D01*
X015989Y001609D01*
X016119Y001609D01*
X016139Y001599D01*
X016369Y001599D01*
X016489Y001719D01*
X016569Y001719D01*
X016739Y001889D01*
X016809Y001889D01*
X016819Y001879D01*
X016839Y001889D01*
X017339Y001889D01*
X017359Y001869D01*
X017379Y001889D01*
X017429Y001889D01*
X017799Y001759D01*
X017479Y002009D02*
X017659Y002239D01*
X017919Y002239D01*
X018419Y001029D01*
X021519Y001029D01*
X021699Y000849D01*
X020159Y001689D02*
X019629Y002219D01*
X019469Y002219D01*
X019449Y002239D01*
X019449Y003489D01*
X019109Y003829D01*
X019109Y004099D01*
X019109Y003559D02*
X019009Y003459D01*
X017699Y003459D01*
X017099Y002859D01*
X016929Y002669D01*
X016619Y002589D01*
X016399Y002009D02*
X016369Y001979D01*
X016189Y001979D01*
X015919Y001709D01*
X015469Y001709D01*
X015399Y001779D01*
X014189Y001779D01*
X013759Y001349D01*
X013389Y001349D01*
X013249Y001489D01*
X012189Y001489D01*
X016399Y002009D02*
X017479Y002009D01*
X008324Y003794D02*
X008229Y003699D01*
X008219Y003679D01*
X008099Y003559D01*
D18*
X013459Y002899D02*
X013459Y002599D01*
X013459Y002899D02*
X014739Y002899D01*
X015309Y002329D01*
X016409Y002329D01*
X016729Y002329D01*
X016849Y002449D01*
X018009Y002449D01*
X018979Y001479D01*
X019649Y001479D01*
X019689Y001479D01*
X019739Y001429D01*
X020269Y001429D01*
X020429Y001589D01*
X020429Y001709D01*
X020699Y001979D01*
X020699Y002209D01*
X019529Y004149D02*
X019199Y004149D01*
X019109Y004099D01*
X017989Y005219D01*
X017989Y006179D01*
X017949Y006279D01*
X017951Y006279D01*
X017949Y006279D02*
X016539Y006279D01*
X016529Y006289D01*
X016479Y006289D01*
X016369Y006399D01*
X019979Y004859D02*
X020489Y005369D01*
X020539Y005459D01*
X020559Y005459D01*
X021119Y006019D01*
X021119Y006179D01*
X021148Y006281D01*
X021149Y006279D01*
X019979Y004859D02*
X019979Y004559D01*
X019889Y004509D01*
X019529Y004149D01*
M02*
