G75*
G70*
%OFA0B0*%
%FSLAX24Y24*%
%IPPOS*%
%LPD*%
%AMOC8*
5,1,8,0,0,1.08239X$1,22.5*
%
%ADD10C,0.0680*%
%ADD11C,0.1330*%
%ADD12R,0.0560X0.0560*%
%ADD13C,0.0560*%
%ADD14R,0.0356X0.0474*%
%ADD15R,0.0592X0.0671*%
%ADD16R,0.0395X0.0198*%
%ADD17R,0.0198X0.0395*%
%ADD18R,0.0907X0.0907*%
%ADD19R,0.0671X0.0592*%
%ADD20OC8,0.0820*%
%ADD21R,0.0356X0.0434*%
%ADD22R,0.0434X0.0356*%
%ADD23R,0.0178X0.0316*%
%ADD24R,0.0316X0.0178*%
%ADD25R,0.0395X0.0552*%
%ADD26R,0.0237X0.0186*%
%ADD27R,0.0480X0.1080*%
%ADD28R,0.0680X0.0380*%
%ADD29R,0.0395X0.0395*%
%ADD30R,0.0950X0.0320*%
%ADD31R,0.0297X0.0552*%
%ADD32R,0.0680X0.0680*%
%ADD33R,0.0474X0.0552*%
%ADD34R,0.0474X0.0395*%
%ADD35R,0.0395X0.0671*%
%ADD36C,0.0830*%
%ADD37C,0.0580*%
%ADD38C,0.0820*%
D10*
X010199Y003469D03*
X010837Y004498D03*
X013799Y003469D03*
X013014Y006107D03*
D11*
X015799Y003469D03*
D12*
X017949Y006279D03*
X021148Y006281D03*
X014483Y006289D03*
D13*
X013883Y006289D03*
X018549Y006279D03*
X020548Y006281D03*
D14*
X019838Y006073D03*
X019464Y006073D03*
X019090Y006073D03*
X019090Y005050D03*
X019464Y005050D03*
X019838Y005050D03*
D15*
X020599Y005615D03*
X021347Y005615D03*
X018333Y005516D03*
X017585Y005516D03*
X017455Y004279D03*
X018203Y004279D03*
X012783Y003339D03*
X012035Y003339D03*
D16*
X014897Y004846D03*
X014897Y005043D03*
X014897Y005240D03*
X014897Y005437D03*
X014897Y005634D03*
X014897Y005830D03*
X016472Y005830D03*
X016472Y005634D03*
X016472Y005437D03*
X016472Y005240D03*
X016472Y005043D03*
X016472Y004846D03*
D17*
X016177Y004551D03*
X015980Y004551D03*
X015783Y004551D03*
X015586Y004551D03*
X015390Y004551D03*
X015193Y004551D03*
X015193Y006126D03*
X015390Y006126D03*
X015586Y006126D03*
X015783Y006126D03*
X015980Y006126D03*
X016177Y006126D03*
D18*
X015679Y005339D03*
D19*
X014163Y005219D03*
X014163Y004471D03*
X011229Y005525D03*
X011229Y006273D03*
D20*
X020699Y004209D03*
X021699Y004209D03*
X021699Y003209D03*
X020699Y003209D03*
X020699Y002209D03*
X021699Y002209D03*
D21*
X020837Y001252D03*
X020325Y001252D03*
X020324Y000657D03*
X020836Y000657D03*
X011316Y000595D03*
X010804Y000595D03*
X010455Y001079D03*
X009943Y001079D03*
X008794Y000594D03*
X008282Y000594D03*
X007585Y000589D03*
X007073Y000589D03*
X005345Y002139D03*
X004833Y002139D03*
X006428Y005504D03*
X006940Y005504D03*
X005435Y006206D03*
X004923Y006206D03*
X016779Y006331D03*
X017291Y006331D03*
X020391Y004991D03*
X020903Y004991D03*
X018657Y004892D03*
X018146Y004892D03*
D22*
X019924Y002710D03*
X019924Y002198D03*
X019239Y001565D03*
X019239Y001053D03*
X010519Y001623D03*
X009929Y001623D03*
X009929Y002135D03*
X010519Y002135D03*
X005377Y002978D03*
X004729Y002981D03*
X004729Y003493D03*
X005377Y003490D03*
X005064Y004928D03*
X005064Y005440D03*
X011411Y004472D03*
X011411Y003960D03*
D23*
X009066Y004551D03*
X008869Y004551D03*
X008672Y004551D03*
X008475Y004551D03*
X008278Y004551D03*
X008081Y004551D03*
X007884Y004551D03*
X007688Y004551D03*
X007491Y004551D03*
X007294Y004551D03*
X007097Y004551D03*
X006900Y004551D03*
X006703Y004551D03*
X006507Y004551D03*
X006310Y004551D03*
X006113Y004551D03*
X006113Y001007D03*
X006310Y001007D03*
X006507Y001007D03*
X006703Y001007D03*
X006900Y001007D03*
X007097Y001007D03*
X007294Y001007D03*
X007491Y001007D03*
X007688Y001007D03*
X007884Y001007D03*
X008081Y001007D03*
X008278Y001007D03*
X008475Y001007D03*
X008672Y001007D03*
X008869Y001007D03*
X009066Y001007D03*
D24*
X009361Y001303D03*
X009361Y001499D03*
X009361Y001696D03*
X009361Y001893D03*
X009361Y002090D03*
X009361Y002287D03*
X009361Y002484D03*
X009361Y002681D03*
X009361Y002877D03*
X009361Y003074D03*
X009361Y003271D03*
X009361Y003468D03*
X009361Y003665D03*
X009361Y003862D03*
X009361Y004059D03*
X009361Y004255D03*
X005818Y004255D03*
X005818Y004059D03*
X005818Y003862D03*
X005818Y003665D03*
X005818Y003468D03*
X005818Y003271D03*
X005818Y003074D03*
X005818Y002877D03*
X005818Y002681D03*
X005818Y002484D03*
X005818Y002287D03*
X005818Y002090D03*
X005818Y001893D03*
X005818Y001696D03*
X005818Y001499D03*
X005818Y001303D03*
D25*
X005901Y004995D03*
X006609Y004995D03*
D26*
X005359Y004491D03*
X004965Y004491D03*
X004965Y004236D03*
X005359Y004236D03*
X005359Y003980D03*
X004965Y003980D03*
D27*
X003259Y003469D03*
X000659Y003469D03*
D28*
X012097Y002255D03*
X014097Y002255D03*
X014097Y000755D03*
X012097Y000755D03*
D29*
X009918Y000578D03*
X009328Y000578D03*
X009954Y002629D03*
X010544Y002629D03*
D30*
X015733Y002042D03*
X015733Y001542D03*
X015733Y001042D03*
X015733Y000542D03*
X018383Y000542D03*
X018383Y001042D03*
X018383Y001542D03*
X018383Y002042D03*
D31*
X012711Y003974D03*
X011963Y003974D03*
X011963Y004997D03*
X012337Y004997D03*
X012711Y004997D03*
D32*
X010049Y004498D03*
X012227Y006107D03*
D33*
X010586Y005655D03*
X007673Y005655D03*
D34*
X007673Y006364D03*
X010586Y006364D03*
D35*
X009995Y005301D03*
X008814Y005301D03*
X008263Y005301D03*
D36*
X008539Y006049D03*
X009720Y006049D03*
D37*
X004989Y000705D03*
X004989Y001493D03*
X006196Y006169D03*
X006983Y006169D03*
D38*
X021699Y000849D03*
M02*
