G75*
G70*
%OFA0B0*%
%FSLAX24Y24*%
%IPPOS*%
%LPD*%
%AMOC8*
5,1,8,0,0,1.08239X$1,22.5*
%
%ADD10C,0.0480*%
%ADD11C,0.0600*%
%ADD12C,0.0500*%
%ADD13C,0.0750*%
%ADD14C,0.0180*%
%ADD15C,0.0060*%
%ADD16C,0.0200*%
%ADD17C,0.0080*%
%ADD18C,0.0100*%
%ADD19C,0.0200*%
D10*
X017949Y006279D03*
X018549Y006279D03*
X020548Y006281D03*
X021148Y006281D03*
X014483Y006289D03*
X013883Y006289D03*
D11*
X020699Y004209D03*
X021699Y004209D03*
X021699Y003209D03*
X020699Y003209D03*
X020699Y002209D03*
X021699Y002209D03*
X021699Y000849D03*
D12*
X010837Y004498D03*
X010049Y004498D03*
X012227Y006107D03*
X013014Y006107D03*
X006983Y006169D03*
X006196Y006169D03*
X004989Y001493D03*
X004989Y000705D03*
D13*
X008539Y006049D03*
X009720Y006049D03*
D14*
X007889Y004879D03*
X007294Y004879D03*
D15*
X007009Y004879D01*
X006619Y004879D01*
X005924Y005574D01*
X005739Y005759D01*
X004919Y005759D01*
X007294Y004879D02*
X007889Y004879D01*
X011409Y005099D02*
X011409Y005229D01*
X011569Y005389D01*
X011649Y005399D01*
X011839Y005409D01*
X011849Y005399D01*
X011849Y005389D01*
X012799Y005389D01*
X013009Y005599D01*
X013009Y006102D01*
X013014Y006107D01*
X013014Y006064D01*
X013239Y005839D01*
X014469Y005839D01*
X014479Y005849D01*
X014569Y005849D01*
X016979Y005269D02*
X017269Y004979D01*
X017269Y004749D01*
X019639Y003669D02*
X019799Y003839D01*
X020179Y004219D01*
X020689Y004219D01*
X020699Y004209D01*
X019639Y003669D02*
X019349Y003379D01*
X019349Y003039D01*
X019189Y002879D01*
X019189Y002329D01*
X019189Y002019D01*
X019189Y001899D01*
X019229Y001859D01*
X019499Y001859D01*
X019519Y001839D01*
X019559Y001839D01*
X019899Y001499D01*
X019899Y001379D01*
X020009Y001269D01*
X020009Y000649D01*
X019229Y000779D02*
X019179Y000779D01*
X019139Y000739D01*
X010959Y002759D02*
X010624Y002214D01*
X010959Y002759D02*
X010919Y003369D01*
X011609Y004829D02*
X011609Y004899D01*
X011409Y005099D01*
D16*
X011669Y005159D03*
X011839Y005409D03*
X011609Y004829D03*
X013689Y004259D03*
X014509Y004039D03*
X015009Y004029D03*
X015269Y004219D03*
X014699Y004289D03*
X014959Y004609D03*
X016479Y004229D03*
X017239Y003799D03*
X017429Y003599D03*
X017239Y003369D03*
X017679Y003139D03*
X017469Y002959D03*
X016619Y003129D03*
X016619Y002589D03*
X014959Y002309D03*
X014699Y002479D03*
X014779Y001989D03*
X015089Y002039D03*
X016289Y001789D03*
X016719Y001509D03*
X017779Y001319D03*
X017769Y001039D03*
X017199Y001019D03*
X016929Y001059D03*
X016339Y001039D03*
X017339Y000639D03*
X016819Y000519D03*
X015119Y000539D03*
X014619Y000759D03*
X012569Y000759D03*
X011759Y001309D03*
X011339Y001259D03*
X010819Y001059D03*
X009629Y001059D03*
X009069Y001329D03*
X008329Y001569D03*
X007989Y001479D03*
X007489Y001299D03*
X007279Y001569D03*
X006759Y001719D03*
X006609Y001959D03*
X006144Y002289D03*
X005313Y002491D03*
X004840Y002531D03*
X005059Y002739D03*
X004309Y002918D03*
X004309Y003272D03*
X006109Y002879D03*
X007509Y003489D03*
X008359Y003769D03*
X008784Y003986D03*
X009070Y003989D03*
X009649Y003969D03*
X009064Y004268D03*
X008672Y004254D03*
X008279Y004259D03*
X008479Y004039D03*
X008099Y004019D03*
X006979Y004199D03*
X006109Y004259D03*
X005889Y004479D03*
X005609Y004459D03*
X004269Y004138D03*
X005549Y004979D03*
X005510Y005365D03*
X005739Y005759D03*
X005234Y005798D03*
X004919Y005759D03*
X009324Y004574D03*
X010529Y004139D03*
X010919Y003369D03*
X011229Y003359D03*
X011959Y002854D03*
X013459Y002599D03*
X011029Y001619D03*
X009069Y001619D03*
X008799Y001639D03*
X008499Y001889D03*
X008309Y002089D03*
X008699Y002089D03*
X008019Y002289D03*
X008699Y002489D03*
X008029Y002669D03*
X008199Y002889D03*
X008469Y002989D03*
X008739Y002889D03*
X009659Y003159D03*
X008779Y003289D03*
X008509Y003269D03*
X007719Y001799D03*
X006129Y001479D03*
X007929Y000669D03*
X010389Y000509D03*
X014729Y001589D03*
X015119Y001539D03*
X017799Y001759D03*
X017769Y002029D03*
X019189Y002019D03*
X020159Y001689D03*
X019649Y001479D03*
X019639Y000819D03*
X019139Y000739D03*
X019309Y000519D03*
X020009Y000649D03*
X019849Y003399D03*
X019109Y003559D03*
X018319Y003649D03*
X019109Y004099D03*
X019089Y004679D03*
X019439Y004679D03*
X017269Y004749D03*
X016979Y004869D03*
X016979Y005269D03*
X016979Y005649D03*
X016809Y005869D03*
X016369Y006399D03*
X014569Y005849D03*
X019179Y005579D03*
X019439Y005579D03*
X019719Y005579D03*
D17*
X011609Y004829D02*
X011609Y004614D01*
X011579Y004584D01*
X011579Y003074D01*
X011769Y002884D01*
X011959Y002854D01*
X007929Y000859D02*
X007489Y001299D01*
X007209Y001299D01*
X007204Y001304D01*
X006669Y001304D01*
X006564Y001409D01*
X006129Y001479D01*
X006129Y001974D01*
X006144Y002289D01*
X006174Y002289D01*
X006419Y002534D01*
X006419Y003484D01*
X005609Y004294D01*
X005609Y004459D01*
X005549Y004519D01*
X005549Y004979D01*
X005549Y005199D01*
X005924Y005574D01*
X007009Y004879D02*
X007009Y004199D01*
X006979Y004199D01*
X007009Y004199D02*
X007009Y004129D01*
X010619Y000859D02*
X010819Y001059D01*
X010619Y000859D02*
X007929Y000859D01*
X007929Y000669D01*
D18*
X004739Y000964D02*
X004739Y001234D01*
X004785Y001187D01*
X004918Y001133D01*
X005061Y001133D01*
X005193Y001187D01*
X005294Y001289D01*
X005349Y001421D01*
X005349Y001564D01*
X005294Y001697D01*
X005193Y001798D01*
X005061Y001853D01*
X004918Y001853D01*
X004785Y001798D01*
X004739Y001752D01*
X004739Y002421D01*
X004739Y002517D01*
X004703Y002605D01*
X004635Y002672D01*
X004547Y002709D01*
X004191Y002709D01*
X004191Y004229D01*
X004547Y004229D01*
X004635Y004266D01*
X004703Y004333D01*
X004739Y004421D01*
X004739Y004517D01*
X004739Y006479D01*
X006003Y006479D01*
X005992Y006474D01*
X005890Y006373D01*
X005836Y006241D01*
X005836Y006097D01*
X005890Y005965D01*
X005992Y005864D01*
X006124Y005809D01*
X006267Y005809D01*
X006399Y005864D01*
X006501Y005965D01*
X006555Y006097D01*
X006555Y006241D01*
X006501Y006373D01*
X006399Y006474D01*
X006388Y006479D01*
X006791Y006479D01*
X006779Y006474D01*
X006678Y006373D01*
X006623Y006241D01*
X006623Y006097D01*
X006678Y005965D01*
X006779Y005864D01*
X006911Y005809D01*
X007055Y005809D01*
X007187Y005864D01*
X007288Y005965D01*
X007343Y006097D01*
X007343Y006241D01*
X007288Y006373D01*
X007187Y006474D01*
X007175Y006479D01*
X007363Y006479D01*
X007319Y005259D01*
X007339Y005049D01*
X009469Y005169D01*
X009469Y004989D01*
X009489Y004989D01*
X009489Y004706D01*
X009411Y004784D01*
X009237Y004784D01*
X009114Y004661D01*
X009114Y004487D01*
X009123Y004478D01*
X008977Y004478D01*
X008861Y004362D01*
X008759Y004464D01*
X008585Y004464D01*
X008478Y004357D01*
X008366Y004469D01*
X008192Y004469D01*
X008069Y004346D01*
X008069Y004229D01*
X008012Y004229D01*
X007889Y004106D01*
X007889Y003932D01*
X008012Y003809D01*
X008149Y003809D01*
X008149Y003682D01*
X008272Y003559D01*
X008446Y003559D01*
X008569Y003682D01*
X008569Y003832D01*
X008605Y003868D01*
X008697Y003776D01*
X008871Y003776D01*
X008929Y003834D01*
X008983Y003779D01*
X009157Y003779D01*
X009280Y003902D01*
X009280Y004076D01*
X009225Y004131D01*
X009274Y004181D01*
X009274Y004355D01*
X009265Y004364D01*
X009411Y004364D01*
X009489Y004442D01*
X009489Y004106D01*
X009439Y004056D01*
X009439Y003882D01*
X009489Y003832D01*
X009489Y002989D01*
X010052Y002989D01*
X010100Y002969D01*
X010299Y002969D01*
X010347Y002989D01*
X011009Y002989D01*
X011009Y001939D01*
X013169Y001939D01*
X013169Y004389D01*
X013522Y004389D01*
X013479Y004346D01*
X013479Y004172D01*
X013602Y004049D01*
X013776Y004049D01*
X013899Y004172D01*
X013899Y004346D01*
X013856Y004389D01*
X014502Y004389D01*
X014489Y004376D01*
X014489Y004249D01*
X014422Y004249D01*
X014299Y004126D01*
X014299Y003952D01*
X014422Y003829D01*
X014596Y003829D01*
X014719Y003952D01*
X014719Y004079D01*
X014786Y004079D01*
X014799Y004092D01*
X014799Y003942D01*
X014922Y003819D01*
X015051Y003819D01*
X014974Y003633D01*
X014974Y003305D01*
X015100Y003002D01*
X015332Y002770D01*
X015635Y002644D01*
X015963Y002644D01*
X016266Y002770D01*
X016474Y002977D01*
X016532Y002919D01*
X016706Y002919D01*
X016829Y003042D01*
X016829Y003216D01*
X016706Y003339D01*
X016624Y003339D01*
X016624Y003633D01*
X016499Y003936D01*
X016266Y004168D01*
X015999Y004279D01*
X017292Y004279D01*
X017466Y004279D01*
X017576Y004389D01*
X020286Y004389D01*
X020282Y004382D01*
X020260Y004314D01*
X020251Y004259D01*
X020649Y004259D01*
X020649Y004159D01*
X020251Y004159D01*
X020260Y004104D01*
X020282Y004036D01*
X020314Y003973D01*
X020356Y003916D01*
X020406Y003866D01*
X020463Y003824D01*
X020526Y003792D01*
X020594Y003770D01*
X020649Y003761D01*
X020649Y004159D01*
X020749Y004159D01*
X020749Y003761D01*
X020805Y003770D01*
X020872Y003792D01*
X020935Y003824D01*
X020992Y003866D01*
X021042Y003916D01*
X021084Y003973D01*
X021116Y004036D01*
X021138Y004104D01*
X021147Y004159D01*
X020749Y004159D01*
X020749Y004259D01*
X021147Y004259D01*
X021138Y004314D01*
X021116Y004382D01*
X021084Y004445D01*
X021042Y004502D01*
X020992Y004552D01*
X020935Y004594D01*
X020905Y004609D01*
X021594Y004609D01*
X021467Y004557D01*
X021352Y004441D01*
X021289Y004291D01*
X021289Y004127D01*
X021352Y003977D01*
X021467Y003861D01*
X021618Y003799D01*
X021781Y003799D01*
X021931Y003861D01*
X022047Y003977D01*
X022059Y004007D01*
X022059Y003411D01*
X022047Y003441D01*
X021931Y003557D01*
X021781Y003619D01*
X021618Y003619D01*
X021467Y003557D01*
X021352Y003441D01*
X021289Y003291D01*
X021289Y003127D01*
X021352Y002977D01*
X021467Y002861D01*
X021618Y002799D01*
X021781Y002799D01*
X021931Y002861D01*
X022047Y002977D01*
X022059Y003007D01*
X022059Y002411D01*
X022047Y002441D01*
X021931Y002557D01*
X021781Y002619D01*
X021618Y002619D01*
X021467Y002557D01*
X021352Y002441D01*
X021289Y002291D01*
X021289Y002127D01*
X021352Y001977D01*
X021467Y001861D01*
X021618Y001799D01*
X021781Y001799D01*
X021931Y001861D01*
X022047Y001977D01*
X022059Y002007D01*
X022059Y001051D01*
X022047Y001081D01*
X021931Y001197D01*
X021781Y001259D01*
X021618Y001259D01*
X021467Y001197D01*
X021352Y001081D01*
X021289Y000931D01*
X021289Y000767D01*
X021352Y000617D01*
X021467Y000501D01*
X021594Y000449D01*
X019519Y000449D01*
X019519Y000606D01*
X019396Y000729D01*
X019369Y000729D01*
X019369Y000837D01*
X019287Y000919D01*
X019256Y000919D01*
X019226Y000949D01*
X019052Y000949D01*
X018929Y000826D01*
X018929Y000652D01*
X019052Y000529D01*
X019099Y000529D01*
X019099Y000449D01*
X017446Y000449D01*
X017549Y000552D01*
X017549Y000726D01*
X017426Y000849D01*
X017326Y000849D01*
X017409Y000932D01*
X017409Y001106D01*
X017286Y001229D01*
X017112Y001229D01*
X017084Y001201D01*
X017016Y001269D01*
X016842Y001269D01*
X016719Y001146D01*
X016719Y000972D01*
X016842Y000849D01*
X017016Y000849D01*
X017044Y000877D01*
X017112Y000809D01*
X017212Y000809D01*
X017129Y000726D01*
X017129Y000552D01*
X017232Y000449D01*
X017029Y000449D01*
X017029Y000606D01*
X016906Y000729D01*
X016732Y000729D01*
X016609Y000606D01*
X016609Y000449D01*
X015326Y000449D01*
X015329Y000452D01*
X015329Y000626D01*
X015206Y000749D01*
X015032Y000749D01*
X014909Y000626D01*
X014909Y000452D01*
X014912Y000449D01*
X010599Y000449D01*
X010599Y000596D01*
X010476Y000719D01*
X010302Y000719D01*
X010179Y000596D01*
X010179Y000449D01*
X005242Y000449D01*
X005294Y000501D01*
X005349Y000634D01*
X005349Y000777D01*
X005294Y000909D01*
X005193Y001010D01*
X005061Y001065D01*
X004918Y001065D01*
X004785Y001010D01*
X004739Y000964D01*
X004739Y001057D02*
X004897Y001057D01*
X004863Y001155D02*
X004739Y001155D01*
X005081Y001057D02*
X009419Y001057D01*
X009419Y000972D02*
X009542Y000849D01*
X009716Y000849D01*
X009839Y000972D01*
X009839Y001146D01*
X009716Y001269D01*
X009542Y001269D01*
X009419Y001146D01*
X009419Y000972D01*
X009433Y000958D02*
X005245Y000958D01*
X005315Y000860D02*
X009531Y000860D01*
X009727Y000860D02*
X012373Y000860D01*
X012359Y000846D02*
X012359Y000672D01*
X012482Y000549D01*
X012656Y000549D01*
X012779Y000672D01*
X012779Y000846D01*
X012656Y000969D01*
X012482Y000969D01*
X012359Y000846D01*
X012359Y000761D02*
X005349Y000761D01*
X005349Y000663D02*
X010246Y000663D01*
X010532Y000663D02*
X012369Y000663D01*
X012770Y000663D02*
X014419Y000663D01*
X014409Y000672D02*
X014532Y000549D01*
X014706Y000549D01*
X014829Y000672D01*
X014829Y000846D01*
X014706Y000969D01*
X014532Y000969D01*
X014409Y000846D01*
X014409Y000672D01*
X014409Y000761D02*
X012779Y000761D01*
X012765Y000860D02*
X014423Y000860D01*
X014815Y000860D02*
X016221Y000860D01*
X016252Y000829D02*
X016426Y000829D01*
X016549Y000952D01*
X016549Y001126D01*
X016426Y001249D01*
X016252Y001249D01*
X016129Y001126D01*
X016129Y000952D01*
X016252Y000829D01*
X016457Y000860D02*
X016831Y000860D01*
X017027Y000860D02*
X017061Y000860D01*
X017164Y000761D02*
X014829Y000761D01*
X014820Y000663D02*
X014946Y000663D01*
X014909Y000564D02*
X014721Y000564D01*
X014517Y000564D02*
X012671Y000564D01*
X012467Y000564D02*
X010599Y000564D01*
X010599Y000466D02*
X014909Y000466D01*
X015329Y000466D02*
X016609Y000466D01*
X016609Y000564D02*
X015329Y000564D01*
X015292Y000663D02*
X016666Y000663D01*
X016972Y000663D02*
X017129Y000663D01*
X017514Y000761D02*
X018929Y000761D01*
X018929Y000663D02*
X017549Y000663D01*
X017549Y000564D02*
X019017Y000564D01*
X019099Y000466D02*
X017463Y000466D01*
X017216Y000466D02*
X017029Y000466D01*
X017029Y000564D02*
X017129Y000564D01*
X017337Y000860D02*
X017651Y000860D01*
X017682Y000829D02*
X017856Y000829D01*
X017979Y000952D01*
X017979Y001126D01*
X017931Y001174D01*
X017989Y001232D01*
X017989Y001406D01*
X017866Y001529D01*
X017692Y001529D01*
X017569Y001406D01*
X017569Y001232D01*
X017617Y001184D01*
X017559Y001126D01*
X017559Y000952D01*
X017682Y000829D01*
X017887Y000860D02*
X018963Y000860D01*
X019346Y000860D02*
X019429Y000860D01*
X019429Y000906D02*
X019429Y000732D01*
X019552Y000609D01*
X019726Y000609D01*
X019849Y000732D01*
X019849Y000906D01*
X019726Y001029D01*
X019552Y001029D01*
X019429Y000906D01*
X019482Y000958D02*
X017979Y000958D01*
X017979Y001057D02*
X021342Y001057D01*
X021301Y000958D02*
X019797Y000958D01*
X019849Y000860D02*
X021289Y000860D01*
X021292Y000761D02*
X019849Y000761D01*
X019780Y000663D02*
X021333Y000663D01*
X021404Y000564D02*
X019519Y000564D01*
X019519Y000466D02*
X021554Y000466D01*
X022057Y001057D02*
X022059Y001057D01*
X022059Y001155D02*
X021973Y001155D01*
X022059Y001254D02*
X021793Y001254D01*
X021605Y001254D02*
X017989Y001254D01*
X017989Y001352D02*
X019479Y001352D01*
X019439Y001392D02*
X019562Y001269D01*
X019736Y001269D01*
X019859Y001392D01*
X019859Y001566D01*
X019736Y001689D01*
X019562Y001689D01*
X019439Y001566D01*
X019439Y001392D01*
X019439Y001451D02*
X017944Y001451D01*
X017614Y001451D02*
X016929Y001451D01*
X016929Y001422D02*
X016806Y001299D01*
X016632Y001299D01*
X016509Y001422D01*
X016509Y001596D01*
X016632Y001719D01*
X016806Y001719D01*
X016929Y001596D01*
X016929Y001422D01*
X016860Y001352D02*
X017569Y001352D01*
X017569Y001254D02*
X017031Y001254D01*
X016827Y001254D02*
X011969Y001254D01*
X011969Y001222D02*
X011846Y001099D01*
X011672Y001099D01*
X011549Y001222D01*
X011549Y001396D01*
X011672Y001519D01*
X011846Y001519D01*
X011969Y001396D01*
X011969Y001222D01*
X011903Y001155D02*
X016159Y001155D01*
X016129Y001057D02*
X011434Y001057D01*
X011426Y001049D02*
X011549Y001172D01*
X011549Y001346D01*
X011426Y001469D01*
X011252Y001469D01*
X011129Y001346D01*
X011129Y001172D01*
X011252Y001049D01*
X011426Y001049D01*
X011533Y001155D02*
X011616Y001155D01*
X011244Y001057D02*
X009839Y001057D01*
X009830Y001155D02*
X011146Y001155D01*
X010819Y001059D02*
X010819Y002019D01*
X010624Y002214D01*
X009659Y003179D01*
X009659Y003159D01*
X009489Y003126D02*
X008913Y003126D01*
X008866Y003079D02*
X008989Y003202D01*
X008989Y003376D01*
X008866Y003499D01*
X008692Y003499D01*
X008634Y003441D01*
X008596Y003479D01*
X008422Y003479D01*
X008299Y003356D01*
X008299Y003182D01*
X008332Y003149D01*
X008282Y003099D01*
X008112Y003099D01*
X007989Y002976D01*
X007989Y002879D01*
X007942Y002879D01*
X007819Y002756D01*
X007819Y002582D01*
X007917Y002484D01*
X007809Y002376D01*
X007809Y002202D01*
X007932Y002079D01*
X008099Y002079D01*
X008099Y002002D01*
X008222Y001879D01*
X008289Y001879D01*
X008289Y001802D01*
X008312Y001779D01*
X008242Y001779D01*
X008119Y001656D01*
X008119Y001646D01*
X008076Y001689D01*
X007906Y001689D01*
X007929Y001712D01*
X007929Y001886D01*
X007806Y002009D01*
X007632Y002009D01*
X007509Y001886D01*
X007509Y001712D01*
X007632Y001589D01*
X007802Y001589D01*
X007779Y001566D01*
X007779Y001392D01*
X007902Y001269D01*
X008076Y001269D01*
X008199Y001392D01*
X008199Y001402D01*
X008242Y001359D01*
X008416Y001359D01*
X008539Y001482D01*
X008539Y001656D01*
X008516Y001679D01*
X008586Y001679D01*
X008589Y001682D01*
X008589Y001552D01*
X008712Y001429D01*
X008872Y001429D01*
X008859Y001416D01*
X008859Y001242D01*
X008982Y001119D01*
X009156Y001119D01*
X009279Y001242D01*
X009279Y001416D01*
X009221Y001474D01*
X009279Y001532D01*
X009279Y001706D01*
X009156Y001829D01*
X008982Y001829D01*
X008944Y001791D01*
X008886Y001849D01*
X008712Y001849D01*
X008709Y001846D01*
X008709Y001879D01*
X008786Y001879D01*
X008909Y002002D01*
X008909Y002176D01*
X008796Y002289D01*
X008909Y002402D01*
X008909Y002576D01*
X008806Y002679D01*
X008826Y002679D01*
X008949Y002802D01*
X008949Y002976D01*
X008846Y003079D01*
X008866Y003079D01*
X008897Y003028D02*
X009489Y003028D01*
X009489Y003225D02*
X008989Y003225D01*
X008989Y003323D02*
X009489Y003323D01*
X009489Y003422D02*
X008943Y003422D01*
X008365Y003422D02*
X007719Y003422D01*
X007719Y003402D02*
X007596Y003279D01*
X007422Y003279D01*
X007299Y003402D01*
X007299Y003576D01*
X007422Y003699D01*
X007596Y003699D01*
X007719Y003576D01*
X007719Y003402D01*
X007641Y003323D02*
X008299Y003323D01*
X008299Y003225D02*
X004191Y003225D01*
X004191Y003323D02*
X007378Y003323D01*
X007299Y003422D02*
X004191Y003422D01*
X004191Y003520D02*
X007299Y003520D01*
X007342Y003619D02*
X004191Y003619D01*
X004191Y003717D02*
X008149Y003717D01*
X008212Y003619D02*
X007676Y003619D01*
X007719Y003520D02*
X009489Y003520D01*
X009489Y003619D02*
X008506Y003619D01*
X008569Y003717D02*
X009489Y003717D01*
X009699Y003717D02*
X009761Y003717D01*
X009775Y003752D02*
X009699Y003568D01*
X009699Y003369D01*
X009699Y003759D01*
X009736Y003759D01*
X009859Y003882D01*
X009859Y004056D01*
X009736Y004179D01*
X009699Y004179D01*
X009699Y004403D01*
X009744Y004294D01*
X009846Y004192D01*
X009978Y004138D01*
X010121Y004138D01*
X010253Y004192D01*
X010355Y004294D01*
X010409Y004426D01*
X010409Y004569D01*
X010355Y004702D01*
X010253Y004803D01*
X010121Y004858D01*
X009978Y004858D01*
X009846Y004803D01*
X009744Y004702D01*
X009699Y004593D01*
X009699Y005379D01*
X007729Y005349D01*
X007759Y005439D01*
X007768Y006479D01*
X008309Y006479D01*
X008264Y006460D01*
X008127Y006324D01*
X008054Y006145D01*
X008054Y005952D01*
X008127Y005774D01*
X008264Y005638D01*
X008442Y005564D01*
X008635Y005564D01*
X008813Y005638D01*
X008950Y005774D01*
X009024Y005952D01*
X009024Y006145D01*
X008950Y006324D01*
X008813Y006460D01*
X008768Y006479D01*
X009491Y006479D01*
X009445Y006460D01*
X009309Y006324D01*
X009235Y006145D01*
X009235Y005952D01*
X009309Y005774D01*
X009445Y005638D01*
X009623Y005564D01*
X009816Y005564D01*
X009994Y005638D01*
X010131Y005774D01*
X010205Y005952D01*
X010205Y006145D01*
X010131Y006324D01*
X009994Y006460D01*
X009949Y006479D01*
X012868Y006479D01*
X012825Y006461D01*
X012759Y006417D01*
X012703Y006362D01*
X012660Y006296D01*
X012629Y006223D01*
X012614Y006146D01*
X012614Y006132D01*
X012989Y006132D01*
X012989Y006082D01*
X012614Y006082D01*
X012614Y006067D01*
X012629Y005990D01*
X012660Y005917D01*
X012703Y005852D01*
X012759Y005796D01*
X012825Y005752D01*
X012897Y005722D01*
X012975Y005707D01*
X012989Y005707D01*
X012989Y006081D01*
X013039Y006081D01*
X013039Y005707D01*
X013053Y005707D01*
X013131Y005722D01*
X013203Y005752D01*
X013269Y005796D01*
X013325Y005852D01*
X013368Y005917D01*
X013399Y005990D01*
X013414Y006067D01*
X013414Y006082D01*
X013039Y006082D01*
X013039Y006132D01*
X013414Y006132D01*
X013414Y006146D01*
X013399Y006223D01*
X013368Y006296D01*
X013325Y006362D01*
X013269Y006417D01*
X013203Y006461D01*
X013160Y006479D01*
X013583Y006479D01*
X013533Y006359D01*
X013533Y006219D01*
X013586Y006091D01*
X013684Y005992D01*
X013813Y005939D01*
X013952Y005939D01*
X014081Y005992D01*
X014179Y006091D01*
X014183Y006099D01*
X014186Y006091D01*
X014284Y005992D01*
X014413Y005939D01*
X014552Y005939D01*
X014681Y005992D01*
X014779Y006091D01*
X014833Y006219D01*
X014833Y006359D01*
X014783Y006479D01*
X016159Y006479D01*
X016159Y006312D01*
X016282Y006189D01*
X016456Y006189D01*
X016579Y006312D01*
X016579Y006479D01*
X017654Y006479D01*
X017652Y006477D01*
X016579Y006477D01*
X016579Y006378D02*
X017611Y006378D01*
X017599Y006349D02*
X017599Y006209D01*
X017652Y006081D01*
X017751Y005982D01*
X017880Y005929D01*
X018019Y005929D01*
X018147Y005982D01*
X018246Y006081D01*
X018249Y006089D01*
X018252Y006081D01*
X018351Y005982D01*
X018480Y005929D01*
X018619Y005929D01*
X018747Y005982D01*
X018846Y006081D01*
X018899Y006209D01*
X018899Y006349D01*
X018846Y006477D01*
X018844Y006479D01*
X020251Y006479D01*
X020251Y006479D01*
X020198Y006350D01*
X020198Y006211D01*
X020251Y006082D01*
X020349Y005984D01*
X018749Y005984D01*
X018847Y006083D02*
X020251Y006083D01*
X020210Y006181D02*
X018887Y006181D01*
X018899Y006280D02*
X020198Y006280D01*
X020209Y006378D02*
X018887Y006378D01*
X018846Y006477D02*
X020250Y006477D01*
X020746Y005984D02*
X020844Y006082D01*
X020848Y006090D01*
X020851Y006082D01*
X020949Y005984D01*
X020746Y005984D01*
X020617Y005931D01*
X020478Y005931D01*
X020349Y005984D01*
X020844Y006083D02*
X020851Y006083D01*
X020949Y005984D02*
X021078Y005931D01*
X021217Y005931D01*
X021346Y005984D01*
X022059Y005984D01*
X022059Y005885D02*
X017019Y005885D01*
X017019Y005859D02*
X017019Y005956D01*
X016896Y006079D01*
X016722Y006079D01*
X016599Y005956D01*
X016599Y005782D01*
X016722Y005659D01*
X016769Y005659D01*
X016769Y005562D01*
X016872Y005459D01*
X016769Y005356D01*
X016769Y005182D01*
X016882Y005069D01*
X016769Y004956D01*
X016769Y004782D01*
X016784Y004768D01*
X012919Y004709D01*
X012919Y002210D01*
X011976Y002150D01*
X011209Y002251D01*
X011209Y003179D01*
X011072Y003179D01*
X011069Y003222D01*
X011129Y003282D01*
X011129Y003456D01*
X011006Y003579D01*
X010832Y003579D01*
X010709Y003456D01*
X010709Y003282D01*
X010790Y003201D01*
X010791Y003179D01*
X010616Y003179D01*
X010623Y003186D01*
X010699Y003369D01*
X010699Y003568D01*
X010623Y003752D01*
X010482Y003893D01*
X010299Y003969D01*
X010100Y003969D01*
X009916Y003893D01*
X009775Y003752D01*
X009793Y003816D02*
X009839Y003816D01*
X009859Y003915D02*
X009968Y003915D01*
X009859Y004013D02*
X010358Y004013D01*
X010319Y004052D02*
X010442Y003929D01*
X010616Y003929D01*
X010739Y004052D01*
X010739Y004109D01*
X010797Y004098D01*
X010812Y004098D01*
X010812Y004472D01*
X010862Y004472D01*
X010862Y004098D01*
X010876Y004098D01*
X010954Y004113D01*
X011026Y004143D01*
X011092Y004187D01*
X011148Y004243D01*
X011191Y004308D01*
X011221Y004381D01*
X011237Y004458D01*
X011237Y004473D01*
X010862Y004473D01*
X010862Y004523D01*
X010812Y004523D01*
X010812Y004898D01*
X010797Y004898D01*
X010720Y004882D01*
X010647Y004852D01*
X010582Y004808D01*
X010526Y004753D01*
X010482Y004687D01*
X010452Y004614D01*
X010437Y004537D01*
X010437Y004523D01*
X010812Y004523D01*
X010812Y004473D01*
X010437Y004473D01*
X010437Y004458D01*
X010452Y004381D01*
X010465Y004349D01*
X010442Y004349D01*
X010319Y004226D01*
X010319Y004052D01*
X010319Y004112D02*
X009803Y004112D01*
X009828Y004210D02*
X009699Y004210D01*
X009699Y004309D02*
X009738Y004309D01*
X009489Y004309D02*
X009274Y004309D01*
X009274Y004210D02*
X009489Y004210D01*
X009489Y004112D02*
X009244Y004112D01*
X009280Y004013D02*
X009439Y004013D01*
X009439Y003915D02*
X009280Y003915D01*
X009194Y003816D02*
X009489Y003816D01*
X009699Y003619D02*
X009720Y003619D01*
X009699Y003369D02*
X009699Y003369D01*
X009699Y003369D01*
X010639Y003225D02*
X010766Y003225D01*
X010709Y003323D02*
X010680Y003323D01*
X010699Y003422D02*
X010709Y003422D01*
X010699Y003520D02*
X010774Y003520D01*
X010678Y003619D02*
X012919Y003619D01*
X012919Y003717D02*
X010637Y003717D01*
X010559Y003816D02*
X012919Y003816D01*
X012919Y003915D02*
X010430Y003915D01*
X010700Y004013D02*
X012919Y004013D01*
X013169Y004013D02*
X014299Y004013D01*
X014337Y003915D02*
X014030Y003915D01*
X014082Y003893D02*
X013899Y003969D01*
X013700Y003969D01*
X013516Y003893D01*
X013375Y003752D01*
X013299Y003568D01*
X013299Y003369D01*
X013375Y003186D01*
X013516Y003045D01*
X013700Y002969D01*
X013899Y002969D01*
X014082Y003045D01*
X014223Y003186D01*
X014299Y003369D01*
X014299Y003568D01*
X014223Y003752D01*
X014082Y003893D01*
X014159Y003816D02*
X015050Y003816D01*
X014827Y003915D02*
X014682Y003915D01*
X014719Y004013D02*
X014799Y004013D01*
X014299Y004112D02*
X013839Y004112D01*
X013899Y004210D02*
X014383Y004210D01*
X014489Y004309D02*
X013899Y004309D01*
X013540Y004112D02*
X013169Y004112D01*
X013169Y004210D02*
X013479Y004210D01*
X013479Y004309D02*
X013169Y004309D01*
X012919Y004309D02*
X011192Y004309D01*
X011115Y004210D02*
X012919Y004210D01*
X012919Y004112D02*
X010947Y004112D01*
X010862Y004112D02*
X010812Y004112D01*
X010812Y004210D02*
X010862Y004210D01*
X010862Y004309D02*
X010812Y004309D01*
X010812Y004407D02*
X010862Y004407D01*
X010862Y004506D02*
X012919Y004506D01*
X012919Y004407D02*
X011227Y004407D01*
X011237Y004523D02*
X010862Y004523D01*
X010862Y004898D01*
X010876Y004898D01*
X010954Y004882D01*
X011026Y004852D01*
X011092Y004808D01*
X011148Y004753D01*
X011191Y004687D01*
X011221Y004614D01*
X011237Y004537D01*
X011237Y004523D01*
X011223Y004604D02*
X012919Y004604D01*
X012919Y004703D02*
X011181Y004703D01*
X011099Y004801D02*
X016769Y004801D01*
X016769Y004900D02*
X009699Y004900D01*
X009699Y004999D02*
X011533Y004999D01*
X011582Y004949D02*
X011459Y005072D01*
X011459Y005246D01*
X011582Y005369D01*
X011756Y005369D01*
X011879Y005246D01*
X011879Y005072D01*
X011756Y004949D01*
X011582Y004949D01*
X011806Y004999D02*
X016812Y004999D01*
X016854Y005097D02*
X011879Y005097D01*
X011879Y005196D02*
X016769Y005196D01*
X016769Y005294D02*
X011831Y005294D01*
X011507Y005294D02*
X009699Y005294D01*
X009699Y005196D02*
X011459Y005196D01*
X011459Y005097D02*
X009699Y005097D01*
X009469Y005097D02*
X008193Y005097D01*
X007744Y005393D02*
X016806Y005393D01*
X016840Y005491D02*
X007760Y005491D01*
X007760Y005590D02*
X008380Y005590D01*
X008213Y005688D02*
X007761Y005688D01*
X007762Y005787D02*
X008122Y005787D01*
X008081Y005885D02*
X007763Y005885D01*
X007764Y005984D02*
X008054Y005984D01*
X008054Y006083D02*
X007765Y006083D01*
X007766Y006181D02*
X008068Y006181D01*
X008109Y006280D02*
X007766Y006280D01*
X007767Y006378D02*
X008182Y006378D01*
X008304Y006477D02*
X007768Y006477D01*
X007363Y006477D02*
X007181Y006477D01*
X007283Y006378D02*
X007360Y006378D01*
X007356Y006280D02*
X007327Y006280D01*
X007343Y006181D02*
X007353Y006181D01*
X007349Y006083D02*
X007337Y006083D01*
X007345Y005984D02*
X007296Y005984D01*
X007342Y005885D02*
X007208Y005885D01*
X007338Y005787D02*
X004739Y005787D01*
X004739Y005885D02*
X005970Y005885D01*
X005882Y005984D02*
X004739Y005984D01*
X004739Y006083D02*
X005842Y006083D01*
X005836Y006181D02*
X004739Y006181D01*
X004739Y006280D02*
X005852Y006280D01*
X005896Y006378D02*
X004739Y006378D01*
X004739Y006477D02*
X005998Y006477D01*
X006393Y006477D02*
X006785Y006477D01*
X006683Y006378D02*
X006495Y006378D01*
X006539Y006280D02*
X006639Y006280D01*
X006623Y006181D02*
X006555Y006181D01*
X006549Y006083D02*
X006629Y006083D01*
X006670Y005984D02*
X006509Y005984D01*
X006421Y005885D02*
X006757Y005885D01*
X007335Y005688D02*
X004739Y005688D01*
X004739Y005590D02*
X007331Y005590D01*
X007328Y005491D02*
X004739Y005491D01*
X004739Y005393D02*
X007324Y005393D01*
X007321Y005294D02*
X004739Y005294D01*
X004739Y005196D02*
X007325Y005196D01*
X007335Y005097D02*
X004739Y005097D01*
X004739Y004999D02*
X009469Y004999D01*
X009489Y004900D02*
X004739Y004900D01*
X004739Y004801D02*
X009489Y004801D01*
X009699Y004801D02*
X009844Y004801D01*
X009746Y004703D02*
X009699Y004703D01*
X009699Y004604D02*
X009704Y004604D01*
X010255Y004801D02*
X010575Y004801D01*
X010493Y004703D02*
X010353Y004703D01*
X010395Y004604D02*
X010450Y004604D01*
X010409Y004506D02*
X010812Y004506D01*
X010812Y004604D02*
X010862Y004604D01*
X010862Y004703D02*
X010812Y004703D01*
X010812Y004801D02*
X010862Y004801D01*
X010447Y004407D02*
X010402Y004407D01*
X010402Y004309D02*
X010361Y004309D01*
X010319Y004210D02*
X010271Y004210D01*
X009489Y004407D02*
X009454Y004407D01*
X009114Y004506D02*
X006099Y004506D01*
X006099Y004469D02*
X006099Y004566D01*
X005976Y004689D01*
X005802Y004689D01*
X005679Y004566D01*
X005679Y004392D01*
X005802Y004269D01*
X005899Y004269D01*
X005899Y004172D01*
X006022Y004049D01*
X006196Y004049D01*
X006319Y004172D01*
X006319Y004346D01*
X006196Y004469D01*
X006099Y004469D01*
X006258Y004407D02*
X008131Y004407D01*
X008428Y004407D02*
X008529Y004407D01*
X008816Y004407D02*
X008907Y004407D01*
X009114Y004604D02*
X006061Y004604D01*
X005718Y004604D02*
X004739Y004604D01*
X004739Y004703D02*
X009156Y004703D01*
X008069Y004309D02*
X006319Y004309D01*
X006319Y004210D02*
X007993Y004210D01*
X007895Y004112D02*
X006259Y004112D01*
X005960Y004112D02*
X004191Y004112D01*
X004191Y004210D02*
X005899Y004210D01*
X005762Y004309D02*
X004678Y004309D01*
X004733Y004407D02*
X005679Y004407D01*
X005679Y004506D02*
X004739Y004506D01*
X004191Y004013D02*
X007889Y004013D01*
X007907Y003915D02*
X004191Y003915D01*
X004191Y003816D02*
X008005Y003816D01*
X008569Y003816D02*
X008657Y003816D01*
X008911Y003816D02*
X008946Y003816D01*
X008309Y003126D02*
X004191Y003126D01*
X004191Y003028D02*
X005961Y003028D01*
X006022Y003089D02*
X005899Y002966D01*
X005899Y002792D01*
X006022Y002669D01*
X006196Y002669D01*
X006319Y002792D01*
X006319Y002966D01*
X006196Y003089D01*
X006022Y003089D01*
X006257Y003028D02*
X008041Y003028D01*
X007989Y002929D02*
X006319Y002929D01*
X006319Y002831D02*
X007894Y002831D01*
X007819Y002732D02*
X006259Y002732D01*
X005959Y002732D02*
X005269Y002732D01*
X005269Y002652D02*
X005146Y002529D01*
X004972Y002529D01*
X004849Y002652D01*
X004849Y002826D01*
X004972Y002949D01*
X005146Y002949D01*
X005269Y002826D01*
X005269Y002652D01*
X005251Y002634D02*
X007819Y002634D01*
X007866Y002535D02*
X005152Y002535D01*
X004966Y002535D02*
X004732Y002535D01*
X004739Y002436D02*
X007870Y002436D01*
X007809Y002338D02*
X004739Y002338D01*
X004739Y002239D02*
X007809Y002239D01*
X007870Y002141D02*
X006724Y002141D01*
X006696Y002169D02*
X006522Y002169D01*
X006399Y002046D01*
X006399Y001872D01*
X006522Y001749D01*
X006549Y001749D01*
X006549Y001632D01*
X006672Y001509D01*
X006846Y001509D01*
X006969Y001632D01*
X006969Y001806D01*
X006846Y001929D01*
X006819Y001929D01*
X006819Y002046D01*
X006696Y002169D01*
X006494Y002141D02*
X004739Y002141D01*
X004739Y002042D02*
X006399Y002042D01*
X006399Y001944D02*
X004739Y001944D01*
X004739Y001845D02*
X004900Y001845D01*
X005079Y001845D02*
X006426Y001845D01*
X006549Y001747D02*
X005244Y001747D01*
X005314Y001648D02*
X006549Y001648D01*
X006632Y001550D02*
X005349Y001550D01*
X005349Y001451D02*
X007100Y001451D01*
X007069Y001482D02*
X007192Y001359D01*
X007366Y001359D01*
X007489Y001482D01*
X007489Y001656D01*
X007366Y001779D01*
X007192Y001779D01*
X007069Y001656D01*
X007069Y001482D01*
X007069Y001550D02*
X006887Y001550D01*
X006969Y001648D02*
X007069Y001648D01*
X007160Y001747D02*
X006969Y001747D01*
X007399Y001747D02*
X007509Y001747D01*
X007489Y001648D02*
X007573Y001648D01*
X007489Y001550D02*
X007779Y001550D01*
X007779Y001451D02*
X007458Y001451D01*
X007819Y001352D02*
X005321Y001352D01*
X005260Y001254D02*
X008859Y001254D01*
X008859Y001352D02*
X008160Y001352D01*
X008508Y001451D02*
X008690Y001451D01*
X008592Y001550D02*
X008539Y001550D01*
X008539Y001648D02*
X008589Y001648D01*
X008210Y001747D02*
X007929Y001747D01*
X008117Y001648D02*
X008119Y001648D01*
X008289Y001845D02*
X007929Y001845D01*
X007871Y001944D02*
X008157Y001944D01*
X008099Y002042D02*
X006819Y002042D01*
X006819Y001944D02*
X007567Y001944D01*
X007509Y001845D02*
X006930Y001845D01*
X008851Y001944D02*
X011009Y001944D01*
X011009Y002042D02*
X008909Y002042D01*
X008909Y002141D02*
X011009Y002141D01*
X011009Y002239D02*
X008846Y002239D01*
X008845Y002338D02*
X011009Y002338D01*
X011209Y002338D02*
X012919Y002338D01*
X012919Y002239D02*
X011298Y002239D01*
X011209Y002436D02*
X012919Y002436D01*
X012919Y002535D02*
X011209Y002535D01*
X011009Y002535D02*
X008909Y002535D01*
X008909Y002436D02*
X011009Y002436D01*
X011009Y002634D02*
X008852Y002634D01*
X008879Y002732D02*
X011009Y002732D01*
X011009Y002831D02*
X008949Y002831D01*
X008949Y002929D02*
X011009Y002929D01*
X011209Y002929D02*
X012919Y002929D01*
X012919Y003028D02*
X011209Y003028D01*
X011209Y003126D02*
X012919Y003126D01*
X013169Y003126D02*
X013435Y003126D01*
X013558Y003028D02*
X013169Y003028D01*
X013169Y002929D02*
X015172Y002929D01*
X015089Y003028D02*
X014040Y003028D01*
X014164Y003126D02*
X015048Y003126D01*
X015007Y003225D02*
X014239Y003225D01*
X014280Y003323D02*
X014974Y003323D01*
X014974Y003422D02*
X014299Y003422D01*
X014299Y003520D02*
X014974Y003520D01*
X014974Y003619D02*
X014278Y003619D01*
X014237Y003717D02*
X015009Y003717D01*
X016323Y004112D02*
X018899Y004112D01*
X018899Y004186D02*
X018899Y004012D01*
X019022Y003889D01*
X019196Y003889D01*
X019319Y004012D01*
X019319Y004186D01*
X019196Y004309D01*
X019022Y004309D01*
X018899Y004186D01*
X018923Y004210D02*
X016165Y004210D01*
X016389Y004209D02*
X016444Y004264D01*
X016479Y004229D01*
X016444Y004264D02*
X016459Y004279D01*
X017059Y004279D01*
X017929Y003409D01*
X017929Y003359D01*
X017959Y003319D01*
X017959Y002329D01*
X017856Y002239D02*
X017682Y002239D01*
X017559Y002116D01*
X017559Y001942D01*
X017622Y001879D01*
X017589Y001846D01*
X017589Y001672D01*
X017712Y001549D01*
X017886Y001549D01*
X018009Y001672D01*
X018009Y001846D01*
X017946Y001909D01*
X017979Y001942D01*
X017979Y002116D01*
X017856Y002239D01*
X017954Y002141D02*
X020289Y002141D01*
X020289Y002127D02*
X020352Y001977D01*
X020467Y001861D01*
X020618Y001799D01*
X020781Y001799D01*
X020931Y001861D01*
X021047Y001977D01*
X021109Y002127D01*
X021109Y002291D01*
X021047Y002441D01*
X020931Y002557D01*
X020781Y002619D01*
X020618Y002619D01*
X020467Y002557D01*
X020352Y002441D01*
X020289Y002291D01*
X020289Y002127D01*
X020289Y002239D02*
X015186Y002239D01*
X015176Y002249D02*
X015169Y002249D01*
X015169Y002396D01*
X015046Y002519D01*
X014909Y002519D01*
X014909Y002566D01*
X014786Y002689D01*
X014612Y002689D01*
X014489Y002566D01*
X014489Y002392D01*
X014612Y002269D01*
X014749Y002269D01*
X014749Y002222D01*
X014772Y002199D01*
X014692Y002199D01*
X014569Y002076D01*
X014569Y001902D01*
X014672Y001799D01*
X014642Y001799D01*
X014519Y001676D01*
X014519Y001502D01*
X014642Y001379D01*
X014816Y001379D01*
X014909Y001472D01*
X014909Y001452D01*
X015032Y001329D01*
X015206Y001329D01*
X015329Y001452D01*
X015329Y001626D01*
X015206Y001749D01*
X015032Y001749D01*
X014939Y001656D01*
X014939Y001676D01*
X014836Y001779D01*
X014866Y001779D01*
X014959Y001872D01*
X015002Y001829D01*
X015176Y001829D01*
X015299Y001952D01*
X015299Y002126D01*
X015176Y002249D01*
X015169Y002338D02*
X020309Y002338D01*
X020350Y002436D02*
X016764Y002436D01*
X016706Y002379D02*
X016532Y002379D01*
X016409Y002502D01*
X016409Y002676D01*
X016532Y002799D01*
X016706Y002799D01*
X016829Y002676D01*
X016829Y002502D01*
X016706Y002379D01*
X016475Y002436D02*
X015129Y002436D01*
X014909Y002535D02*
X016409Y002535D01*
X016829Y002535D02*
X020445Y002535D01*
X020953Y002535D02*
X021445Y002535D01*
X021350Y002436D02*
X021049Y002436D01*
X021090Y002338D02*
X021309Y002338D01*
X021289Y002239D02*
X021109Y002239D01*
X021109Y002141D02*
X021289Y002141D01*
X021324Y002042D02*
X021074Y002042D01*
X021014Y001944D02*
X021385Y001944D01*
X021506Y001845D02*
X020892Y001845D01*
X020506Y001845D02*
X020300Y001845D01*
X020246Y001899D02*
X020072Y001899D01*
X019949Y001776D01*
X019949Y001602D01*
X020072Y001479D01*
X020246Y001479D01*
X020369Y001602D01*
X020369Y001776D01*
X020246Y001899D01*
X020385Y001944D02*
X017979Y001944D01*
X017979Y002042D02*
X020324Y002042D01*
X020018Y001845D02*
X018009Y001845D01*
X018009Y001747D02*
X019949Y001747D01*
X019949Y001648D02*
X019777Y001648D01*
X019859Y001550D02*
X020002Y001550D01*
X020317Y001550D02*
X022059Y001550D01*
X022059Y001648D02*
X020369Y001648D01*
X020369Y001747D02*
X022059Y001747D01*
X022059Y001845D02*
X021892Y001845D01*
X022014Y001944D02*
X022059Y001944D01*
X022049Y002436D02*
X022059Y002436D01*
X022059Y002535D02*
X021953Y002535D01*
X022059Y002634D02*
X016829Y002634D01*
X016773Y002732D02*
X022059Y002732D01*
X022059Y002831D02*
X021857Y002831D01*
X021999Y002929D02*
X022059Y002929D01*
X021541Y002831D02*
X020857Y002831D01*
X020931Y002861D02*
X020781Y002799D01*
X020618Y002799D01*
X020467Y002861D01*
X020352Y002977D01*
X020289Y003127D01*
X020289Y003291D01*
X020352Y003441D01*
X020467Y003557D01*
X020618Y003619D01*
X020781Y003619D01*
X020931Y003557D01*
X021047Y003441D01*
X021109Y003291D01*
X021109Y003127D01*
X021047Y002977D01*
X020931Y002861D01*
X020999Y002929D02*
X021399Y002929D01*
X021331Y003028D02*
X021068Y003028D01*
X021109Y003126D02*
X021290Y003126D01*
X021289Y003225D02*
X021109Y003225D01*
X021096Y003323D02*
X021303Y003323D01*
X021344Y003422D02*
X021055Y003422D01*
X020968Y003520D02*
X021431Y003520D01*
X021968Y003520D02*
X022059Y003520D01*
X022059Y003619D02*
X019319Y003619D01*
X019319Y003646D02*
X019196Y003769D01*
X019022Y003769D01*
X018899Y003646D01*
X018899Y003472D01*
X019022Y003349D01*
X019196Y003349D01*
X019319Y003472D01*
X019319Y003646D01*
X019248Y003717D02*
X022059Y003717D01*
X022059Y003816D02*
X021822Y003816D01*
X021985Y003915D02*
X022059Y003915D01*
X021576Y003816D02*
X020919Y003816D01*
X021041Y003915D02*
X021414Y003915D01*
X021337Y004013D02*
X021104Y004013D01*
X020749Y004013D02*
X020649Y004013D01*
X020649Y003915D02*
X020749Y003915D01*
X020749Y003816D02*
X020649Y003816D01*
X020479Y003816D02*
X018449Y003816D01*
X018406Y003859D02*
X018529Y003736D01*
X018529Y003562D01*
X018406Y003439D01*
X018232Y003439D01*
X018109Y003562D01*
X018109Y003736D01*
X018232Y003859D01*
X018406Y003859D01*
X018189Y003816D02*
X017449Y003816D01*
X017449Y003809D02*
X017449Y003886D01*
X017326Y004009D01*
X017152Y004009D01*
X017029Y003886D01*
X017029Y003712D01*
X017152Y003589D01*
X017219Y003589D01*
X017219Y003579D01*
X017152Y003579D01*
X017029Y003456D01*
X017029Y003282D01*
X017152Y003159D01*
X017326Y003159D01*
X017449Y003282D01*
X017449Y003389D01*
X017516Y003389D01*
X017639Y003512D01*
X017639Y003686D01*
X017516Y003809D01*
X017449Y003809D01*
X017421Y003915D02*
X018997Y003915D01*
X018899Y004013D02*
X016422Y004013D01*
X016508Y003915D02*
X017058Y003915D01*
X017029Y003816D02*
X016548Y003816D01*
X016589Y003717D02*
X017029Y003717D01*
X017122Y003619D02*
X016624Y003619D01*
X016624Y003520D02*
X017094Y003520D01*
X017029Y003422D02*
X016624Y003422D01*
X016722Y003323D02*
X017029Y003323D01*
X017086Y003225D02*
X016820Y003225D01*
X016829Y003126D02*
X017339Y003126D01*
X017382Y003169D02*
X017259Y003046D01*
X017259Y002872D01*
X017382Y002749D01*
X017556Y002749D01*
X017679Y002872D01*
X017679Y002929D01*
X017766Y002929D01*
X017889Y003052D01*
X017889Y003226D01*
X017766Y003349D01*
X017592Y003349D01*
X017469Y003226D01*
X017469Y003169D01*
X017382Y003169D01*
X017392Y003225D02*
X017469Y003225D01*
X017449Y003323D02*
X017567Y003323D01*
X017549Y003422D02*
X018949Y003422D01*
X019269Y003422D02*
X019639Y003422D01*
X019639Y003486D02*
X019639Y003312D01*
X019762Y003189D01*
X019936Y003189D01*
X020059Y003312D01*
X020059Y003486D01*
X019936Y003609D01*
X019762Y003609D01*
X019639Y003486D01*
X019674Y003520D02*
X019319Y003520D01*
X018899Y003520D02*
X018488Y003520D01*
X018529Y003619D02*
X018899Y003619D01*
X018971Y003717D02*
X018529Y003717D01*
X018109Y003717D02*
X017608Y003717D01*
X017639Y003619D02*
X018109Y003619D01*
X018151Y003520D02*
X017639Y003520D01*
X017792Y003323D02*
X019639Y003323D01*
X019726Y003225D02*
X017889Y003225D01*
X017889Y003126D02*
X020290Y003126D01*
X020331Y003028D02*
X017865Y003028D01*
X017766Y002929D02*
X020399Y002929D01*
X020541Y002831D02*
X017638Y002831D01*
X017301Y002831D02*
X016327Y002831D01*
X016465Y002732D02*
X016176Y002732D01*
X016409Y002634D02*
X014842Y002634D01*
X014557Y002634D02*
X013669Y002634D01*
X013669Y002686D02*
X013546Y002809D01*
X013372Y002809D01*
X013249Y002686D01*
X013249Y002512D01*
X013372Y002389D01*
X013546Y002389D01*
X013669Y002512D01*
X013669Y002686D01*
X013623Y002732D02*
X015422Y002732D01*
X015271Y002831D02*
X013169Y002831D01*
X013169Y002732D02*
X013295Y002732D01*
X013249Y002634D02*
X013169Y002634D01*
X012919Y002634D02*
X011209Y002634D01*
X011209Y002732D02*
X012919Y002732D01*
X012919Y002831D02*
X011209Y002831D01*
X011072Y003225D02*
X012919Y003225D01*
X012919Y003323D02*
X011129Y003323D01*
X011129Y003422D02*
X012919Y003422D01*
X013169Y003422D02*
X013299Y003422D01*
X013318Y003323D02*
X013169Y003323D01*
X013169Y003225D02*
X013359Y003225D01*
X013299Y003520D02*
X013169Y003520D01*
X013169Y003619D02*
X013320Y003619D01*
X013361Y003717D02*
X013169Y003717D01*
X013169Y003816D02*
X013439Y003816D01*
X013568Y003915D02*
X013169Y003915D01*
X012919Y003520D02*
X011065Y003520D01*
X013169Y002535D02*
X013249Y002535D01*
X013325Y002436D02*
X013169Y002436D01*
X013169Y002338D02*
X014543Y002338D01*
X014749Y002239D02*
X013169Y002239D01*
X013169Y002141D02*
X014634Y002141D01*
X014569Y002042D02*
X013169Y002042D01*
X013169Y001944D02*
X014569Y001944D01*
X014626Y001845D02*
X008890Y001845D01*
X009239Y001747D02*
X010860Y001747D01*
X010819Y001706D02*
X010819Y001532D01*
X010942Y001409D01*
X011116Y001409D01*
X011239Y001532D01*
X011239Y001706D01*
X011116Y001829D01*
X010942Y001829D01*
X010819Y001706D01*
X010819Y001648D02*
X009279Y001648D01*
X009279Y001550D02*
X010819Y001550D01*
X010900Y001451D02*
X009244Y001451D01*
X009279Y001352D02*
X011136Y001352D01*
X011129Y001254D02*
X009731Y001254D01*
X009527Y001254D02*
X009279Y001254D01*
X009193Y001155D02*
X009429Y001155D01*
X009825Y000958D02*
X012472Y000958D01*
X012667Y000958D02*
X014522Y000958D01*
X014717Y000958D02*
X016129Y000958D01*
X016549Y000958D02*
X016733Y000958D01*
X016719Y001057D02*
X016549Y001057D01*
X016520Y001155D02*
X016729Y001155D01*
X016579Y001352D02*
X015230Y001352D01*
X015328Y001451D02*
X016509Y001451D01*
X016509Y001550D02*
X015329Y001550D01*
X015307Y001648D02*
X016133Y001648D01*
X016079Y001702D02*
X016202Y001579D01*
X016376Y001579D01*
X016499Y001702D01*
X016499Y001876D01*
X016376Y001999D01*
X016202Y001999D01*
X016079Y001876D01*
X016079Y001702D01*
X016079Y001747D02*
X015209Y001747D01*
X015030Y001747D02*
X014869Y001747D01*
X014932Y001845D02*
X014986Y001845D01*
X015192Y001845D02*
X016079Y001845D01*
X016147Y001944D02*
X015291Y001944D01*
X015299Y002042D02*
X017559Y002042D01*
X017559Y001944D02*
X016431Y001944D01*
X016499Y001845D02*
X017589Y001845D01*
X017589Y001747D02*
X016499Y001747D01*
X016445Y001648D02*
X016561Y001648D01*
X016877Y001648D02*
X017613Y001648D01*
X017712Y001550D02*
X016929Y001550D01*
X017887Y001550D02*
X019439Y001550D01*
X019521Y001648D02*
X017985Y001648D01*
X017950Y001155D02*
X021426Y001155D01*
X022059Y001352D02*
X019820Y001352D01*
X019859Y001451D02*
X022059Y001451D01*
X019499Y000663D02*
X019462Y000663D01*
X019429Y000761D02*
X019369Y000761D01*
X017559Y000958D02*
X017409Y000958D01*
X017409Y001057D02*
X017559Y001057D01*
X017589Y001155D02*
X017360Y001155D01*
X015009Y001352D02*
X011969Y001352D01*
X011914Y001451D02*
X014570Y001451D01*
X014519Y001550D02*
X011239Y001550D01*
X011239Y001648D02*
X014519Y001648D01*
X014590Y001747D02*
X011199Y001747D01*
X011158Y001451D02*
X011234Y001451D01*
X011444Y001451D02*
X011604Y001451D01*
X011549Y001352D02*
X011543Y001352D01*
X011549Y001254D02*
X011549Y001254D01*
X010179Y000564D02*
X005320Y000564D01*
X005259Y000466D02*
X010179Y000466D01*
X008946Y001155D02*
X005116Y001155D01*
X004868Y002634D02*
X004674Y002634D01*
X004849Y002732D02*
X004191Y002732D01*
X004191Y002831D02*
X004854Y002831D01*
X004952Y002929D02*
X004191Y002929D01*
X005166Y002929D02*
X005899Y002929D01*
X005899Y002831D02*
X005265Y002831D01*
X013594Y002436D02*
X014489Y002436D01*
X014489Y002535D02*
X013669Y002535D01*
X015284Y002141D02*
X017584Y002141D01*
X017259Y002929D02*
X016716Y002929D01*
X016815Y003028D02*
X017259Y003028D01*
X016522Y002929D02*
X016426Y002929D01*
X019222Y003915D02*
X020357Y003915D01*
X020294Y004013D02*
X019319Y004013D01*
X019319Y004112D02*
X020259Y004112D01*
X020649Y004112D02*
X020749Y004112D01*
X020749Y004210D02*
X021289Y004210D01*
X021296Y004112D02*
X021139Y004112D01*
X021139Y004309D02*
X021297Y004309D01*
X021338Y004407D02*
X021103Y004407D01*
X021039Y004506D02*
X021416Y004506D01*
X021582Y004604D02*
X020914Y004604D01*
X020259Y004309D02*
X019196Y004309D01*
X019295Y004210D02*
X020649Y004210D01*
X019022Y004309D02*
X017496Y004309D01*
X017479Y004778D02*
X017479Y004836D01*
X017409Y004906D01*
X017409Y004921D01*
X017409Y005037D01*
X017189Y005257D01*
X017189Y005356D01*
X017086Y005459D01*
X017189Y005562D01*
X017189Y005736D01*
X017066Y005859D01*
X017019Y005859D01*
X016991Y005984D02*
X017749Y005984D01*
X017652Y006083D02*
X014771Y006083D01*
X014817Y006181D02*
X017611Y006181D01*
X017599Y006280D02*
X016547Y006280D01*
X016192Y006280D02*
X014833Y006280D01*
X014825Y006378D02*
X016159Y006378D01*
X016159Y006477D02*
X014784Y006477D01*
X014194Y006083D02*
X014171Y006083D01*
X014061Y005984D02*
X014304Y005984D01*
X014569Y005849D02*
X014959Y005459D01*
X014959Y004609D01*
X017152Y005393D02*
X022059Y005393D01*
X022059Y005294D02*
X017189Y005294D01*
X017251Y005196D02*
X022059Y005196D01*
X022059Y005097D02*
X017349Y005097D01*
X017409Y004999D02*
X022059Y004999D01*
X022059Y004900D02*
X017415Y004900D01*
X017479Y004801D02*
X018915Y004801D01*
X018913Y004800D02*
X017479Y004778D01*
X018913Y004800D02*
X019002Y004889D01*
X019176Y004889D01*
X019260Y004805D01*
X019269Y004805D01*
X019352Y004889D01*
X019526Y004889D01*
X019605Y004810D01*
X022059Y004848D01*
X022059Y006479D01*
X021444Y006479D01*
X021444Y006479D01*
X021498Y006350D01*
X021498Y006211D01*
X021444Y006082D01*
X021346Y005984D01*
X021444Y006083D02*
X022059Y006083D01*
X022059Y006181D02*
X021485Y006181D01*
X021498Y006280D02*
X022059Y006280D01*
X022059Y006378D02*
X021486Y006378D01*
X021445Y006477D02*
X022059Y006477D01*
X022059Y005787D02*
X017138Y005787D01*
X017189Y005688D02*
X022059Y005688D01*
X022059Y005590D02*
X017189Y005590D01*
X017118Y005491D02*
X022059Y005491D01*
X018349Y005984D02*
X018149Y005984D01*
X018247Y006083D02*
X018252Y006083D01*
X017599Y006349D02*
X017652Y006477D01*
X016627Y005984D02*
X014661Y005984D01*
X013704Y005984D02*
X013396Y005984D01*
X013347Y005885D02*
X016599Y005885D01*
X016599Y005787D02*
X013255Y005787D01*
X013039Y005787D02*
X012989Y005787D01*
X012989Y005885D02*
X013039Y005885D01*
X013039Y005984D02*
X012989Y005984D01*
X012681Y005885D02*
X012515Y005885D01*
X012532Y005903D02*
X012587Y006035D01*
X012587Y006178D01*
X012532Y006311D01*
X012431Y006412D01*
X012298Y006467D01*
X012155Y006467D01*
X012023Y006412D01*
X011921Y006311D01*
X011867Y006178D01*
X011867Y006035D01*
X011921Y005903D01*
X012023Y005801D01*
X012155Y005747D01*
X012298Y005747D01*
X012431Y005801D01*
X012532Y005903D01*
X012565Y005984D02*
X012632Y005984D01*
X012587Y006083D02*
X012989Y006083D01*
X013039Y006083D02*
X013594Y006083D01*
X013548Y006181D02*
X013407Y006181D01*
X013375Y006280D02*
X013533Y006280D01*
X013541Y006378D02*
X013308Y006378D01*
X013166Y006477D02*
X013582Y006477D01*
X012862Y006477D02*
X009954Y006477D01*
X010076Y006378D02*
X011989Y006378D01*
X011909Y006280D02*
X010149Y006280D01*
X010190Y006181D02*
X011868Y006181D01*
X011867Y006083D02*
X010205Y006083D01*
X010205Y005984D02*
X011888Y005984D01*
X011939Y005885D02*
X010177Y005885D01*
X010136Y005787D02*
X012058Y005787D01*
X012395Y005787D02*
X012772Y005787D01*
X012621Y006181D02*
X012585Y006181D01*
X012545Y006280D02*
X012653Y006280D01*
X012720Y006378D02*
X012464Y006378D01*
X010045Y005688D02*
X016693Y005688D01*
X016769Y005590D02*
X009879Y005590D01*
X009561Y005590D02*
X008697Y005590D01*
X008864Y005688D02*
X009394Y005688D01*
X009303Y005787D02*
X008955Y005787D01*
X008996Y005885D02*
X009263Y005885D01*
X009235Y005984D02*
X009024Y005984D01*
X009024Y006083D02*
X009235Y006083D01*
X009250Y006181D02*
X009009Y006181D01*
X008968Y006280D02*
X009290Y006280D01*
X009363Y006378D02*
X008895Y006378D01*
X008773Y006477D02*
X009485Y006477D01*
X019972Y003225D02*
X020289Y003225D01*
X020303Y003323D02*
X020059Y003323D01*
X020059Y003422D02*
X020344Y003422D01*
X020431Y003520D02*
X020025Y003520D01*
X022055Y003422D02*
X022059Y003422D01*
X014910Y001451D02*
X014888Y001451D01*
D19*
X013229Y002019D02*
X013289Y002329D01*
X014179Y002329D01*
X014569Y002719D01*
X014659Y002749D01*
X015279Y002749D01*
X015479Y002549D01*
X015599Y002549D01*
X015689Y002499D01*
X016339Y002499D01*
X016509Y002329D01*
X017959Y002329D01*
X019189Y002329D01*
X013229Y002019D02*
X011969Y001939D01*
X010909Y002079D01*
X010959Y002759D01*
X014999Y004579D02*
X015089Y004489D01*
X017379Y004489D01*
X018469Y005579D01*
X019179Y005579D01*
X014999Y004579D02*
X014959Y004609D01*
M02*
