%
M48
M72
T01C0.0080
T02C0.0100
T03C0.0280
T04C0.0300
T05C0.0400
T06C0.0500
T07C0.0600
T08C0.1250
%
T01
X7294Y4879
X7889Y4879
T02
X9324Y4574
X9064Y4268
X8672Y4254
X8279Y4259
X8479Y4039
X8099Y4019
X8784Y3986
X9070Y3989
X9649Y3969
X10529Y4139
X8359Y3769
X7509Y3489
X8509Y3269
X8779Y3289
X9659Y3159
X8739Y2889
X8469Y2989
X8199Y2889
X8029Y2669
X8699Y2489
X8019Y2289
X8309Y2089
X8699Y2089
X8499Y1889
X8799Y1639
X9069Y1619
X8329Y1569
X7989Y1479
X7489Y1299
X7279Y1569
X6759Y1719
X6609Y1959
X6144Y2289
X5313Y2491
X4840Y2531
X5059Y2739
X4309Y2918
X4309Y3272
X6109Y2879
X7719Y1799
X9069Y1329
X9629Y1059
X10819Y1059
X11339Y1259
X11759Y1309
X11029Y1619
X12569Y759
X10389Y509
X7929Y669
X6129Y1479
X11229Y3359
X10919Y3369
X11959Y2854
X13459Y2599
X14699Y2479
X14959Y2309
X15089Y2039
X14779Y1989
X14729Y1589
X15119Y1539
X16289Y1789
X16719Y1509
X17779Y1319
X17769Y1039
X17199Y1019
X16929Y1059
X16339Y1039
X17339Y639
X16819Y519
X15119Y539
X14619Y759
X17799Y1759
X17769Y2029
X19189Y2019
X20159Y1689
X19649Y1479
X19639Y819
X19139Y739
X19309Y519
X20009Y649
X16619Y2589
X17469Y2959
X17679Y3139
X17239Y3369
X17429Y3599
X17239Y3799
X18319Y3649
X19109Y3559
X19849Y3399
X19109Y4099
X19089Y4679
X19439Y4679
X17269Y4749
X16979Y4869
X16979Y5269
X16979Y5649
X16809Y5869
X16369Y6399
X14569Y5849
X11839Y5409
X11669Y5159
X11609Y4829
X13689Y4259
X14509Y4039
X15009Y4029
X15269Y4219
X14699Y4289
X14959Y4609
X16479Y4229
X16619Y3129
X19179Y5579
X19439Y5579
X19719Y5579
X6979Y4199
X6109Y4259
X5889Y4479
X5609Y4459
X4269Y4138
X5549Y4979
X5510Y5365
X5739Y5759
X5234Y5798
X4919Y5759
T03
X13883Y6289
X14483Y6289
X17949Y6279
X18549Y6279
X20548Y6281
X21148Y6281
T04
X4989Y705
X4989Y1493
X10049Y4498
X10837Y4498
X12227Y6107
X13014Y6107
X6983Y6169
X6196Y6169
T05
X20699Y4209
X21699Y4209
X21699Y3209
X20699Y3209
X20699Y2209
X21699Y2209
X21699Y849
T06
X9720Y6049
X8539Y6049
T07
X10199Y3469
X13799Y3469
T08
X15799Y3469
M30
