G75*
G70*
%OFA0B0*%
%FSLAX24Y24*%
%IPPOS*%
%LPD*%
%AMOC8*
5,1,8,0,0,1.08239X$1,22.5*
%
%ADD10R,0.0354X0.0276*%
%ADD11R,0.0276X0.0354*%
%ADD12C,0.0740*%
%ADD13R,0.0472X0.0217*%
%ADD14R,0.0118X0.0315*%
%ADD15R,0.0315X0.0118*%
%ADD16R,0.1000X0.1000*%
%ADD17R,0.0110X0.0256*%
%ADD18R,0.0256X0.0110*%
%ADD19R,0.0315X0.0472*%
%ADD20R,0.0701X0.0402*%
%ADD21R,0.0630X0.0118*%
%ADD22R,0.0248X0.0327*%
%ADD23R,0.0591X0.0512*%
%ADD24R,0.0276X0.0118*%
%ADD25R,0.0394X0.0118*%
%ADD26C,0.0080*%
%ADD27C,0.0250*%
%ADD28C,0.0160*%
%ADD29C,0.0100*%
%ADD30C,0.1600*%
D10*
X004101Y003018D03*
X004101Y003530D03*
X005081Y006358D03*
X005081Y006870D03*
X003811Y007718D03*
X003811Y008230D03*
X003041Y008220D03*
X003041Y007708D03*
X007121Y003950D03*
X007121Y003438D03*
X009131Y004668D03*
X009631Y004668D03*
X009631Y005180D03*
X009131Y005180D03*
X008541Y007808D03*
X008541Y008320D03*
D11*
X010295Y008394D03*
X010807Y008394D03*
X008427Y006254D03*
X007915Y006254D03*
X007925Y005564D03*
X008437Y005564D03*
X010215Y005304D03*
X010727Y005304D03*
X009837Y002584D03*
X009325Y002584D03*
X006787Y007524D03*
X006275Y007524D03*
X005907Y008384D03*
X005395Y008384D03*
D12*
X005341Y010214D03*
X006341Y010214D03*
X007341Y010214D03*
X008341Y010214D03*
X009341Y010214D03*
X004341Y010214D03*
X005841Y000764D03*
X006841Y000764D03*
X007841Y000764D03*
D13*
X009039Y003220D03*
X009039Y003594D03*
X009039Y003968D03*
X010063Y003968D03*
X010063Y003220D03*
D14*
X006893Y005217D03*
X006696Y005217D03*
X006499Y005217D03*
X006302Y005217D03*
X006106Y005217D03*
X005909Y005217D03*
X005909Y006792D03*
X006106Y006792D03*
X006302Y006792D03*
X006499Y006792D03*
X006696Y006792D03*
X006893Y006792D03*
D15*
X007188Y006496D03*
X007188Y006300D03*
X007188Y006103D03*
X007188Y005906D03*
X007188Y005709D03*
X007188Y005512D03*
X005613Y005512D03*
X005613Y005709D03*
X005613Y005906D03*
X005613Y006103D03*
X005613Y006300D03*
X005613Y006496D03*
D16*
X006401Y006004D03*
D17*
X009856Y005965D03*
X010052Y005965D03*
X010249Y005965D03*
X010446Y005965D03*
X010446Y007044D03*
X010249Y007044D03*
X010052Y007044D03*
X009856Y007044D03*
D18*
X009611Y006800D03*
X009611Y006603D03*
X009611Y006406D03*
X009611Y006209D03*
X010690Y006209D03*
X010690Y006406D03*
X010690Y006603D03*
X010690Y006800D03*
D19*
X010385Y007754D03*
X009676Y007754D03*
X007745Y002674D03*
X007036Y002674D03*
D20*
X003091Y002904D03*
X003091Y003605D03*
D21*
X004912Y003540D03*
X004912Y003284D03*
X004912Y003796D03*
X004912Y004052D03*
X006251Y004052D03*
X006251Y003796D03*
X006251Y003540D03*
X006251Y003284D03*
D22*
X006054Y002674D03*
X005148Y002674D03*
D23*
X008131Y003700D03*
X008131Y004448D03*
X010911Y003898D03*
X010911Y003150D03*
D24*
X004141Y004600D03*
X004141Y004797D03*
X004141Y004994D03*
X004141Y005191D03*
X004141Y005387D03*
X004141Y005584D03*
X004141Y005781D03*
X004141Y005978D03*
X004141Y006175D03*
X004141Y006372D03*
D25*
X003097Y006683D03*
X003097Y004289D03*
D26*
X003801Y004624D02*
X003841Y004624D01*
X003861Y004604D01*
X004141Y004604D01*
X004141Y004600D01*
X004141Y004794D02*
X004141Y004797D01*
X004141Y004794D02*
X004401Y004794D01*
X004631Y004564D01*
X004631Y004374D01*
X004631Y004064D01*
X004641Y004054D01*
X004911Y004054D01*
X004912Y004052D01*
X004912Y003796D02*
X004911Y003794D01*
X004441Y003794D01*
X004391Y003844D01*
X004381Y003544D02*
X004151Y003544D01*
X004101Y003530D02*
X004101Y003514D01*
X004381Y003544D01*
X004911Y003544D01*
X004912Y003540D01*
X004912Y003284D02*
X005161Y003284D01*
X005171Y003274D01*
X005171Y002844D01*
X005161Y002834D01*
X005161Y002554D01*
X005148Y002674D01*
X006054Y002674D02*
X006061Y002554D01*
X006061Y002834D01*
X006051Y002844D01*
X006051Y003284D01*
X006251Y003284D01*
X006251Y003794D02*
X006251Y003796D01*
X006251Y003794D02*
X006531Y003794D01*
X006541Y003804D01*
X006621Y003804D01*
X006771Y003954D01*
X007121Y003954D01*
X007121Y003950D01*
X006251Y004052D02*
X006251Y004054D01*
X005641Y004054D01*
X004701Y004994D01*
X004601Y004994D01*
X004141Y004994D01*
X004141Y004994D01*
X004141Y005191D02*
X004141Y005194D01*
X004431Y005194D01*
X004751Y005514D01*
X005611Y005514D01*
X005613Y005512D01*
X005611Y005704D02*
X005613Y005709D01*
X005611Y005704D02*
X004741Y005704D01*
X004421Y005384D01*
X004141Y005384D01*
X004141Y005387D01*
X004111Y005384D01*
X004141Y005584D02*
X004421Y005584D01*
X004681Y005844D01*
X004991Y005844D01*
X005071Y005924D01*
X005071Y005944D01*
X005081Y006354D02*
X005081Y006358D01*
X005081Y006354D02*
X005301Y006354D01*
X005351Y006304D01*
X005611Y006304D01*
X005613Y006300D01*
X005909Y006792D02*
X005881Y006874D01*
X005641Y006874D01*
X005081Y006874D01*
X005081Y006870D01*
X005909Y006792D02*
X005911Y006794D01*
X005911Y007064D01*
X005921Y007074D01*
X006081Y007074D01*
X006271Y007264D01*
X006271Y007524D01*
X006275Y007524D01*
X006787Y007524D02*
X006791Y007524D01*
X006791Y007164D01*
X006891Y007064D01*
X006891Y006794D01*
X006893Y006792D01*
X006921Y006934D01*
X006961Y006944D01*
X007021Y007004D01*
X007261Y007004D01*
X007291Y006974D01*
X009251Y006974D01*
X009321Y006934D01*
X009611Y006800D02*
X009621Y006804D01*
X009831Y006804D01*
X010041Y006594D01*
X010041Y006254D01*
X010051Y006244D01*
X010051Y006004D01*
X010052Y005965D01*
X010051Y005964D01*
X010051Y005714D01*
X010061Y005704D01*
X010221Y005704D01*
X010221Y005594D01*
X010211Y005584D01*
X010211Y005304D01*
X010215Y005304D01*
X010211Y005274D01*
X010211Y004964D01*
X009911Y004664D01*
X009631Y004664D01*
X009631Y004668D01*
X009601Y004664D01*
X009131Y004664D01*
X009131Y004668D01*
X009131Y005180D02*
X009101Y005184D01*
X008661Y005184D01*
X008437Y005564D02*
X008437Y006254D01*
X008427Y006254D01*
X008431Y006284D01*
X008431Y006514D01*
X008391Y006554D01*
X007661Y006554D01*
X007526Y006419D01*
X007551Y006394D01*
X007526Y006419D02*
X007471Y006364D01*
X007471Y006314D01*
X007461Y006304D01*
X007191Y006304D01*
X007188Y006300D01*
X007191Y006494D02*
X007188Y006496D01*
X007191Y006494D02*
X007311Y006494D01*
X007311Y006614D01*
X007161Y006764D01*
X007191Y006104D02*
X007188Y006103D01*
X007191Y006104D02*
X007451Y006104D01*
X007491Y006144D01*
X007805Y006144D01*
X007915Y006254D01*
X007591Y005904D02*
X007191Y005904D01*
X007188Y005906D01*
X007188Y005709D02*
X007191Y005704D01*
X007451Y005704D01*
X007491Y005664D01*
X007925Y005664D01*
X007925Y005564D01*
X007551Y005424D02*
X007461Y005514D01*
X007191Y005514D01*
X007188Y005512D01*
X007201Y005184D02*
X006891Y005184D01*
X006891Y005214D01*
X006893Y005217D01*
X006001Y004854D02*
X005911Y004944D01*
X005911Y005214D01*
X005909Y005217D01*
X005871Y005234D01*
X004591Y005954D02*
X004421Y005784D01*
X004141Y005784D01*
X004141Y005781D01*
X004591Y005954D02*
X004591Y006134D01*
X003851Y007714D02*
X003811Y007714D01*
X003811Y007718D01*
X003811Y008230D02*
X003811Y008234D01*
X003331Y008234D01*
X003321Y008224D01*
X003041Y008224D01*
X003041Y008220D01*
X005907Y008384D02*
X005911Y008454D01*
X005911Y008664D01*
X006341Y009094D01*
X006341Y010214D01*
X008541Y007808D02*
X008541Y007804D01*
X008131Y007404D01*
X008111Y007294D01*
X009391Y007404D02*
X009391Y008104D01*
X009841Y008554D01*
X010291Y008554D01*
X010291Y008394D01*
X010295Y008394D01*
X010807Y008394D02*
X010811Y008394D01*
X010811Y006804D01*
X010691Y006804D01*
X010690Y006800D01*
X010451Y006824D02*
X010421Y006794D01*
X010361Y006794D01*
X010361Y006654D01*
X010361Y006794D02*
X010061Y006794D01*
X010051Y006804D01*
X010051Y007034D01*
X010052Y007044D01*
X009856Y007044D02*
X009851Y007044D01*
X009851Y007254D01*
X009701Y007254D01*
X009561Y007394D01*
X009401Y007394D01*
X009391Y007404D01*
X009681Y007474D02*
X009681Y007754D01*
X009676Y007754D01*
X009681Y007474D02*
X009761Y007394D01*
X010151Y007394D01*
X010251Y007294D01*
X010251Y007044D01*
X010249Y007044D01*
X010446Y007044D02*
X010451Y007004D01*
X010451Y006824D01*
X010446Y007044D02*
X010451Y007044D01*
X010451Y007404D01*
X010381Y007474D01*
X010381Y007754D01*
X010385Y007754D01*
X009611Y006209D02*
X009611Y006204D01*
X009341Y006204D01*
X009331Y006194D01*
X009331Y005184D01*
X009131Y005184D01*
X009131Y005180D01*
X009471Y005184D02*
X009471Y005424D01*
X009571Y005524D01*
X009601Y005184D02*
X009471Y005184D01*
X009601Y005184D02*
X009631Y005180D01*
X009631Y005184D01*
X009851Y005184D01*
X009851Y005964D01*
X009856Y005965D01*
X010221Y005704D02*
X010441Y005704D01*
X010451Y005714D01*
X010451Y005964D01*
X010446Y005965D01*
D27*
X010731Y005944D03*
X010361Y006314D03*
X010281Y006654D03*
X009571Y005524D03*
X008961Y005834D03*
X008661Y005184D03*
X007941Y004904D03*
X007471Y004834D03*
X007201Y005184D03*
X007551Y005424D03*
X007591Y005904D03*
X007551Y006394D03*
X007161Y006764D03*
X007581Y007544D03*
X008111Y007294D03*
X008581Y006654D03*
X008991Y007334D03*
X009231Y008514D03*
X007781Y008564D03*
X007351Y008374D03*
X006931Y008654D03*
X006421Y008504D03*
X005051Y008324D03*
X004541Y007544D03*
X004441Y006794D03*
X003831Y006544D03*
X003151Y006374D03*
X003801Y005974D03*
X004591Y006134D03*
X005071Y005944D03*
X005641Y005234D03*
X006001Y004854D03*
X005621Y004444D03*
X005731Y003664D03*
X006671Y002604D03*
X007531Y003704D03*
X007501Y004054D03*
X006921Y004854D03*
X005641Y006844D03*
X004601Y005024D03*
X003801Y004624D03*
X003251Y005024D03*
X002981Y005474D03*
X002981Y004554D03*
X002661Y004114D03*
X003761Y003804D03*
X004391Y003844D03*
X003721Y003104D03*
X003721Y002544D03*
X004481Y003054D03*
X002511Y002574D03*
X003081Y007164D03*
X002551Y008274D03*
X008171Y002554D03*
X008681Y002624D03*
X010431Y004234D03*
X010941Y002584D03*
D28*
X010063Y003220D02*
X010061Y003224D01*
X009851Y003224D01*
X009841Y003214D01*
X009841Y002584D01*
X009837Y002584D01*
X009325Y002584D02*
X009321Y002584D01*
X009321Y002844D01*
X009296Y002869D01*
X009221Y002944D01*
X008651Y002944D01*
X008641Y002954D01*
X008641Y003494D01*
X008746Y003599D01*
X008751Y003594D01*
X009039Y003594D01*
X009031Y003964D02*
X008781Y003964D01*
X008421Y004324D01*
X008421Y004434D01*
X008411Y004444D01*
X008131Y004444D01*
X008131Y004448D01*
X008061Y004444D01*
X005621Y004444D01*
X005641Y005234D02*
X005871Y005234D01*
X007121Y003950D02*
X007151Y003954D01*
X007401Y003954D01*
X007501Y004054D01*
X007401Y003434D02*
X007151Y003434D01*
X007401Y003434D02*
X007741Y003094D01*
X007741Y002674D01*
X007745Y002674D01*
X007041Y002674D02*
X007041Y002464D01*
X006811Y002464D01*
X006671Y002604D01*
X007036Y002674D02*
X007041Y002674D01*
X008131Y003700D02*
X008131Y003704D01*
X008641Y003704D01*
X008746Y003599D01*
X009031Y003964D02*
X009039Y003968D01*
X009121Y003964D01*
X009311Y003964D01*
X009321Y003974D01*
X009441Y003854D01*
X009441Y003334D01*
X009331Y003224D01*
X009041Y003224D01*
X009039Y003220D01*
X009931Y004114D02*
X010011Y004034D01*
X010063Y003968D01*
X010071Y003964D01*
X010341Y003964D01*
X010411Y003894D01*
X010911Y003894D01*
X010911Y003898D01*
X009931Y004114D02*
X009931Y004634D01*
X009911Y004664D01*
X009131Y004668D02*
X009101Y004664D01*
X008781Y004664D01*
X008221Y005224D01*
X007981Y005224D01*
X007941Y005154D01*
X007941Y004904D01*
X007981Y005224D02*
X007921Y005284D01*
X007921Y005534D01*
X007925Y005564D01*
X008431Y006514D02*
X008461Y006534D01*
X008581Y006654D01*
X009321Y006934D02*
X009451Y006804D01*
X009581Y006804D01*
X009611Y006800D01*
X010281Y006654D02*
X010361Y006654D01*
X010361Y006314D01*
X010731Y005944D02*
X010731Y005304D01*
X010727Y005304D01*
X006787Y007524D02*
X006791Y007554D01*
X006791Y007784D01*
X006491Y008084D01*
X005981Y008084D01*
X005911Y008124D01*
X005831Y008044D01*
X004281Y008044D01*
X004091Y008234D01*
X003841Y008234D01*
X003811Y008230D01*
X005641Y006874D02*
X005641Y006844D01*
X005911Y008124D02*
X005911Y008384D01*
X005907Y008384D01*
X003761Y003804D02*
X003761Y003774D01*
X003581Y003594D01*
X003381Y003594D01*
X003371Y003604D01*
X003091Y003604D01*
X003091Y003605D01*
X003611Y003304D02*
X003611Y003144D01*
X003681Y003104D01*
X003721Y003104D01*
X003611Y003144D02*
X003371Y002904D01*
X003091Y002904D01*
X003091Y002904D01*
X003611Y003304D02*
X003841Y003534D01*
X004071Y003534D01*
X004101Y003530D01*
D29*
X002251Y002194D02*
X002251Y008814D01*
X003751Y008814D01*
X003751Y008874D01*
X003769Y008874D01*
X003857Y008911D01*
X003924Y008978D01*
X003961Y009066D01*
X003961Y009162D01*
X003961Y009859D01*
X004002Y009818D01*
X004068Y009769D01*
X004141Y009732D01*
X004219Y009707D01*
X004291Y009696D01*
X004291Y010164D01*
X004391Y010164D01*
X004391Y010264D01*
X004859Y010264D01*
X005291Y010264D01*
X005291Y010164D01*
X005391Y010164D01*
X005391Y010264D01*
X005859Y010264D01*
X005848Y010336D01*
X005823Y010414D01*
X005786Y010487D01*
X005737Y010553D01*
X005696Y010594D01*
X006042Y010594D01*
X005934Y010486D01*
X005861Y010310D01*
X005861Y010119D01*
X005934Y009942D01*
X006069Y009807D01*
X006191Y009757D01*
X006191Y009156D01*
X005849Y008814D01*
X005761Y008726D01*
X005761Y008671D01*
X005723Y008671D01*
X005672Y008620D01*
X005653Y008654D01*
X005625Y008681D01*
X005591Y008701D01*
X005552Y008711D01*
X005414Y008711D01*
X005414Y008403D01*
X005376Y008403D01*
X005376Y008365D01*
X005376Y008234D01*
X005414Y008234D01*
X005414Y008365D01*
X005376Y008365D01*
X005107Y008365D01*
X005107Y008234D01*
X004359Y008234D01*
X004281Y008313D01*
X004169Y008424D01*
X004087Y008424D01*
X004034Y008478D01*
X003588Y008478D01*
X003524Y008414D01*
X003524Y008384D01*
X003393Y008384D01*
X003328Y008384D01*
X003328Y008404D01*
X003264Y008468D01*
X002818Y008468D01*
X002754Y008404D01*
X002754Y008037D01*
X002818Y007972D01*
X003264Y007972D01*
X003328Y008037D01*
X003328Y008074D01*
X003383Y008074D01*
X003393Y008084D01*
X003524Y008084D01*
X003524Y008047D01*
X003588Y007982D01*
X004034Y007982D01*
X004054Y008003D01*
X004202Y007854D01*
X004359Y007854D01*
X005752Y007854D01*
X005901Y007854D01*
X005164Y007118D01*
X004858Y007118D01*
X004794Y007054D01*
X004794Y006747D01*
X004771Y006724D01*
X004161Y006724D01*
X004164Y006581D01*
X004141Y006581D01*
X004141Y006372D01*
X004141Y006372D01*
X004181Y006374D01*
X004421Y006374D01*
X004441Y006394D01*
X004441Y006794D01*
X004162Y006660D02*
X003741Y006660D01*
X003741Y006562D02*
X003930Y006562D01*
X003945Y006570D02*
X003911Y006551D01*
X003883Y006523D01*
X003863Y006489D01*
X003853Y006450D01*
X003853Y006372D01*
X003942Y006372D01*
X003941Y006371D01*
X003853Y006371D01*
X003853Y006293D01*
X003858Y006273D01*
X003853Y006254D01*
X003853Y006209D01*
X003703Y006209D01*
X003566Y006072D01*
X003566Y005925D01*
X003551Y005941D01*
X003551Y006088D01*
X003647Y006184D01*
X003741Y006278D01*
X003741Y007471D01*
X004034Y007471D01*
X004098Y007535D01*
X004098Y007902D01*
X004034Y007966D01*
X003588Y007966D01*
X003524Y007902D01*
X003524Y007873D01*
X003431Y007781D01*
X003421Y007771D01*
X003421Y007638D01*
X003421Y006411D01*
X003231Y006221D01*
X003231Y006088D01*
X003231Y006030D01*
X002671Y006591D01*
X002671Y007388D01*
X002781Y007498D01*
X002818Y007461D01*
X003264Y007461D01*
X003328Y007525D01*
X003328Y007892D01*
X003264Y007956D01*
X002818Y007956D01*
X002754Y007892D01*
X002754Y007864D01*
X002694Y007864D01*
X002601Y007771D01*
X002351Y007521D01*
X002351Y007388D01*
X002351Y006458D01*
X002444Y006364D01*
X003744Y005064D01*
X003814Y005064D01*
X003844Y005034D01*
X003893Y005034D01*
X003893Y004901D01*
X003893Y004859D01*
X003703Y004859D01*
X003678Y004834D01*
X003662Y004849D01*
X003617Y004894D01*
X003615Y004894D01*
X003486Y005020D01*
X003486Y005122D01*
X003348Y005259D01*
X003153Y005259D01*
X003016Y005122D01*
X003016Y004927D01*
X003153Y004789D01*
X003264Y004789D01*
X003391Y004666D01*
X003391Y004448D01*
X003484Y004354D01*
X003485Y004354D01*
X003531Y004308D01*
X003624Y004214D01*
X004481Y004214D01*
X004481Y004126D01*
X004481Y004079D01*
X004293Y004079D01*
X004156Y003942D01*
X004156Y003778D01*
X003996Y003778D01*
X003996Y003902D01*
X003858Y004039D01*
X003663Y004039D01*
X003526Y003902D01*
X003526Y003876D01*
X003487Y003915D01*
X002821Y003915D01*
X002821Y003942D01*
X002896Y004017D01*
X002896Y004120D01*
X003340Y004120D01*
X003404Y004184D01*
X003404Y004394D01*
X003445Y004394D01*
X003404Y004394D02*
X003340Y004458D01*
X002855Y004458D01*
X002791Y004394D01*
X002251Y004394D01*
X002251Y004492D02*
X003391Y004492D01*
X003391Y004591D02*
X002251Y004591D01*
X002251Y004689D02*
X003367Y004689D01*
X003265Y004788D02*
X002251Y004788D01*
X002251Y004887D02*
X003056Y004887D01*
X003016Y004985D02*
X002251Y004985D01*
X002251Y005084D02*
X003016Y005084D01*
X003076Y005182D02*
X002251Y005182D01*
X002251Y005281D02*
X003528Y005281D01*
X003429Y005379D02*
X002251Y005379D01*
X002251Y005478D02*
X003331Y005478D01*
X003232Y005576D02*
X002251Y005576D01*
X002251Y005675D02*
X003134Y005675D01*
X003035Y005773D02*
X002251Y005773D01*
X002251Y005872D02*
X002937Y005872D01*
X002838Y005971D02*
X002251Y005971D01*
X002251Y006069D02*
X002740Y006069D01*
X002641Y006168D02*
X002251Y006168D01*
X002251Y006266D02*
X002543Y006266D01*
X002444Y006365D02*
X002251Y006365D01*
X002251Y006463D02*
X002351Y006463D01*
X002351Y006562D02*
X002251Y006562D01*
X002251Y006660D02*
X002351Y006660D01*
X002351Y006759D02*
X002251Y006759D01*
X002251Y006857D02*
X002351Y006857D01*
X002351Y006956D02*
X002251Y006956D01*
X002251Y007054D02*
X002351Y007054D01*
X002351Y007153D02*
X002251Y007153D01*
X002251Y007252D02*
X002351Y007252D01*
X002351Y007350D02*
X002251Y007350D01*
X002251Y007449D02*
X002351Y007449D01*
X002377Y007547D02*
X002251Y007547D01*
X002251Y007646D02*
X002476Y007646D01*
X002575Y007744D02*
X002251Y007744D01*
X002251Y007843D02*
X002673Y007843D01*
X002803Y007941D02*
X002251Y007941D01*
X002251Y008040D02*
X002754Y008040D01*
X002754Y008138D02*
X002251Y008138D01*
X002251Y008237D02*
X002754Y008237D01*
X002754Y008336D02*
X002251Y008336D01*
X002251Y008434D02*
X002784Y008434D01*
X003297Y008434D02*
X003544Y008434D01*
X003530Y008040D02*
X003328Y008040D01*
X003278Y007941D02*
X003563Y007941D01*
X003493Y007843D02*
X003328Y007843D01*
X003328Y007744D02*
X003421Y007744D01*
X003421Y007646D02*
X003328Y007646D01*
X003328Y007547D02*
X003421Y007547D01*
X003421Y007449D02*
X002731Y007449D01*
X002671Y007350D02*
X003421Y007350D01*
X003421Y007252D02*
X002671Y007252D01*
X002671Y007153D02*
X003421Y007153D01*
X003421Y007054D02*
X002671Y007054D01*
X002671Y006956D02*
X003421Y006956D01*
X003421Y006857D02*
X002671Y006857D01*
X002671Y006759D02*
X002791Y006759D01*
X002791Y006787D02*
X002791Y006578D01*
X002855Y006514D01*
X003340Y006514D01*
X003404Y006578D01*
X003404Y006787D01*
X003340Y006852D01*
X002855Y006852D01*
X002791Y006787D01*
X002791Y006660D02*
X002671Y006660D01*
X002699Y006562D02*
X002807Y006562D01*
X002798Y006463D02*
X003421Y006463D01*
X003421Y006562D02*
X003388Y006562D01*
X003404Y006660D02*
X003421Y006660D01*
X003421Y006759D02*
X003404Y006759D01*
X003741Y006759D02*
X004794Y006759D01*
X004794Y006857D02*
X003741Y006857D01*
X003741Y006956D02*
X004794Y006956D01*
X004795Y007054D02*
X003741Y007054D01*
X003741Y007153D02*
X005200Y007153D01*
X005298Y007252D02*
X003741Y007252D01*
X003741Y007350D02*
X005397Y007350D01*
X005495Y007449D02*
X003741Y007449D01*
X003781Y007714D02*
X003591Y007714D01*
X003581Y007704D01*
X003581Y006344D01*
X003391Y006154D01*
X003391Y005874D01*
X003881Y005384D01*
X004071Y005384D01*
X004141Y005387D01*
X004111Y005194D02*
X003911Y005194D01*
X003881Y005224D01*
X003811Y005224D01*
X002511Y006524D01*
X002511Y007454D01*
X002761Y007704D01*
X003041Y007704D01*
X003041Y007708D01*
X003781Y007714D02*
X003811Y007718D01*
X004098Y007744D02*
X005791Y007744D01*
X005692Y007646D02*
X004098Y007646D01*
X004098Y007547D02*
X005594Y007547D01*
X005797Y007350D02*
X005987Y007350D01*
X005987Y007327D02*
X005997Y007289D01*
X006017Y007255D01*
X006045Y007227D01*
X006079Y007207D01*
X006117Y007197D01*
X006256Y007197D01*
X006256Y007505D01*
X006294Y007505D01*
X006294Y007197D01*
X006432Y007197D01*
X006471Y007207D01*
X006505Y007227D01*
X006533Y007255D01*
X006552Y007288D01*
X006603Y007237D01*
X006641Y007237D01*
X006641Y007226D01*
X006641Y007102D01*
X006684Y007059D01*
X006604Y007059D01*
X006407Y007059D01*
X006210Y007059D01*
X006070Y007059D01*
X006060Y007069D01*
X006026Y007089D01*
X005987Y007099D01*
X005909Y007099D01*
X005909Y006792D01*
X005908Y006792D01*
X005908Y006791D01*
X005700Y006791D01*
X005700Y006665D01*
X005410Y006665D01*
X005346Y006601D01*
X005346Y006564D01*
X005317Y006593D01*
X005350Y006612D01*
X005378Y006640D01*
X005398Y006674D01*
X005408Y006713D01*
X005408Y006851D01*
X005298Y006851D01*
X005336Y006889D01*
X005408Y006889D01*
X005408Y006961D01*
X005990Y007543D01*
X006256Y007543D01*
X006256Y007505D01*
X005987Y007505D01*
X005987Y007327D01*
X006020Y007252D02*
X005698Y007252D01*
X005600Y007153D02*
X006641Y007153D01*
X006589Y007252D02*
X006529Y007252D01*
X006294Y007252D02*
X006256Y007252D01*
X006256Y007350D02*
X006294Y007350D01*
X006294Y007449D02*
X006256Y007449D01*
X005987Y007449D02*
X005895Y007449D01*
X005908Y007099D02*
X005830Y007099D01*
X005792Y007089D01*
X005757Y007069D01*
X005730Y007041D01*
X005710Y007007D01*
X005700Y006969D01*
X005700Y006792D01*
X005908Y006792D01*
X005908Y007099D01*
X005908Y007054D02*
X005909Y007054D01*
X005908Y006956D02*
X005909Y006956D01*
X005908Y006857D02*
X005909Y006857D01*
X005700Y006857D02*
X005304Y006857D01*
X005408Y006759D02*
X005700Y006759D01*
X005700Y006956D02*
X005408Y006956D01*
X005501Y007054D02*
X005743Y007054D01*
X005405Y006660D02*
X005390Y006660D01*
X004141Y006581D02*
X004141Y006372D01*
X004141Y006374D01*
X003951Y006374D01*
X003921Y006414D01*
X003921Y006454D01*
X003831Y006544D01*
X003856Y006463D02*
X003741Y006463D01*
X003741Y006365D02*
X003853Y006365D01*
X003951Y006374D02*
X003951Y006184D01*
X003961Y006174D01*
X004141Y006174D01*
X004141Y006175D01*
X004141Y006371D01*
X004141Y006371D01*
X004141Y006175D01*
X004141Y006175D01*
X004141Y006174D02*
X004141Y006163D01*
X004141Y006147D01*
X004141Y006147D01*
X004141Y006163D01*
X004141Y006174D01*
X004141Y006174D01*
X004141Y006168D02*
X004141Y006168D01*
X004141Y006266D02*
X004141Y006266D01*
X004141Y006365D02*
X004141Y006365D01*
X004141Y006463D02*
X004141Y006463D01*
X004141Y006562D02*
X004141Y006562D01*
X004141Y006581D02*
X003983Y006581D01*
X003945Y006570D01*
X003856Y006266D02*
X003729Y006266D01*
X003662Y006168D02*
X003630Y006168D01*
X003566Y006069D02*
X003551Y006069D01*
X003551Y005971D02*
X003566Y005971D01*
X003801Y005974D02*
X004141Y005974D01*
X004141Y005978D01*
X004813Y005364D02*
X005389Y005364D01*
X005410Y005343D01*
X005700Y005343D01*
X005700Y005217D01*
X005908Y005217D01*
X005908Y005217D01*
X005700Y005217D01*
X005700Y005040D01*
X005710Y005001D01*
X005730Y004967D01*
X005757Y004939D01*
X005792Y004920D01*
X005830Y004909D01*
X005908Y004909D01*
X005908Y005216D01*
X005909Y005216D01*
X005909Y004909D01*
X005987Y004909D01*
X006026Y004920D01*
X006060Y004939D01*
X006070Y004949D01*
X006198Y004949D01*
X006395Y004949D01*
X006591Y004949D01*
X006788Y004949D01*
X006998Y004949D01*
X007050Y005002D01*
X007103Y004949D01*
X007298Y004949D01*
X007436Y005087D01*
X007436Y005207D01*
X007453Y005189D01*
X007648Y005189D01*
X007731Y005272D01*
X007731Y005206D01*
X007744Y005193D01*
X007737Y005180D01*
X007751Y005129D01*
X007751Y005047D01*
X007706Y005002D01*
X007706Y004807D01*
X007744Y004768D01*
X007726Y004750D01*
X007726Y004634D01*
X005763Y004634D01*
X005718Y004679D01*
X005523Y004679D01*
X005388Y004544D01*
X005363Y004544D01*
X004836Y005071D01*
X004836Y005122D01*
X004703Y005254D01*
X004813Y005364D01*
X004729Y005281D02*
X005700Y005281D01*
X005700Y005182D02*
X004775Y005182D01*
X004836Y005084D02*
X005700Y005084D01*
X005719Y004985D02*
X004922Y004985D01*
X005021Y004887D02*
X007706Y004887D01*
X007706Y004985D02*
X007334Y004985D01*
X007432Y005084D02*
X007751Y005084D01*
X007738Y005182D02*
X007436Y005182D01*
X007068Y004985D02*
X007033Y004985D01*
X007725Y004788D02*
X005119Y004788D01*
X005218Y004689D02*
X007726Y004689D01*
X007686Y003907D02*
X007686Y003750D01*
X008081Y003750D01*
X008081Y003650D01*
X008181Y003650D01*
X008181Y003750D01*
X008576Y003750D01*
X008576Y003900D01*
X008682Y003794D01*
X008663Y003760D01*
X008653Y003722D01*
X008653Y003598D01*
X009035Y003598D01*
X009035Y003590D01*
X008653Y003590D01*
X008653Y003466D01*
X008663Y003428D01*
X008683Y003394D01*
X008698Y003379D01*
X008693Y003374D01*
X008693Y003066D01*
X008757Y003002D01*
X009321Y003002D01*
X009353Y003034D01*
X009409Y003034D01*
X009519Y003144D01*
X009631Y003256D01*
X009631Y003776D01*
X009631Y003933D01*
X009511Y004053D01*
X009399Y004164D01*
X009343Y004164D01*
X009321Y004186D01*
X008827Y004186D01*
X008739Y004274D01*
X009741Y004274D01*
X009741Y004193D01*
X009741Y004146D01*
X009716Y004122D01*
X009716Y003814D01*
X009781Y003750D01*
X010286Y003750D01*
X010332Y003704D01*
X010506Y003704D01*
X009631Y003704D01*
X009631Y003605D02*
X010506Y003605D01*
X010506Y003597D02*
X010557Y003545D01*
X010523Y003526D01*
X010495Y003498D01*
X010476Y003464D01*
X010466Y003426D01*
X010466Y003200D01*
X010861Y003200D01*
X010861Y003100D01*
X010961Y003100D01*
X010961Y003200D01*
X011356Y003200D01*
X011356Y003426D01*
X011346Y003464D01*
X011326Y003498D01*
X011298Y003526D01*
X011265Y003545D01*
X011316Y003597D01*
X011316Y004200D01*
X011252Y004264D01*
X010570Y004264D01*
X010506Y004200D01*
X010506Y004084D01*
X010489Y004084D01*
X010419Y004154D01*
X010377Y004154D01*
X010344Y004186D01*
X010133Y004186D01*
X010121Y004202D01*
X010121Y004274D01*
X011391Y004274D01*
X011391Y002224D01*
X008371Y002224D01*
X008371Y002087D01*
X008331Y002070D01*
X008331Y002382D01*
X008406Y002457D01*
X008406Y002652D01*
X008268Y002789D01*
X008073Y002789D01*
X008053Y002768D01*
X008053Y002930D01*
X008042Y002968D01*
X008023Y003003D01*
X007995Y003030D01*
X007960Y003050D01*
X007922Y003060D01*
X007774Y003060D01*
X007774Y002703D01*
X007716Y002703D01*
X007716Y002645D01*
X007774Y002645D01*
X007774Y002288D01*
X007922Y002288D01*
X007960Y002298D01*
X007995Y002318D01*
X008011Y002334D01*
X008011Y001213D01*
X007936Y001244D01*
X007745Y001244D01*
X007569Y001171D01*
X007434Y001036D01*
X007361Y000860D01*
X007361Y000669D01*
X007434Y000492D01*
X007542Y000384D01*
X007196Y000384D01*
X007237Y000425D01*
X007286Y000492D01*
X007323Y000565D01*
X007348Y000642D01*
X007359Y000714D01*
X006891Y000714D01*
X006891Y000814D01*
X007359Y000814D01*
X007348Y000886D01*
X007323Y000964D01*
X007286Y001037D01*
X007237Y001103D01*
X007180Y001161D01*
X007113Y001209D01*
X007040Y001246D01*
X006963Y001271D01*
X006891Y001283D01*
X006891Y000814D01*
X006791Y000814D01*
X006791Y000714D01*
X006322Y000714D01*
X006334Y000642D01*
X006359Y000565D01*
X006396Y000492D01*
X006444Y000425D01*
X006485Y000384D01*
X006140Y000384D01*
X006248Y000492D01*
X006321Y000669D01*
X006321Y000860D01*
X006248Y001036D01*
X006211Y001073D01*
X006211Y002401D01*
X006223Y002401D01*
X006288Y002465D01*
X006288Y002883D01*
X006223Y002948D01*
X006201Y002948D01*
X006201Y003115D01*
X006611Y003115D01*
X006676Y003180D01*
X006676Y003379D01*
X006686Y003389D01*
X006705Y003423D01*
X006716Y003461D01*
X006716Y003540D01*
X006251Y003540D01*
X006251Y003540D01*
X006251Y003544D01*
X005971Y003544D01*
X005961Y003554D01*
X005861Y003554D01*
X005751Y003664D01*
X005731Y003664D01*
X005796Y003657D02*
X005786Y003619D01*
X005786Y003540D01*
X005786Y003461D01*
X005796Y003423D01*
X005816Y003389D01*
X005826Y003379D01*
X005826Y003180D01*
X005890Y003115D01*
X005901Y003115D01*
X005901Y002948D01*
X005884Y002948D01*
X005820Y002883D01*
X005820Y002465D01*
X005884Y002401D01*
X005891Y002401D01*
X005891Y001244D01*
X005745Y001244D01*
X005569Y001171D01*
X005461Y001063D01*
X005461Y001912D01*
X005424Y002000D01*
X005357Y002068D01*
X005281Y002099D01*
X005281Y002194D01*
X002251Y002194D01*
X002251Y002226D02*
X005891Y002226D01*
X005891Y002324D02*
X002251Y002324D01*
X002251Y002423D02*
X004956Y002423D01*
X004978Y002401D02*
X005112Y002401D01*
X005115Y002399D01*
X005137Y002401D01*
X005318Y002401D01*
X005382Y002465D01*
X005382Y002883D01*
X005321Y002944D01*
X005321Y003163D01*
X005337Y003180D01*
X005337Y003389D01*
X005314Y003412D01*
X005337Y003436D01*
X005337Y003645D01*
X005314Y003668D01*
X005337Y003691D01*
X005337Y003901D01*
X005826Y003901D01*
X005826Y003701D01*
X005816Y003691D01*
X005796Y003657D01*
X005786Y003605D02*
X005337Y003605D01*
X005337Y003507D02*
X005786Y003507D01*
X005786Y003540D02*
X006250Y003540D01*
X006250Y003540D01*
X005786Y003540D01*
X005805Y003408D02*
X005318Y003408D01*
X005337Y003310D02*
X005826Y003310D01*
X005826Y003211D02*
X005337Y003211D01*
X005321Y003113D02*
X005901Y003113D01*
X005901Y003014D02*
X005321Y003014D01*
X005350Y002916D02*
X005852Y002916D01*
X005820Y002817D02*
X005382Y002817D01*
X005382Y002719D02*
X005820Y002719D01*
X005820Y002620D02*
X005382Y002620D01*
X005382Y002521D02*
X005820Y002521D01*
X005862Y002423D02*
X005340Y002423D01*
X005281Y002127D02*
X005891Y002127D01*
X005891Y002029D02*
X005396Y002029D01*
X005453Y001930D02*
X005891Y001930D01*
X005891Y001832D02*
X005461Y001832D01*
X005461Y001733D02*
X005891Y001733D01*
X005891Y001635D02*
X005461Y001635D01*
X005461Y001536D02*
X005891Y001536D01*
X005891Y001438D02*
X005461Y001438D01*
X005461Y001339D02*
X005891Y001339D01*
X005736Y001240D02*
X005461Y001240D01*
X005461Y001142D02*
X005540Y001142D01*
X005841Y000764D02*
X006051Y000974D01*
X006051Y002514D01*
X006054Y002674D01*
X006288Y002719D02*
X006453Y002719D01*
X006436Y002702D02*
X006436Y002507D01*
X006573Y002369D01*
X006637Y002369D01*
X006732Y002274D01*
X006962Y002274D01*
X007119Y002274D01*
X007173Y002328D01*
X007239Y002328D01*
X007304Y002392D01*
X007304Y002956D01*
X007239Y003020D01*
X006833Y003020D01*
X006769Y002956D01*
X006769Y002838D01*
X006768Y002839D01*
X006573Y002839D01*
X006436Y002702D01*
X006436Y002620D02*
X006288Y002620D01*
X006288Y002521D02*
X006436Y002521D01*
X006520Y002423D02*
X006245Y002423D01*
X006211Y002324D02*
X006682Y002324D01*
X006211Y002226D02*
X008011Y002226D01*
X008001Y002324D02*
X008011Y002324D01*
X008171Y002554D02*
X008171Y001094D01*
X007841Y000764D01*
X007396Y000945D02*
X007329Y000945D01*
X007354Y000846D02*
X007361Y000846D01*
X007361Y000748D02*
X006891Y000748D01*
X006841Y000764D02*
X006841Y001494D01*
X007741Y002394D01*
X007741Y002604D01*
X007745Y002674D01*
X007716Y002645D02*
X007716Y002288D01*
X007568Y002288D01*
X007530Y002298D01*
X007496Y002318D01*
X007468Y002346D01*
X007448Y002380D01*
X007438Y002418D01*
X007438Y002645D01*
X007716Y002645D01*
X007716Y002620D02*
X007774Y002620D01*
X007774Y002521D02*
X007716Y002521D01*
X007716Y002423D02*
X007774Y002423D01*
X007774Y002324D02*
X007716Y002324D01*
X007489Y002324D02*
X007170Y002324D01*
X007304Y002423D02*
X007438Y002423D01*
X007438Y002521D02*
X007304Y002521D01*
X007304Y002620D02*
X007438Y002620D01*
X007438Y002703D02*
X007716Y002703D01*
X007716Y003060D01*
X007568Y003060D01*
X007530Y003050D01*
X007496Y003030D01*
X007468Y003003D01*
X007448Y002968D01*
X007438Y002930D01*
X007438Y002703D01*
X007438Y002719D02*
X007304Y002719D01*
X007304Y002817D02*
X007438Y002817D01*
X007438Y002916D02*
X007304Y002916D01*
X007246Y003014D02*
X007479Y003014D01*
X007390Y003181D02*
X007356Y003161D01*
X007318Y003151D01*
X007140Y003151D01*
X007140Y003419D01*
X007102Y003419D01*
X007102Y003151D01*
X006924Y003151D01*
X006886Y003161D01*
X006851Y003181D01*
X006824Y003208D01*
X006804Y003243D01*
X006794Y003281D01*
X006794Y003419D01*
X007102Y003419D01*
X007102Y003457D01*
X006794Y003457D01*
X006794Y003596D01*
X006804Y003634D01*
X006824Y003668D01*
X006851Y003696D01*
X006885Y003715D01*
X006834Y003767D01*
X006834Y003804D01*
X006833Y003804D01*
X006771Y003742D01*
X006698Y003670D01*
X006705Y003657D01*
X006716Y003619D01*
X006716Y003540D01*
X006251Y003540D01*
X006251Y003541D02*
X006251Y003627D01*
X006251Y003627D01*
X006251Y003541D01*
X006251Y003541D01*
X006251Y003605D02*
X006251Y003605D01*
X005826Y003704D02*
X005337Y003704D01*
X005337Y003803D02*
X005826Y003803D01*
X005826Y003901D02*
X005829Y003904D01*
X005579Y003904D01*
X005491Y003992D01*
X005337Y004146D01*
X005337Y003947D01*
X005314Y003924D01*
X005337Y003901D01*
X005337Y004000D02*
X005483Y004000D01*
X005385Y004098D02*
X005337Y004098D01*
X005316Y004591D02*
X005435Y004591D01*
X005908Y004985D02*
X005909Y004985D01*
X005908Y005084D02*
X005909Y005084D01*
X005908Y005182D02*
X005909Y005182D01*
X007189Y005906D02*
X007189Y005906D01*
X007496Y005906D01*
X007496Y005954D01*
X007513Y005954D01*
X007553Y005994D01*
X007704Y005994D01*
X007731Y005967D01*
X008098Y005967D01*
X008150Y006018D01*
X008169Y005985D01*
X008197Y005957D01*
X008231Y005937D01*
X008269Y005927D01*
X008408Y005927D01*
X008408Y006235D01*
X008446Y006235D01*
X008446Y006273D01*
X008714Y006273D01*
X008714Y006451D01*
X008704Y006489D01*
X008684Y006524D01*
X008657Y006551D01*
X008622Y006571D01*
X008584Y006581D01*
X008446Y006581D01*
X008446Y006273D01*
X008408Y006273D01*
X008408Y006581D01*
X008269Y006581D01*
X008231Y006571D01*
X008197Y006551D01*
X008169Y006524D01*
X008150Y006490D01*
X008098Y006541D01*
X007731Y006541D01*
X007667Y006477D01*
X007667Y006294D01*
X007496Y006294D01*
X007496Y006299D01*
X007189Y006299D01*
X007189Y006300D01*
X007496Y006300D01*
X007496Y006378D01*
X007485Y006416D01*
X007466Y006451D01*
X007461Y006456D01*
X007461Y006552D01*
X007461Y006676D01*
X007396Y006741D01*
X007396Y006824D01*
X009162Y006824D01*
X009372Y006614D01*
X009373Y006614D01*
X009373Y006502D01*
X009373Y006354D01*
X009279Y006354D01*
X009191Y006266D01*
X008446Y006266D01*
X008446Y006235D02*
X008714Y006235D01*
X008714Y006057D01*
X008704Y006019D01*
X008684Y005985D01*
X008657Y005957D01*
X008622Y005937D01*
X008584Y005927D01*
X008446Y005927D01*
X008446Y006235D01*
X008446Y006168D02*
X008408Y006168D01*
X008408Y006069D02*
X008446Y006069D01*
X008446Y005971D02*
X008408Y005971D01*
X008418Y005891D02*
X008279Y005891D01*
X008241Y005881D01*
X008207Y005861D01*
X008179Y005834D01*
X008160Y005800D01*
X008108Y005851D01*
X007741Y005851D01*
X007704Y005814D01*
X007553Y005814D01*
X007513Y005854D01*
X007496Y005854D01*
X007496Y005906D01*
X007189Y005906D01*
X007496Y005872D02*
X008225Y005872D01*
X008183Y005971D02*
X008102Y005971D01*
X008418Y005891D02*
X008418Y005583D01*
X008456Y005583D01*
X008724Y005583D01*
X008724Y005761D01*
X008714Y005799D01*
X008694Y005834D01*
X008667Y005861D01*
X008632Y005881D01*
X008594Y005891D01*
X008456Y005891D01*
X008456Y005583D01*
X008456Y005545D01*
X008724Y005545D01*
X008724Y005419D01*
X008758Y005419D01*
X008843Y005334D01*
X008844Y005334D01*
X008844Y005364D01*
X008908Y005428D01*
X009181Y005428D01*
X009181Y006132D01*
X009181Y006256D01*
X009191Y006266D01*
X009181Y006168D02*
X008714Y006168D01*
X008714Y006069D02*
X009181Y006069D01*
X009181Y005971D02*
X008670Y005971D01*
X008648Y005872D02*
X009181Y005872D01*
X009181Y005773D02*
X008721Y005773D01*
X008724Y005675D02*
X009181Y005675D01*
X009181Y005576D02*
X008456Y005576D01*
X008456Y005675D02*
X008418Y005675D01*
X008418Y005773D02*
X008456Y005773D01*
X008456Y005872D02*
X008418Y005872D01*
X008724Y005478D02*
X009181Y005478D01*
X008859Y005379D02*
X008798Y005379D01*
X008714Y006365D02*
X009373Y006365D01*
X009373Y006463D02*
X008711Y006463D01*
X008639Y006562D02*
X009373Y006562D01*
X009326Y006660D02*
X007461Y006660D01*
X007461Y006562D02*
X008215Y006562D01*
X008408Y006562D02*
X008446Y006562D01*
X008446Y006463D02*
X008408Y006463D01*
X008408Y006365D02*
X008446Y006365D01*
X007667Y006365D02*
X007496Y006365D01*
X007461Y006463D02*
X007667Y006463D01*
X007396Y006759D02*
X009227Y006759D01*
X009525Y006999D02*
X009399Y007124D01*
X009313Y007124D01*
X009291Y007124D01*
X009271Y007135D01*
X009231Y007124D01*
X008273Y007124D01*
X008346Y007197D01*
X008346Y007392D01*
X008339Y007398D01*
X008506Y007561D01*
X008764Y007561D01*
X008828Y007625D01*
X008828Y007992D01*
X008765Y008054D01*
X009241Y008054D01*
X009241Y008042D01*
X009241Y007342D01*
X009329Y007254D01*
X009339Y007244D01*
X009463Y007244D01*
X009499Y007244D01*
X009639Y007104D01*
X009690Y007104D01*
X009690Y006980D01*
X009671Y006983D01*
X009659Y006994D01*
X009595Y006994D01*
X009532Y007004D01*
X009525Y006999D01*
X009469Y007054D02*
X009690Y007054D01*
X009590Y007153D02*
X008302Y007153D01*
X008346Y007252D02*
X009331Y007252D01*
X009329Y007254D02*
X009329Y007254D01*
X009241Y007350D02*
X008346Y007350D01*
X008391Y007449D02*
X009241Y007449D01*
X009241Y007547D02*
X008492Y007547D01*
X008254Y007734D02*
X008044Y007529D01*
X008013Y007529D01*
X007876Y007392D01*
X007876Y007197D01*
X007949Y007124D01*
X007353Y007124D01*
X007323Y007154D01*
X007083Y007154D01*
X007013Y007154D01*
X006953Y007214D01*
X006941Y007226D01*
X006941Y007237D01*
X006970Y007237D01*
X007034Y007301D01*
X007034Y007747D01*
X006981Y007801D01*
X006981Y007863D01*
X006949Y007894D01*
X007683Y007894D01*
X007708Y007881D01*
X007747Y007894D01*
X007787Y007894D01*
X007807Y007914D01*
X007834Y007923D01*
X007852Y007959D01*
X007881Y007988D01*
X007881Y008008D01*
X007927Y008054D01*
X008316Y008054D01*
X008254Y007992D01*
X008254Y007734D01*
X008254Y007744D02*
X007034Y007744D01*
X007034Y007646D02*
X008164Y007646D01*
X008063Y007547D02*
X007034Y007547D01*
X007034Y007449D02*
X007933Y007449D01*
X007876Y007350D02*
X007034Y007350D01*
X006985Y007252D02*
X007876Y007252D01*
X007920Y007153D02*
X007324Y007153D01*
X006981Y007843D02*
X008254Y007843D01*
X008254Y007941D02*
X007843Y007941D01*
X007913Y008040D02*
X008302Y008040D01*
X008541Y008320D02*
X008541Y009414D01*
X009341Y010214D01*
X009133Y009781D02*
X009245Y009734D01*
X009436Y009734D01*
X009613Y009807D01*
X009721Y009915D01*
X009721Y009162D01*
X009721Y009066D01*
X009757Y008978D01*
X009825Y008911D01*
X009861Y008896D01*
X009861Y008774D01*
X011401Y008774D01*
X011401Y008294D01*
X011054Y008296D01*
X011054Y008617D01*
X010990Y008681D01*
X010623Y008681D01*
X010559Y008617D01*
X010559Y008299D01*
X010543Y008299D01*
X010543Y008617D01*
X010478Y008681D01*
X010376Y008681D01*
X010353Y008704D01*
X010229Y008704D01*
X009779Y008704D01*
X009691Y008616D01*
X009381Y008306D01*
X008828Y008309D01*
X008828Y008504D01*
X008764Y008568D01*
X008701Y008568D01*
X008701Y009348D01*
X009133Y009781D01*
X009068Y009715D02*
X009721Y009715D01*
X009721Y009617D02*
X008969Y009617D01*
X008871Y009518D02*
X009721Y009518D01*
X009721Y009420D02*
X008772Y009420D01*
X008701Y009321D02*
X009721Y009321D01*
X009721Y009222D02*
X008701Y009222D01*
X008701Y009124D02*
X009721Y009124D01*
X009738Y009025D02*
X008701Y009025D01*
X008701Y008927D02*
X009809Y008927D01*
X009861Y008828D02*
X008701Y008828D01*
X008701Y008730D02*
X011401Y008730D01*
X011401Y008631D02*
X011040Y008631D01*
X011054Y008533D02*
X011401Y008533D01*
X011401Y008434D02*
X011054Y008434D01*
X011054Y008336D02*
X011401Y008336D01*
X011411Y008054D02*
X010961Y008054D01*
X010961Y006866D01*
X010961Y006742D01*
X010928Y006709D01*
X010928Y006703D01*
X010928Y006502D01*
X010928Y006310D01*
X010928Y006108D01*
X010864Y006044D01*
X010611Y006044D01*
X010611Y005791D01*
X010601Y005781D01*
X010601Y005776D01*
X010601Y005652D01*
X010591Y005642D01*
X010580Y005631D01*
X010708Y005631D01*
X010708Y005323D01*
X010746Y005323D01*
X011014Y005323D01*
X011014Y005501D01*
X011004Y005539D01*
X010984Y005574D01*
X010957Y005601D01*
X010922Y005621D01*
X010884Y005631D01*
X010746Y005631D01*
X010746Y005323D01*
X010746Y005285D01*
X011014Y005285D01*
X011014Y005107D01*
X011004Y005069D01*
X010984Y005035D01*
X010957Y005007D01*
X010922Y004987D01*
X010884Y004977D01*
X010746Y004977D01*
X010746Y005285D01*
X010708Y005285D01*
X010708Y004977D01*
X010569Y004977D01*
X010531Y004987D01*
X010497Y005007D01*
X010469Y005035D01*
X010450Y005068D01*
X010398Y005017D01*
X010361Y005017D01*
X010361Y004902D01*
X010132Y004674D01*
X010121Y004615D01*
X010121Y004544D01*
X011411Y004544D01*
X011411Y008054D01*
X011411Y008040D02*
X010961Y008040D01*
X010961Y007941D02*
X011411Y007941D01*
X011411Y007843D02*
X010961Y007843D01*
X010961Y007744D02*
X011411Y007744D01*
X011411Y007646D02*
X010961Y007646D01*
X010961Y007547D02*
X011411Y007547D01*
X011411Y007449D02*
X010961Y007449D01*
X010961Y007350D02*
X011411Y007350D01*
X011411Y007252D02*
X010961Y007252D01*
X010961Y007153D02*
X011411Y007153D01*
X011411Y007054D02*
X010961Y007054D01*
X010961Y006956D02*
X011411Y006956D01*
X011411Y006857D02*
X010961Y006857D01*
X010961Y006759D02*
X011411Y006759D01*
X011411Y006660D02*
X010928Y006660D01*
X010928Y006562D02*
X011411Y006562D01*
X011411Y006463D02*
X010928Y006463D01*
X010928Y006365D02*
X011411Y006365D01*
X011411Y006266D02*
X010928Y006266D01*
X010928Y006168D02*
X011411Y006168D01*
X011411Y006069D02*
X010889Y006069D01*
X010611Y005971D02*
X011411Y005971D01*
X011411Y005872D02*
X010611Y005872D01*
X010601Y005773D02*
X011411Y005773D01*
X011411Y005675D02*
X010601Y005675D01*
X010708Y005576D02*
X010746Y005576D01*
X010746Y005478D02*
X010708Y005478D01*
X010708Y005379D02*
X010746Y005379D01*
X010746Y005281D02*
X010708Y005281D01*
X010708Y005182D02*
X010746Y005182D01*
X010746Y005084D02*
X010708Y005084D01*
X010708Y004985D02*
X010746Y004985D01*
X010914Y004985D02*
X011411Y004985D01*
X011411Y004887D02*
X010345Y004887D01*
X010361Y004985D02*
X010539Y004985D01*
X010247Y004788D02*
X011411Y004788D01*
X011411Y004689D02*
X010148Y004689D01*
X010121Y004591D02*
X011411Y004591D01*
X011391Y004197D02*
X011316Y004197D01*
X011316Y004098D02*
X011391Y004098D01*
X011391Y004000D02*
X011316Y004000D01*
X011316Y003901D02*
X011391Y003901D01*
X011391Y003803D02*
X011316Y003803D01*
X011316Y003704D02*
X011391Y003704D01*
X011391Y003605D02*
X011316Y003605D01*
X011317Y003507D02*
X011391Y003507D01*
X011391Y003408D02*
X011356Y003408D01*
X011356Y003310D02*
X011391Y003310D01*
X011391Y003211D02*
X011356Y003211D01*
X011391Y003113D02*
X010961Y003113D01*
X010961Y003100D02*
X011356Y003100D01*
X011356Y002875D01*
X011346Y002836D01*
X011326Y002802D01*
X011298Y002774D01*
X011264Y002755D01*
X011226Y002744D01*
X010961Y002744D01*
X010961Y003100D01*
X010911Y003150D02*
X010911Y003154D01*
X010631Y003154D01*
X010621Y003164D01*
X010621Y003264D01*
X010421Y003464D01*
X009701Y003464D01*
X009631Y003394D01*
X009631Y003254D01*
X009461Y003084D01*
X009461Y003034D01*
X009296Y002869D01*
X009306Y002911D02*
X009167Y002911D01*
X009129Y002901D01*
X009095Y002881D01*
X009067Y002854D01*
X009047Y002819D01*
X009037Y002781D01*
X009037Y002603D01*
X009306Y002603D01*
X009306Y002565D01*
X009344Y002565D01*
X009344Y002257D01*
X009482Y002257D01*
X009521Y002267D01*
X009555Y002287D01*
X009583Y002315D01*
X009602Y002348D01*
X009653Y002297D01*
X010020Y002297D01*
X010084Y002361D01*
X010084Y002807D01*
X010031Y002861D01*
X010031Y003002D01*
X010344Y003002D01*
X010409Y003066D01*
X010409Y003374D01*
X010344Y003438D01*
X009781Y003438D01*
X009716Y003374D01*
X009716Y003359D01*
X009661Y003303D01*
X009651Y003293D01*
X009651Y003136D01*
X009651Y002869D01*
X009602Y002820D01*
X009583Y002854D01*
X009555Y002881D01*
X009521Y002901D01*
X009482Y002911D01*
X009344Y002911D01*
X009344Y002603D01*
X009306Y002603D01*
X009306Y002911D01*
X009306Y002817D02*
X009344Y002817D01*
X009344Y002719D02*
X009306Y002719D01*
X009306Y002620D02*
X009344Y002620D01*
X009306Y002565D02*
X009037Y002565D01*
X009037Y002387D01*
X009047Y002349D01*
X009067Y002315D01*
X009095Y002287D01*
X009129Y002267D01*
X009167Y002257D01*
X009306Y002257D01*
X009306Y002565D01*
X009306Y002521D02*
X009344Y002521D01*
X009344Y002423D02*
X009306Y002423D01*
X009306Y002324D02*
X009344Y002324D01*
X009588Y002324D02*
X009626Y002324D01*
X010047Y002324D02*
X011391Y002324D01*
X011391Y002226D02*
X008331Y002226D01*
X008331Y002324D02*
X009062Y002324D01*
X009037Y002423D02*
X008372Y002423D01*
X008406Y002521D02*
X009037Y002521D01*
X009037Y002620D02*
X008406Y002620D01*
X008339Y002719D02*
X009037Y002719D01*
X009047Y002817D02*
X008053Y002817D01*
X008053Y002916D02*
X009651Y002916D01*
X009651Y003014D02*
X009333Y003014D01*
X009488Y003113D02*
X009651Y003113D01*
X009651Y003211D02*
X009587Y003211D01*
X009631Y003310D02*
X009668Y003310D01*
X009631Y003408D02*
X009751Y003408D01*
X009631Y003507D02*
X010504Y003507D01*
X010506Y003597D02*
X010506Y003704D01*
X010466Y003408D02*
X010374Y003408D01*
X010409Y003310D02*
X010466Y003310D01*
X010466Y003211D02*
X010409Y003211D01*
X010409Y003113D02*
X010861Y003113D01*
X010861Y003100D02*
X010466Y003100D01*
X010466Y002875D01*
X010476Y002836D01*
X010495Y002802D01*
X010523Y002774D01*
X010558Y002755D01*
X010596Y002744D01*
X010861Y002744D01*
X010861Y003100D01*
X010861Y003014D02*
X010961Y003014D01*
X010961Y002916D02*
X010861Y002916D01*
X010861Y002817D02*
X010961Y002817D01*
X011335Y002817D02*
X011391Y002817D01*
X011391Y002719D02*
X010084Y002719D01*
X010074Y002817D02*
X010487Y002817D01*
X010466Y002916D02*
X010031Y002916D01*
X010084Y002620D02*
X011391Y002620D01*
X011391Y002521D02*
X010084Y002521D01*
X010084Y002423D02*
X011391Y002423D01*
X011391Y002916D02*
X011356Y002916D01*
X011356Y003014D02*
X011391Y003014D01*
X010466Y003014D02*
X010357Y003014D01*
X009728Y003803D02*
X009631Y003803D01*
X009631Y003901D02*
X009716Y003901D01*
X009716Y004000D02*
X009564Y004000D01*
X009466Y004098D02*
X009716Y004098D01*
X009741Y004197D02*
X008817Y004197D01*
X008674Y003803D02*
X008576Y003803D01*
X008653Y003704D02*
X008181Y003704D01*
X008131Y003700D02*
X008061Y003704D01*
X007531Y003704D01*
X007501Y003664D01*
X007501Y003564D01*
X007441Y003504D01*
X007401Y003434D01*
X007448Y003419D02*
X007140Y003419D01*
X007140Y003457D01*
X007448Y003457D01*
X007448Y003596D01*
X007438Y003634D01*
X007418Y003668D01*
X007390Y003696D01*
X007357Y003715D01*
X007405Y003764D01*
X007479Y003764D01*
X007534Y003819D01*
X007598Y003819D01*
X007686Y003907D01*
X007686Y003901D02*
X007680Y003901D01*
X007686Y003803D02*
X007518Y003803D01*
X007376Y003704D02*
X008081Y003704D01*
X008081Y003650D02*
X007686Y003650D01*
X007686Y003425D01*
X007696Y003386D01*
X007715Y003352D01*
X007743Y003324D01*
X007778Y003305D01*
X007816Y003294D01*
X008081Y003294D01*
X008081Y003650D01*
X008081Y003605D02*
X008181Y003605D01*
X008181Y003650D02*
X008181Y003294D01*
X008446Y003294D01*
X008484Y003305D01*
X008518Y003324D01*
X008546Y003352D01*
X008566Y003386D01*
X008576Y003425D01*
X008576Y003650D01*
X008181Y003650D01*
X008181Y003507D02*
X008081Y003507D01*
X008081Y003408D02*
X008181Y003408D01*
X008181Y003310D02*
X008081Y003310D01*
X008011Y003014D02*
X008745Y003014D01*
X008693Y003113D02*
X006201Y003113D01*
X006201Y003014D02*
X006827Y003014D01*
X006769Y002916D02*
X006255Y002916D01*
X006288Y002817D02*
X006551Y002817D01*
X006676Y003211D02*
X006822Y003211D01*
X006794Y003310D02*
X006676Y003310D01*
X006697Y003408D02*
X006794Y003408D01*
X006794Y003507D02*
X006716Y003507D01*
X006716Y003605D02*
X006796Y003605D01*
X006733Y003704D02*
X006865Y003704D01*
X006834Y003803D02*
X006831Y003803D01*
X007121Y003438D02*
X007121Y003434D01*
X007151Y003434D01*
X007140Y003408D02*
X007102Y003408D01*
X007102Y003310D02*
X007140Y003310D01*
X007140Y003211D02*
X007102Y003211D01*
X007390Y003181D02*
X007418Y003208D01*
X007438Y003243D01*
X007448Y003281D01*
X007448Y003419D01*
X007448Y003408D02*
X007690Y003408D01*
X007686Y003507D02*
X007448Y003507D01*
X007445Y003605D02*
X007686Y003605D01*
X007768Y003310D02*
X007448Y003310D01*
X007420Y003211D02*
X008693Y003211D01*
X008693Y003310D02*
X008493Y003310D01*
X008572Y003408D02*
X008674Y003408D01*
X008653Y003507D02*
X008576Y003507D01*
X008576Y003605D02*
X008653Y003605D01*
X007774Y003014D02*
X007716Y003014D01*
X007716Y002916D02*
X007774Y002916D01*
X007774Y002817D02*
X007716Y002817D01*
X007716Y002719D02*
X007774Y002719D01*
X008011Y002127D02*
X006211Y002127D01*
X006211Y002029D02*
X008011Y002029D01*
X008011Y001930D02*
X006211Y001930D01*
X006211Y001832D02*
X008011Y001832D01*
X008011Y001733D02*
X006211Y001733D01*
X006211Y001635D02*
X008011Y001635D01*
X008011Y001536D02*
X006211Y001536D01*
X006211Y001438D02*
X008011Y001438D01*
X008011Y001339D02*
X006211Y001339D01*
X006211Y001240D02*
X006630Y001240D01*
X006641Y001246D02*
X006568Y001209D01*
X006502Y001161D01*
X006444Y001103D01*
X006396Y001037D01*
X006359Y000964D01*
X006334Y000886D01*
X006322Y000814D01*
X006791Y000814D01*
X006791Y001283D01*
X006719Y001271D01*
X006641Y001246D01*
X006791Y001240D02*
X006891Y001240D01*
X006891Y001142D02*
X006791Y001142D01*
X006791Y001043D02*
X006891Y001043D01*
X006891Y000945D02*
X006791Y000945D01*
X006791Y000846D02*
X006891Y000846D01*
X006791Y000748D02*
X006321Y000748D01*
X006321Y000846D02*
X006327Y000846D01*
X006353Y000945D02*
X006286Y000945D01*
X006240Y001043D02*
X006401Y001043D01*
X006483Y001142D02*
X006211Y001142D01*
X006313Y000649D02*
X006332Y000649D01*
X006366Y000551D02*
X006272Y000551D01*
X006207Y000452D02*
X006425Y000452D01*
X007052Y001240D02*
X007736Y001240D01*
X007540Y001142D02*
X007199Y001142D01*
X007281Y001043D02*
X007441Y001043D01*
X007369Y000649D02*
X007349Y000649D01*
X007316Y000551D02*
X007410Y000551D01*
X007474Y000452D02*
X007257Y000452D01*
X007945Y001240D02*
X008011Y001240D01*
X008331Y002127D02*
X008371Y002127D01*
X010476Y004098D02*
X010506Y004098D01*
X010506Y004197D02*
X010125Y004197D01*
X011008Y005084D02*
X011411Y005084D01*
X011411Y005182D02*
X011014Y005182D01*
X011014Y005281D02*
X011411Y005281D01*
X011411Y005379D02*
X011014Y005379D01*
X011014Y005478D02*
X011411Y005478D01*
X011411Y005576D02*
X010982Y005576D01*
X010452Y006203D02*
X010350Y006203D01*
X010201Y006203D01*
X010201Y006306D01*
X010191Y006316D01*
X010191Y006656D01*
X010103Y006744D01*
X010081Y006766D01*
X010127Y006766D01*
X010165Y006776D01*
X010200Y006796D01*
X010210Y006806D01*
X010289Y006806D01*
X010299Y006796D01*
X010333Y006776D01*
X010371Y006766D01*
X010446Y006766D01*
X010446Y007043D01*
X010446Y007043D01*
X010446Y006766D01*
X010452Y006766D01*
X010452Y006703D01*
X010452Y006502D01*
X010452Y006310D01*
X010452Y006203D01*
X010452Y006266D02*
X010201Y006266D01*
X010191Y006365D02*
X010452Y006365D01*
X010452Y006463D02*
X010191Y006463D01*
X010191Y006562D02*
X010452Y006562D01*
X010452Y006660D02*
X010187Y006660D01*
X010088Y006759D02*
X010452Y006759D01*
X010446Y006857D02*
X010446Y006857D01*
X010446Y006956D02*
X010446Y006956D01*
X010446Y007043D02*
X010446Y007044D01*
X010446Y007322D01*
X010401Y007322D01*
X010401Y007356D01*
X010356Y007401D01*
X010356Y007725D01*
X010414Y007725D01*
X010414Y007368D01*
X010562Y007368D01*
X010600Y007378D01*
X010635Y007398D01*
X010661Y007424D01*
X010661Y006965D01*
X010651Y006965D01*
X010651Y007043D01*
X010446Y007043D01*
X010446Y007044D02*
X010651Y007044D01*
X010651Y007191D01*
X010641Y007229D01*
X010621Y007264D01*
X010593Y007292D01*
X010559Y007311D01*
X010521Y007322D01*
X010446Y007322D01*
X010446Y007044D01*
X010446Y007044D01*
X010446Y007054D02*
X010446Y007054D01*
X010446Y007153D02*
X010446Y007153D01*
X010446Y007252D02*
X010446Y007252D01*
X010401Y007350D02*
X010661Y007350D01*
X010661Y007252D02*
X010628Y007252D01*
X010651Y007153D02*
X010661Y007153D01*
X010651Y007054D02*
X010661Y007054D01*
X010414Y007449D02*
X010356Y007449D01*
X010356Y007547D02*
X010414Y007547D01*
X010414Y007646D02*
X010356Y007646D01*
X010356Y007725D02*
X010078Y007725D01*
X010078Y007544D01*
X009944Y007544D01*
X009944Y008036D01*
X009926Y008054D01*
X010091Y008054D01*
X010088Y008048D01*
X010078Y008010D01*
X010078Y007783D01*
X010356Y007783D01*
X010356Y007725D01*
X010356Y007744D02*
X009944Y007744D01*
X009944Y007646D02*
X010078Y007646D01*
X010078Y007547D02*
X009944Y007547D01*
X009944Y007843D02*
X010078Y007843D01*
X010078Y007941D02*
X009944Y007941D01*
X009940Y008040D02*
X010086Y008040D01*
X010543Y008336D02*
X010559Y008336D01*
X010559Y008434D02*
X010543Y008434D01*
X010543Y008533D02*
X010559Y008533D01*
X010573Y008631D02*
X010528Y008631D01*
X009706Y008631D02*
X008701Y008631D01*
X008799Y008533D02*
X009607Y008533D01*
X009509Y008434D02*
X008828Y008434D01*
X008828Y008336D02*
X009410Y008336D01*
X009241Y008040D02*
X008780Y008040D01*
X008828Y007941D02*
X009241Y007941D01*
X009241Y007843D02*
X008828Y007843D01*
X008828Y007744D02*
X009241Y007744D01*
X009241Y007646D02*
X008828Y007646D01*
X007953Y008533D02*
X007525Y008533D01*
X007510Y008548D02*
X007503Y009762D01*
X007613Y009807D01*
X007748Y009942D01*
X007821Y010119D01*
X007821Y010310D01*
X007748Y010486D01*
X007640Y010594D01*
X008042Y010594D01*
X007934Y010486D01*
X007861Y010310D01*
X007861Y010119D01*
X007934Y009942D01*
X008069Y009807D01*
X008181Y009761D01*
X008181Y008761D01*
X007736Y008316D01*
X007586Y008317D01*
X007586Y008472D01*
X007510Y008548D01*
X007509Y008631D02*
X008051Y008631D01*
X008150Y008730D02*
X007509Y008730D01*
X007508Y008828D02*
X008181Y008828D01*
X008181Y008927D02*
X007508Y008927D01*
X007507Y009025D02*
X008181Y009025D01*
X008181Y009124D02*
X007507Y009124D01*
X007506Y009222D02*
X008181Y009222D01*
X008181Y009321D02*
X007506Y009321D01*
X007505Y009420D02*
X008181Y009420D01*
X008181Y009518D02*
X007505Y009518D01*
X007504Y009617D02*
X008181Y009617D01*
X008181Y009715D02*
X007503Y009715D01*
X007619Y009814D02*
X008062Y009814D01*
X007964Y009912D02*
X007718Y009912D01*
X007776Y010011D02*
X007905Y010011D01*
X007865Y010109D02*
X007817Y010109D01*
X007821Y010208D02*
X007861Y010208D01*
X007861Y010306D02*
X007821Y010306D01*
X007781Y010405D02*
X007900Y010405D01*
X007951Y010504D02*
X007730Y010504D01*
X007341Y010214D02*
X007351Y008374D01*
X007190Y008546D02*
X007116Y008472D01*
X007116Y008320D01*
X006749Y008322D01*
X006661Y008411D01*
X006661Y008491D01*
X006656Y008496D01*
X006656Y008602D01*
X006518Y008739D01*
X006323Y008739D01*
X006186Y008602D01*
X006186Y008407D01*
X006309Y008284D01*
X006301Y008274D01*
X006154Y008274D01*
X006154Y008607D01*
X006110Y008651D01*
X006491Y009032D01*
X006491Y009156D01*
X006491Y009757D01*
X006613Y009807D01*
X006748Y009942D01*
X006821Y010119D01*
X006821Y010310D01*
X006748Y010486D01*
X006640Y010594D01*
X007042Y010594D01*
X006934Y010486D01*
X006861Y010310D01*
X006861Y010119D01*
X006934Y009942D01*
X007069Y009807D01*
X007183Y009760D01*
X007190Y008546D01*
X007177Y008533D02*
X006656Y008533D01*
X006661Y008434D02*
X007116Y008434D01*
X007116Y008336D02*
X006736Y008336D01*
X006501Y008344D02*
X006501Y008424D01*
X006421Y008504D01*
X006431Y008504D01*
X006471Y008464D01*
X006501Y008344D02*
X006791Y008054D01*
X007721Y008054D01*
X007741Y008094D01*
X008341Y008694D01*
X008341Y010214D01*
X007184Y009715D02*
X006491Y009715D01*
X006491Y009617D02*
X007184Y009617D01*
X007185Y009518D02*
X006491Y009518D01*
X006491Y009420D02*
X007185Y009420D01*
X007186Y009321D02*
X006491Y009321D01*
X006491Y009222D02*
X007186Y009222D01*
X007187Y009124D02*
X006491Y009124D01*
X006484Y009025D02*
X007187Y009025D01*
X007188Y008927D02*
X006385Y008927D01*
X006287Y008828D02*
X007188Y008828D01*
X007189Y008730D02*
X006528Y008730D01*
X006626Y008631D02*
X007189Y008631D01*
X007586Y008434D02*
X007854Y008434D01*
X007756Y008336D02*
X007586Y008336D01*
X006314Y008730D02*
X006188Y008730D01*
X006215Y008631D02*
X006130Y008631D01*
X006154Y008533D02*
X006186Y008533D01*
X006186Y008434D02*
X006154Y008434D01*
X006154Y008336D02*
X006257Y008336D01*
X005863Y008828D02*
X003751Y008828D01*
X003873Y008927D02*
X005961Y008927D01*
X006060Y009025D02*
X003944Y009025D01*
X003961Y009124D02*
X006158Y009124D01*
X006191Y009222D02*
X003961Y009222D01*
X003961Y009321D02*
X006191Y009321D01*
X006191Y009420D02*
X003961Y009420D01*
X003961Y009518D02*
X006191Y009518D01*
X006191Y009617D02*
X003961Y009617D01*
X003961Y009715D02*
X004194Y009715D01*
X004291Y009715D02*
X004391Y009715D01*
X004391Y009696D02*
X004463Y009707D01*
X004540Y009732D01*
X004613Y009769D01*
X004680Y009818D01*
X004737Y009875D01*
X004786Y009942D01*
X004823Y010015D01*
X004841Y010070D01*
X004859Y010015D01*
X004896Y009942D01*
X004944Y009875D01*
X005002Y009818D01*
X005068Y009769D01*
X005141Y009732D01*
X005219Y009707D01*
X005291Y009696D01*
X005291Y010164D01*
X004859Y010164D01*
X004391Y010164D01*
X004391Y009696D01*
X004487Y009715D02*
X005194Y009715D01*
X005291Y009715D02*
X005391Y009715D01*
X005391Y009696D02*
X005463Y009707D01*
X005540Y009732D01*
X005613Y009769D01*
X005680Y009818D01*
X005737Y009875D01*
X005786Y009942D01*
X005823Y010015D01*
X005848Y010092D01*
X005859Y010164D01*
X005391Y010164D01*
X005391Y009696D01*
X005487Y009715D02*
X006191Y009715D01*
X006062Y009814D02*
X005674Y009814D01*
X005764Y009912D02*
X005964Y009912D01*
X005905Y010011D02*
X005821Y010011D01*
X005851Y010109D02*
X005865Y010109D01*
X005861Y010208D02*
X005391Y010208D01*
X005341Y010214D02*
X004341Y010214D01*
X004391Y010208D02*
X005291Y010208D01*
X005341Y010214D02*
X005341Y008714D01*
X005391Y008664D01*
X005391Y008424D01*
X005395Y008384D01*
X005391Y008384D01*
X005391Y008234D01*
X005141Y008234D01*
X005051Y008324D01*
X005107Y008336D02*
X004258Y008336D01*
X004281Y008313D02*
X004281Y008313D01*
X004357Y008237D02*
X005107Y008237D01*
X005107Y008403D02*
X005376Y008403D01*
X005376Y008711D01*
X005237Y008711D01*
X005199Y008701D01*
X005165Y008681D01*
X005137Y008654D01*
X005117Y008619D01*
X005107Y008581D01*
X005107Y008403D01*
X005107Y008434D02*
X004077Y008434D01*
X004058Y007941D02*
X004115Y007941D01*
X004098Y007843D02*
X005889Y007843D01*
X005414Y008237D02*
X005376Y008237D01*
X005376Y008336D02*
X005414Y008336D01*
X005414Y008434D02*
X005376Y008434D01*
X005376Y008533D02*
X005414Y008533D01*
X005414Y008631D02*
X005376Y008631D01*
X005124Y008631D02*
X002251Y008631D01*
X002251Y008533D02*
X005107Y008533D01*
X005666Y008631D02*
X005683Y008631D01*
X005764Y008730D02*
X002251Y008730D01*
X003961Y009814D02*
X004007Y009814D01*
X004291Y009814D02*
X004391Y009814D01*
X004391Y009912D02*
X004291Y009912D01*
X004291Y010011D02*
X004391Y010011D01*
X004391Y010109D02*
X004291Y010109D01*
X004674Y009814D02*
X005007Y009814D01*
X004917Y009912D02*
X004764Y009912D01*
X004821Y010011D02*
X004861Y010011D01*
X005291Y010011D02*
X005391Y010011D01*
X005391Y010109D02*
X005291Y010109D01*
X005291Y009912D02*
X005391Y009912D01*
X005391Y009814D02*
X005291Y009814D01*
X005853Y010306D02*
X005861Y010306D01*
X005826Y010405D02*
X005900Y010405D01*
X005951Y010504D02*
X005773Y010504D01*
X006619Y009814D02*
X007062Y009814D01*
X006964Y009912D02*
X006718Y009912D01*
X006776Y010011D02*
X006905Y010011D01*
X006865Y010109D02*
X006817Y010109D01*
X006821Y010208D02*
X006861Y010208D01*
X006861Y010306D02*
X006821Y010306D01*
X006781Y010405D02*
X006900Y010405D01*
X006951Y010504D02*
X006730Y010504D01*
X009619Y009814D02*
X009721Y009814D01*
X009718Y009912D02*
X009721Y009912D01*
X007728Y005971D02*
X007529Y005971D01*
X004601Y005024D02*
X004601Y004994D01*
X004141Y005191D02*
X004111Y005194D01*
X003893Y004985D02*
X003521Y004985D01*
X003486Y005084D02*
X003725Y005084D01*
X003627Y005182D02*
X003425Y005182D01*
X003251Y005024D02*
X003551Y004734D01*
X003551Y004514D01*
X003691Y004374D01*
X004631Y004374D01*
X004481Y004197D02*
X003404Y004197D01*
X003404Y004295D02*
X003543Y004295D01*
X003531Y004308D02*
X003531Y004308D01*
X003624Y004000D02*
X002879Y004000D01*
X002896Y004098D02*
X004481Y004098D01*
X004214Y004000D02*
X003898Y004000D01*
X003996Y003901D02*
X004156Y003901D01*
X004156Y003803D02*
X003996Y003803D01*
X004388Y003394D02*
X004389Y003394D01*
X004443Y003394D01*
X004493Y003394D01*
X004487Y003389D01*
X004487Y003180D01*
X004552Y003115D01*
X005021Y003115D01*
X005021Y002948D01*
X004978Y002948D01*
X004914Y002883D01*
X004914Y002465D01*
X004978Y002401D01*
X004914Y002521D02*
X002251Y002521D01*
X002251Y002620D02*
X002668Y002620D01*
X002695Y002593D02*
X003487Y002593D01*
X003551Y002657D01*
X003551Y002816D01*
X003561Y002826D01*
X003614Y002879D01*
X003623Y002869D01*
X003774Y002869D01*
X003774Y002861D01*
X003784Y002823D01*
X003804Y002788D01*
X003831Y002761D01*
X003866Y002741D01*
X003904Y002731D01*
X004082Y002731D01*
X004082Y002999D01*
X004120Y002999D01*
X004120Y002731D01*
X004298Y002731D01*
X004336Y002741D01*
X004370Y002761D01*
X004398Y002788D01*
X004418Y002823D01*
X004428Y002861D01*
X004428Y002999D01*
X004120Y002999D01*
X004120Y003037D01*
X004428Y003037D01*
X004428Y003176D01*
X004418Y003214D01*
X004398Y003248D01*
X004370Y003276D01*
X004337Y003295D01*
X004388Y003347D01*
X004388Y003394D01*
X004351Y003310D02*
X004487Y003310D01*
X004487Y003211D02*
X004418Y003211D01*
X004428Y003113D02*
X005021Y003113D01*
X005021Y003014D02*
X004120Y003014D01*
X004101Y003014D02*
X004101Y003018D01*
X004101Y003014D02*
X004381Y003014D01*
X004421Y003054D01*
X004481Y003054D01*
X004428Y002916D02*
X004946Y002916D01*
X004914Y002817D02*
X004414Y002817D01*
X004120Y002817D02*
X004082Y002817D01*
X004082Y002916D02*
X004120Y002916D01*
X003787Y002817D02*
X003552Y002817D01*
X003551Y002719D02*
X004914Y002719D01*
X004914Y002620D02*
X003514Y002620D01*
X003412Y003215D02*
X002695Y003215D01*
X002630Y003150D01*
X002630Y002657D01*
X002695Y002593D01*
X002630Y002719D02*
X002251Y002719D01*
X002251Y002817D02*
X002630Y002817D01*
X002630Y002916D02*
X002251Y002916D01*
X002251Y003014D02*
X002630Y003014D01*
X002630Y003113D02*
X002251Y003113D01*
X002251Y003211D02*
X002691Y003211D01*
X002695Y003294D02*
X003421Y003294D01*
X003421Y003223D01*
X003412Y003215D01*
X003091Y003605D02*
X003021Y003604D01*
X002831Y003604D01*
X002661Y003774D01*
X002661Y004114D01*
X002509Y004295D02*
X002251Y004295D01*
X002251Y004197D02*
X002426Y004197D01*
X002426Y004212D02*
X002426Y004017D01*
X002501Y003942D01*
X002501Y003708D01*
X002594Y003614D01*
X002630Y003578D01*
X002630Y003358D01*
X002695Y003294D01*
X002679Y003310D02*
X002251Y003310D01*
X002251Y003408D02*
X002630Y003408D01*
X002630Y003507D02*
X002251Y003507D01*
X002251Y003605D02*
X002603Y003605D01*
X002505Y003704D02*
X002251Y003704D01*
X002251Y003803D02*
X002501Y003803D01*
X002501Y003901D02*
X002251Y003901D01*
X002251Y004000D02*
X002443Y004000D01*
X002426Y004098D02*
X002251Y004098D01*
X002426Y004212D02*
X002563Y004349D01*
X002758Y004349D01*
X002791Y004317D01*
X002791Y004394D01*
X002981Y004554D02*
X002981Y005474D01*
X003192Y006069D02*
X003231Y006069D01*
X003231Y006168D02*
X003094Y006168D01*
X002995Y006266D02*
X003276Y006266D01*
X003375Y006365D02*
X002897Y006365D01*
X003625Y004887D02*
X003893Y004887D01*
X003526Y003901D02*
X003501Y003901D01*
D30*
X001141Y002864D03*
X001141Y008114D03*
X012541Y008114D03*
X012541Y002864D03*
M02*
