G75*
G70*
%OFA0B0*%
%FSLAX24Y24*%
%IPPOS*%
%LPD*%
%AMOC8*
5,1,8,0,0,1.08239X$1,22.5*
%
%ADD10C,0.0080*%
%ADD11C,0.0020*%
D10*
X000141Y001864D02*
X005221Y001864D01*
X005221Y000144D01*
X008461Y000144D01*
X008461Y001864D01*
X013541Y001864D01*
X013541Y009114D01*
X009961Y009114D01*
X009961Y010834D01*
X003721Y010834D01*
X003721Y009114D01*
X000141Y009114D01*
X000141Y001864D01*
X004091Y009714D02*
X004591Y009714D01*
X004841Y009964D01*
X005091Y009714D01*
X005591Y009714D01*
X005841Y009964D01*
X006091Y009714D01*
X006591Y009714D01*
X006841Y009964D01*
X007091Y009714D01*
X007591Y009714D01*
X007841Y009964D01*
X008091Y009714D01*
X008591Y009714D01*
X008841Y009964D01*
X009091Y009714D01*
X009591Y009714D01*
X009841Y009964D01*
X009841Y010464D01*
X009591Y010714D01*
X009091Y010714D01*
X008841Y010464D01*
X008591Y010714D01*
X008091Y010714D01*
X007841Y010464D01*
X007591Y010714D01*
X007091Y010714D01*
X006841Y010464D01*
X006591Y010714D01*
X006091Y010714D01*
X005841Y010464D01*
X005591Y010714D01*
X005091Y010714D01*
X004841Y010464D01*
X004591Y010714D01*
X004091Y010714D01*
X003841Y010464D01*
X003841Y009964D01*
X004091Y009714D01*
D11*
X009633Y008561D02*
X009656Y008584D01*
X009703Y008584D01*
X009726Y008561D01*
X009780Y008561D02*
X009780Y008514D01*
X009803Y008491D01*
X009873Y008491D01*
X009873Y008444D02*
X009873Y008584D01*
X009803Y008584D01*
X009780Y008561D01*
X009726Y008444D02*
X009633Y008444D01*
X009726Y008444D02*
X009633Y008538D01*
X009633Y008561D01*
X009927Y008584D02*
X009974Y008584D01*
X009951Y008584D02*
X009951Y008468D01*
X009974Y008444D01*
X009997Y008444D01*
X010021Y008468D01*
M02*
