%
M48
M72
T01C0.0120
T02C0.0400
T03C0.1200
%
T01
X2511Y2574
X3721Y2544
X3721Y3104
X3761Y3804
X4391Y3844
X4481Y3054
X5731Y3664
X5621Y4444
X6001Y4854
X5641Y5234
X5071Y5944
X4591Y6134
X4441Y6794
X3831Y6544
X3151Y6374
X3801Y5974
X2981Y5474
X3251Y5024
X2981Y4554
X2661Y4114
X3801Y4624
X4601Y5024
X5641Y6844
X4541Y7544
X5051Y8324
X6421Y8504
X6931Y8654
X7351Y8374
X7781Y8564
X7581Y7544
X8111Y7294
X8581Y6654
X8991Y7334
X9231Y8514
X10281Y6654
X10361Y6314
X10731Y5944
X9571Y5524
X8961Y5834
X8661Y5184
X7941Y4904
X7471Y4834
X7201Y5184
X7551Y5424
X7591Y5904
X7551Y6394
X7161Y6764
X6921Y4854
X7501Y4054
X7531Y3704
X6671Y2604
X8171Y2554
X8681Y2624
X10431Y4234
X10941Y2584
X3081Y7164
X2551Y8274
T02
X4341Y10214
X5341Y10214
X6341Y10214
X7341Y10214
X8341Y10214
X9341Y10214
X7841Y764
X6841Y764
X5841Y764
T03
X1141Y2864
X1141Y8114
X12541Y8114
X12541Y2864
M30
